<?xml version="1.0" encoding="UTF-8" standalone="no"?>
<!DOCTYPE svg PUBLIC "-//W3C//DTD SVG 1.1//EN" "http://www.w3.org/Graphics/SVG/1.1/DTD/svg11.dtd">
<svg xmlns="http://www.w3.org/2000/svg" version="1.1" viewBox="0.00 0.00 1000.00 333.00">
<g stroke-width="2.00" fill="none" stroke-linecap="butt">
<path stroke="#808080" vector-effect="non-scaling-stroke" d="
  M 221.15 54.09
  C 216.92 54.01 212.29 55.53 209.64 58.98
  Q 207.79 61.39 205.48 63.42
  C 204.25 64.51 204.05 66.10 205.11 67.37
  Q 214.45 78.58 223.21 89.33
  Q 224.19 90.52 225.16 89.33
  L 242.97 67.62
  A 3.15 3.14 42.0 0 0 242.75 63.38
  L 234.43 55.14
  A 1.96 1.95 -20.9 0 0 233.15 54.57
  Q 226.85 54.20 221.15 54.09"
/>
<path stroke="#808080" vector-effect="non-scaling-stroke" d="
  M 551.83 186.45
  C 551.85 196.87 557.76 204.63 568.59 204.92
  Q 575.40 205.10 583.14 202.82
  Q 585.41 202.15 585.03 199.82
  Q 584.74 197.96 584.11 196.10
  Q 583.66 194.77 582.30 195.10
  Q 577.43 196.24 572.97 196.14
  C 563.86 195.94 561.66 190.24 561.68 182.40
  Q 561.81 126.65 561.72 68.21
  Q 561.72 66.08 559.60 65.90
  Q 556.74 65.66 553.77 65.85
  Q 551.90 65.97 551.89 67.84
  Q 551.71 125.52 551.83 186.45"
/>
<path stroke="#808080" vector-effect="non-scaling-stroke" d="
  M 170.38 125.36
  Q 171.10 124.57 172.09 124.56
  Q 179.92 124.49 188.26 124.63
  A 2.68 2.68 0.0 0 0 190.99 121.96
  L 191.00 107.15
  A 2.56 2.55 -0.3 0 0 188.40 104.59
  L 172.04 104.85
  A 2.06 2.05 -0.4 0 1 169.94 102.79
  L 170.04 74.97
  A 2.31 2.31 0.0 0 0 167.72 72.66
  L 147.05 72.74
  A 2.20 2.19 89.7 0 0 144.87 74.95
  L 144.98 102.03
  Q 144.99 104.80 142.22 104.79
  L 132.46 104.74
  Q 131.80 104.74 131.80 105.39
  Q 131.73 112.85 131.87 119.93
  C 131.91 122.43 131.79 124.37 134.98 124.57
  Q 138.72 124.79 142.67 124.47
  A 1.94 1.94 0.0 0 1 144.76 126.25
  Q 144.95 128.90 144.96 131.55
  Q 145.03 152.68 144.91 176.57
  Q 144.86 187.18 146.33 191.14
  Q 150.70 202.87 165.05 205.15
  C 175.47 206.80 186.48 203.85 196.02 199.56
  Q 198.12 198.62 197.61 196.42
  Q 195.67 188.01 193.63 179.73
  Q 193.44 178.97 192.69 179.21
  Q 187.51 180.88 182.02 181.91
  Q 173.55 183.51 170.95 177.72
  Q 169.83 175.23 169.88 168.36
  Q 170.01 148.34 169.93 126.52
  A 1.72 1.70 66.5 0 1 170.38 125.36"
/>
<path stroke="#808080" vector-effect="non-scaling-stroke" d="
  M 283.03 121.39
  A 0.64 0.64 0.0 0 1 282.50 120.76
  L 282.50 107.03
  Q 282.50 104.82 280.28 104.81
  L 262.03 104.75
  A 2.22 2.22 0.0 0 0 259.80 106.97
  L 259.71 200.73
  Q 259.71 204.23 263.21 204.14
  Q 272.12 203.90 281.70 204.12
  Q 284.69 204.18 284.76 201.27
  Q 285.32 178.82 284.62 152.58
  Q 284.49 147.77 285.73 144.27
  C 288.78 135.64 296.29 127.45 305.08 125.77
  C 314.16 124.02 320.69 129.21 322.46 137.97
  Q 323.66 143.87 323.70 149.36
  Q 323.86 173.30 323.63 200.52
  Q 323.59 204.07 327.14 204.06
  L 346.35 204.02
  A 2.57 2.57 0.0 0 0 348.91 201.48
  Q 349.28 175.24 348.73 152.69
  Q 348.62 148.01 349.83 144.45
  C 352.93 135.39 360.94 126.63 370.74 125.53
  C 380.25 124.46 385.78 131.26 386.89 139.94
  Q 387.70 146.38 387.72 154.45
  Q 387.78 177.11 387.64 200.36
  Q 387.62 204.29 391.66 204.17
  Q 401.40 203.89 410.06 204.10
  A 2.94 2.93 -89.2 0 0 413.07 201.16
  Q 413.07 172.91 412.84 145.25
  Q 412.74 133.02 411.43 126.16
  Q 407.47 105.34 386.37 103.27
  Q 370.56 101.73 357.46 111.85
  C 353.79 114.69 350.61 119.05 347.57 122.76
  A 0.34 0.34 0.0 0 1 347.00 122.67
  C 344.13 115.64 340.46 109.12 333.35 106.04
  C 316.05 98.56 293.92 105.20 283.66 121.12
  Q 283.43 121.47 283.03 121.39"
/>
<path stroke="#808080" vector-effect="non-scaling-stroke" d="
  M 456.38 162.93
  Q 457.22 162.64 458.50 162.64
  Q 493.02 162.70 526.50 162.60
  C 529.05 162.59 532.20 162.24 532.39 159.18
  C 533.41 142.39 528.50 125.76 515.00 115.02
  C 495.58 99.55 468.19 98.74 448.15 113.91
  C 436.90 122.41 430.91 135.01 429.29 149.13
  C 426.75 171.13 438.28 192.39 458.65 201.37
  Q 473.90 208.09 491.90 204.84
  Q 515.38 200.60 526.31 180.98
  A 0.94 0.93 22.7 0 0 525.75 179.63
  Q 515.69 176.64 507.76 174.62
  Q 505.96 174.16 504.55 175.56
  C 502.44 177.65 500.63 180.48 498.20 182.10
  C 480.96 193.60 458.87 185.10 455.74 163.98
  Q 455.62 163.19 456.38 162.93"
/>
<path stroke="#808080" vector-effect="non-scaling-stroke" d="
  M 705.91 130.61
  C 704.44 143.61 711.88 150.13 723.74 153.47
  Q 738.23 157.56 753.51 161.93
  C 761.83 164.32 768.79 167.14 769.48 177.07
  C 769.96 184.00 766.69 189.65 760.45 193.25
  Q 755.33 196.22 750.47 197.07
  Q 725.25 201.52 707.33 185.59
  Q 706.05 184.45 705.00 185.81
  L 702.45 189.10
  Q 701.42 190.44 702.57 191.67
  C 708.47 197.99 718.74 202.43 726.73 204.14
  Q 741.50 207.29 754.21 204.29
  C 765.05 201.72 775.81 194.65 778.20 183.41
  C 781.21 169.29 772.61 159.28 759.73 155.24
  Q 747.42 151.37 728.49 146.22
  Q 723.83 144.95 720.68 142.89
  C 712.54 137.58 713.26 126.64 718.76 119.73
  C 724.97 111.93 735.80 111.16 745.51 111.77
  Q 759.40 112.65 768.15 120.44
  Q 770.78 122.77 773.53 120.59
  Q 773.97 120.25 774.27 119.80
  Q 775.80 117.48 773.88 115.46
  Q 771.23 112.67 766.29 109.96
  Q 749.21 100.61 729.64 105.26
  C 715.55 108.60 707.60 115.63 705.91 130.61"
/>
<path stroke="#808080" vector-effect="non-scaling-stroke" d="
  M 850.49 164.32
  C 859.88 168.03 863.05 177.66 858.04 186.33
  Q 853.80 193.66 845.71 196.07
  Q 835.05 199.24 822.23 197.35
  Q 809.38 195.46 799.25 186.43
  Q 796.34 183.84 793.89 186.87
  Q 793.00 187.97 792.85 189.63
  A 3.53 3.51 -67.4 0 0 794.07 192.60
  Q 803.43 200.60 815.54 203.65
  C 829.37 207.13 844.96 206.66 857.27 199.20
  C 870.36 191.27 874.82 168.84 860.27 159.67
  Q 855.20 156.48 850.17 155.04
  Q 834.10 150.47 816.94 145.77
  Q 805.08 142.53 805.33 130.97
  C 805.56 120.62 813.76 113.67 823.64 112.16
  Q 834.73 110.47 845.73 113.39
  C 851.03 114.80 855.68 117.57 859.97 120.96
  C 862.24 122.75 864.58 119.69 865.86 118.22
  Q 866.28 117.73 865.89 117.21
  Q 863.91 114.63 861.24 112.79
  Q 843.24 100.46 822.00 104.92
  C 806.30 108.21 796.54 116.63 796.62 133.60
  C 796.68 144.76 802.53 149.41 812.62 152.53
  Q 826.60 156.85 841.57 161.25
  Q 845.98 162.55 850.49 164.32"
/>
<path stroke="#808080" vector-effect="non-scaling-stroke" d="
  M 604.62 158.81
  Q 605.54 158.50 606.53 158.50
  Q 646.15 158.66 685.91 158.75
  C 688.23 158.76 689.42 157.18 689.33 154.89
  Q 688.44 132.81 675.38 118.86
  Q 660.29 102.73 637.03 104.09
  C 617.62 105.23 601.07 120.17 595.69 138.65
  Q 590.02 158.10 597.97 176.41
  C 606.91 197.00 627.89 208.86 650.11 204.96
  C 662.76 202.74 675.19 195.61 681.12 183.82
  Q 682.08 181.91 680.07 181.22
  L 676.41 179.96
  Q 674.22 179.20 672.98 181.16
  Q 663.38 196.42 644.96 197.88
  C 622.33 199.66 606.43 182.69 603.17 161.17
  Q 602.90 159.39 604.62 158.81"
/>
<path stroke="#808080" vector-effect="non-scaling-stroke" d="
  M 236.72 107.17
  A 2.43 2.43 0.0 0 0 234.29 104.74
  L 214.03 104.74
  A 2.43 2.43 0.0 0 0 211.60 107.17
  L 211.60 201.59
  A 2.43 2.43 0.0 0 0 214.03 204.02
  L 234.29 204.02
  A 2.43 2.43 0.0 0 0 236.72 201.59
  L 236.72 107.17"
/>
<path stroke="#808080" vector-effect="non-scaling-stroke" d="
  M 315.71 241.95
  Q 323.20 239.47 330.41 243.34
  A 5.79 5.69 62.1 0 0 332.40 243.97
  Q 333.84 244.15 333.73 243.61
  Q 333.41 242.07 332.15 241.23
  Q 325.88 237.09 317.88 238.61
  C 310.67 239.98 306.17 244.11 307.60 251.69
  Q 308.51 256.55 313.45 258.09
  Q 320.35 260.23 328.21 262.52
  C 335.07 264.53 335.23 273.78 328.43 275.88
  Q 318.46 278.97 310.01 273.11
  Q 309.07 272.46 307.94 272.36
  Q 305.47 272.12 307.80 275.09
  A 6.01 5.89 85.5 0 0 309.44 276.52
  Q 313.79 279.05 318.32 279.32
  C 321.80 279.53 325.86 279.51 329.24 278.67
  C 334.03 277.48 336.88 273.12 336.80 268.30
  Q 336.70 262.16 330.01 259.98
  Q 323.38 257.81 316.26 256.05
  C 308.60 254.14 308.79 244.25 315.71 241.95"
/>
<path stroke="#808080" vector-effect="non-scaling-stroke" d="
  M 358.57 261.74
  Q 358.40 252.94 358.47 242.18
  Q 358.49 240.20 357.06 238.76
  Q 356.35 238.04 355.64 240.40
  Q 355.30 241.54 355.29 242.73
  Q 355.20 257.76 355.26 276.18
  Q 355.27 277.92 356.64 278.77
  Q 356.89 278.92 357.14 278.74
  Q 358.44 277.77 358.46 276.18
  C 358.51 273.08 357.76 267.78 359.93 265.33
  Q 362.63 262.26 366.10 259.09
  Q 366.63 258.61 367.07 259.17
  Q 373.77 267.61 380.62 276.59
  C 381.60 277.87 382.89 278.72 384.32 279.39
  A 0.72 0.72 0.0 0 0 385.33 278.59
  Q 385.18 277.84 384.69 277.19
  Q 377.37 267.55 370.05 258.51
  A 2.88 2.86 -42.3 0 1 370.24 254.70
  Q 377.57 247.24 384.33 239.82
  Q 384.61 239.52 384.65 239.11
  Q 384.69 238.66 384.28 238.43
  Q 383.80 238.16 383.29 238.37
  Q 380.86 239.40 379.19 241.19
  Q 369.21 251.86 359.21 261.99
  A 0.38 0.37 -23.4 0 1 358.57 261.74"
/>
<path stroke="#808080" vector-effect="non-scaling-stroke" d="
  M 512.36 249.99
  C 516.19 241.22 530.14 237.54 536.51 245.44
  Q 537.73 246.95 539.33 247.64
  Q 540.46 248.13 540.60 246.90
  Q 540.66 246.42 540.55 245.94
  A 4.85 4.81 14.6 0 0 539.01 243.34
  C 529.46 234.98 516.12 237.29 509.85 248.05
  C 505.04 256.32 506.90 266.89 513.26 274.05
  Q 520.26 281.93 533.05 278.31
  Q 537.74 276.99 540.32 273.45
  Q 540.97 272.54 541.24 271.46
  Q 541.74 269.44 540.96 269.48
  Q 539.39 269.55 538.39 270.81
  C 532.25 278.62 520.63 278.90 514.54 270.92
  Q 507.34 261.47 512.36 249.99"
/>
<path stroke="#808080" vector-effect="non-scaling-stroke" d="
  M 630.48 263.71
  Q 637.80 260.53 639.09 253.78
  C 640.34 247.31 635.41 238.76 628.31 238.45
  Q 620.46 238.11 612.78 238.58
  A 2.39 2.39 0.0 0 0 610.53 240.94
  Q 610.32 259.62 610.52 276.74
  Q 610.53 277.84 611.57 278.71
  Q 611.82 278.92 612.09 278.77
  Q 613.57 277.94 613.61 276.07
  Q 613.70 270.96 613.45 266.16
  A 2.04 2.03 88.5 0 1 615.48 264.02
  L 624.23 264.01
  A 4.52 4.51 -15.7 0 1 628.08 266.16
  L 635.44 278.17
  A 2.32 2.32 0.0 0 0 637.85 279.23
  L 638.18 279.16
  Q 639.54 278.89 638.81 277.72
  L 630.32 264.23
  A 0.36 0.36 0.0 0 1 630.48 263.71"
/>
<path stroke="#808080" vector-effect="non-scaling-stroke" d="
  M 431.66 245.32
  Q 432.01 245.35 432.25 245.65
  Q 444.86 261.39 457.27 276.98
  Q 458.49 278.51 460.42 278.97
  Q 460.96 279.11 461.15 278.59
  Q 462.01 276.34 462.00 273.84
  Q 461.93 258.11 461.98 242.01
  Q 461.98 240.18 460.85 238.77
  Q 460.51 238.34 460.15 238.75
  Q 458.78 240.27 458.80 242.28
  Q 458.96 255.84 458.84 272.24
  A 0.59 0.59 0.0 0 1 457.86 272.68
  Q 456.78 271.74 455.90 270.64
  Q 443.96 255.59 431.96 240.47
  C 431.53 239.93 430.82 239.40 430.26 239.00
  A 1.31 1.30 18.0 0 0 428.19 240.05
  L 428.08 277.66
  Q 428.08 278.78 429.15 279.12
  Q 429.61 279.26 430.30 278.99
  A 1.61 1.61 0.0 0 0 431.31 277.48
  L 431.08 245.86
  A 0.53 0.53 0.0 0 1 431.66 245.32"
/>
<path stroke="#808080" vector-effect="non-scaling-stroke" d="
  M 662.82 241.78
  A 3.06 3.04 -61.9 0 1 664.64 241.22
  Q 674.47 241.38 683.19 241.20
  Q 684.49 241.17 685.25 240.00
  Q 685.72 239.27 683.07 238.70
  Q 682.07 238.48 681.05 238.48
  L 660.80 238.46
  A 1.74 1.74 0.0 0 0 659.05 240.20
  L 659.06 277.05
  A 2.25 2.25 0.0 0 0 661.31 279.30
  L 683.08 279.25
  Q 684.18 279.25 685.22 278.88
  Q 688.23 277.82 684.48 276.80
  Q 683.43 276.52 682.35 276.52
  L 664.19 276.51
  A 2.09 2.08 89.7 0 1 662.11 274.44
  L 662.02 262.19
  A 2.22 2.22 0.0 0 1 664.28 259.95
  Q 671.19 260.09 678.51 259.89
  Q 680.52 259.83 682.23 258.80
  Q 682.65 258.54 682.24 258.28
  Q 680.72 257.30 678.94 257.24
  Q 671.71 257.03 664.71 257.26
  Q 662.01 257.34 662.07 254.64
  Q 662.18 249.36 661.97 243.54
  C 661.94 242.86 662.26 242.17 662.82 241.78"
/>
<path stroke="#808080" vector-effect="non-scaling-stroke" d="
  M 403.26 240.93
  Q 403.02 241.77 403.02 242.64
  Q 402.97 259.59 403.02 275.69
  Q 403.03 277.40 404.20 278.76
  Q 404.49 279.11 404.80 278.77
  Q 406.21 277.27 406.21 275.21
  Q 406.26 259.18 406.21 242.29
  Q 406.20 240.44 405.04 239.00
  Q 404.66 238.53 404.28 239.00
  Q 403.57 239.89 403.26 240.93"
/>
<path stroke="#808080" vector-effect="non-scaling-stroke" d="
  M 583.25 266.66
  C 585.83 268.48 587.31 273.82 588.58 276.60
  Q 589.29 278.14 591.00 279.08
  Q 591.46 279.33 592.01 278.97
  A 0.77 0.77 0.0 0 0 592.31 278.04
  Q 584.92 259.85 576.57 240.89
  Q 576.10 239.81 574.68 238.90
  Q 574.26 238.62 573.88 238.95
  Q 572.24 240.37 571.53 242.00
  Q 565.46 255.89 557.29 275.51
  Q 556.71 276.89 556.61 277.35
  Q 555.92 280.61 558.62 278.72
  C 560.85 277.17 562.97 270.53 563.96 267.97
  A 3.03 3.03 0.0 0 1 566.80 266.03
  L 581.45 266.08
  A 3.18 3.18 0.0 0 1 583.25 266.66"
/>
<path stroke="#808080" vector-effect="non-scaling-stroke" d="
  M 235.28 65.83
  C 232.74 62.10 230.27 60.13 225.57 61.14
  A 1.96 1.96 0.0 0 0 224.02 63.06
  L 224.01 78.30
  A 0.53 0.53 0.0 0 0 224.70 78.80
  Q 225.14 78.66 225.45 78.30
  Q 230.30 72.56 235.23 66.73
  Q 235.60 66.30 235.28 65.83"
/>
<path stroke="#808080" vector-effect="non-scaling-stroke" d="
  M 455.38 146.13
  L 506.22 145.95
  A 0.13 0.13 0.0 0 0 506.35 145.82
  L 506.35 145.74
  A 25.35 24.47 -0.2 0 0 480.92 121.36
  L 480.52 121.36
  A 25.35 24.47 -0.2 0 0 455.25 145.92
  L 455.25 146.00
  A 0.13 0.13 0.0 0 0 455.38 146.13"
/>
<path stroke="#808080" vector-effect="non-scaling-stroke" d="
  M 635.47 111.74
  C 616.97 114.14 603.40 131.90 602.93 150.12
  Q 602.91 150.97 603.76 150.98
  Q 640.27 151.02 677.41 150.96
  Q 679.12 150.96 680.02 149.49
  Q 680.29 149.06 680.24 148.56
  Q 679.71 143.64 678.17 139.16
  Q 670.29 116.18 647.49 112.10
  Q 641.29 110.99 635.47 111.74"
/>
<path stroke="#808080" vector-effect="non-scaling-stroke" d="
  M 627.90 261.24
  C 639.59 260.70 639.01 241.26 626.65 241.04
  Q 621.45 240.95 615.60 241.14
  A 2.44 2.43 89.1 0 0 613.25 243.57
  L 613.23 260.54
  Q 613.23 261.21 613.90 261.24
  Q 620.27 261.59 627.90 261.24"
/>
<path stroke="#808080" vector-effect="non-scaling-stroke" d="
  M 565.79 262.48
  A 0.78 0.78 0.0 0 0 566.51 263.56
  L 582.33 263.53
  A 0.78 0.78 0.0 0 0 583.05 262.45
  L 575.11 243.31
  A 0.78 0.78 0.0 0 0 573.67 243.31
  L 565.79 262.48"
/>
</g>
<path fill="#ffffff" d="
  M 0.00 0.00
  L 1000.00 0.00
  L 1000.00 333.00
  L 0.00 333.00
  L 0.00 0.00
  Z
  M 221.15 54.09
  C 216.92 54.01 212.29 55.53 209.64 58.98
  Q 207.79 61.39 205.48 63.42
  C 204.25 64.51 204.05 66.10 205.11 67.37
  Q 214.45 78.58 223.21 89.33
  Q 224.19 90.52 225.16 89.33
  L 242.97 67.62
  A 3.15 3.14 42.0 0 0 242.75 63.38
  L 234.43 55.14
  A 1.96 1.95 -20.9 0 0 233.15 54.57
  Q 226.85 54.20 221.15 54.09
  Z
  M 551.83 186.45
  C 551.85 196.87 557.76 204.63 568.59 204.92
  Q 575.40 205.10 583.14 202.82
  Q 585.41 202.15 585.03 199.82
  Q 584.74 197.96 584.11 196.10
  Q 583.66 194.77 582.30 195.10
  Q 577.43 196.24 572.97 196.14
  C 563.86 195.94 561.66 190.24 561.68 182.40
  Q 561.81 126.65 561.72 68.21
  Q 561.72 66.08 559.60 65.90
  Q 556.74 65.66 553.77 65.85
  Q 551.90 65.97 551.89 67.84
  Q 551.71 125.52 551.83 186.45
  Z
  M 170.38 125.36
  Q 171.10 124.57 172.09 124.56
  Q 179.92 124.49 188.26 124.63
  A 2.68 2.68 0.0 0 0 190.99 121.96
  L 191.00 107.15
  A 2.56 2.55 -0.3 0 0 188.40 104.59
  L 172.04 104.85
  A 2.06 2.05 -0.4 0 1 169.94 102.79
  L 170.04 74.97
  A 2.31 2.31 0.0 0 0 167.72 72.66
  L 147.05 72.74
  A 2.20 2.19 89.7 0 0 144.87 74.95
  L 144.98 102.03
  Q 144.99 104.80 142.22 104.79
  L 132.46 104.74
  Q 131.80 104.74 131.80 105.39
  Q 131.73 112.85 131.87 119.93
  C 131.91 122.43 131.79 124.37 134.98 124.57
  Q 138.72 124.79 142.67 124.47
  A 1.94 1.94 0.0 0 1 144.76 126.25
  Q 144.95 128.90 144.96 131.55
  Q 145.03 152.68 144.91 176.57
  Q 144.86 187.18 146.33 191.14
  Q 150.70 202.87 165.05 205.15
  C 175.47 206.80 186.48 203.85 196.02 199.56
  Q 198.12 198.62 197.61 196.42
  Q 195.67 188.01 193.63 179.73
  Q 193.44 178.97 192.69 179.21
  Q 187.51 180.88 182.02 181.91
  Q 173.55 183.51 170.95 177.72
  Q 169.83 175.23 169.88 168.36
  Q 170.01 148.34 169.93 126.52
  A 1.72 1.70 66.5 0 1 170.38 125.36
  Z
  M 283.03 121.39
  A 0.64 0.64 0.0 0 1 282.50 120.76
  L 282.50 107.03
  Q 282.50 104.82 280.28 104.81
  L 262.03 104.75
  A 2.22 2.22 0.0 0 0 259.80 106.97
  L 259.71 200.73
  Q 259.71 204.23 263.21 204.14
  Q 272.12 203.90 281.70 204.12
  Q 284.69 204.18 284.76 201.27
  Q 285.32 178.82 284.62 152.58
  Q 284.49 147.77 285.73 144.27
  C 288.78 135.64 296.29 127.45 305.08 125.77
  C 314.16 124.02 320.69 129.21 322.46 137.97
  Q 323.66 143.87 323.70 149.36
  Q 323.86 173.30 323.63 200.52
  Q 323.59 204.07 327.14 204.06
  L 346.35 204.02
  A 2.57 2.57 0.0 0 0 348.91 201.48
  Q 349.28 175.24 348.73 152.69
  Q 348.62 148.01 349.83 144.45
  C 352.93 135.39 360.94 126.63 370.74 125.53
  C 380.25 124.46 385.78 131.26 386.89 139.94
  Q 387.70 146.38 387.72 154.45
  Q 387.78 177.11 387.64 200.36
  Q 387.62 204.29 391.66 204.17
  Q 401.40 203.89 410.06 204.10
  A 2.94 2.93 -89.2 0 0 413.07 201.16
  Q 413.07 172.91 412.84 145.25
  Q 412.74 133.02 411.43 126.16
  Q 407.47 105.34 386.37 103.27
  Q 370.56 101.73 357.46 111.85
  C 353.79 114.69 350.61 119.05 347.57 122.76
  A 0.34 0.34 0.0 0 1 347.00 122.67
  C 344.13 115.64 340.46 109.12 333.35 106.04
  C 316.05 98.56 293.92 105.20 283.66 121.12
  Q 283.43 121.47 283.03 121.39
  Z
  M 456.38 162.93
  Q 457.22 162.64 458.50 162.64
  Q 493.02 162.70 526.50 162.60
  C 529.05 162.59 532.20 162.24 532.39 159.18
  C 533.41 142.39 528.50 125.76 515.00 115.02
  C 495.58 99.55 468.19 98.74 448.15 113.91
  C 436.90 122.41 430.91 135.01 429.29 149.13
  C 426.75 171.13 438.28 192.39 458.65 201.37
  Q 473.90 208.09 491.90 204.84
  Q 515.38 200.60 526.31 180.98
  A 0.94 0.93 22.7 0 0 525.75 179.63
  Q 515.69 176.64 507.76 174.62
  Q 505.96 174.16 504.55 175.56
  C 502.44 177.65 500.63 180.48 498.20 182.10
  C 480.96 193.60 458.87 185.10 455.74 163.98
  Q 455.62 163.19 456.38 162.93
  Z
  M 705.91 130.61
  C 704.44 143.61 711.88 150.13 723.74 153.47
  Q 738.23 157.56 753.51 161.93
  C 761.83 164.32 768.79 167.14 769.48 177.07
  C 769.96 184.00 766.69 189.65 760.45 193.25
  Q 755.33 196.22 750.47 197.07
  Q 725.25 201.52 707.33 185.59
  Q 706.05 184.45 705.00 185.81
  L 702.45 189.10
  Q 701.42 190.44 702.57 191.67
  C 708.47 197.99 718.74 202.43 726.73 204.14
  Q 741.50 207.29 754.21 204.29
  C 765.05 201.72 775.81 194.65 778.20 183.41
  C 781.21 169.29 772.61 159.28 759.73 155.24
  Q 747.42 151.37 728.49 146.22
  Q 723.83 144.95 720.68 142.89
  C 712.54 137.58 713.26 126.64 718.76 119.73
  C 724.97 111.93 735.80 111.16 745.51 111.77
  Q 759.40 112.65 768.15 120.44
  Q 770.78 122.77 773.53 120.59
  Q 773.97 120.25 774.27 119.80
  Q 775.80 117.48 773.88 115.46
  Q 771.23 112.67 766.29 109.96
  Q 749.21 100.61 729.64 105.26
  C 715.55 108.60 707.60 115.63 705.91 130.61
  Z
  M 850.49 164.32
  C 859.88 168.03 863.05 177.66 858.04 186.33
  Q 853.80 193.66 845.71 196.07
  Q 835.05 199.24 822.23 197.35
  Q 809.38 195.46 799.25 186.43
  Q 796.34 183.84 793.89 186.87
  Q 793.00 187.97 792.85 189.63
  A 3.53 3.51 -67.4 0 0 794.07 192.60
  Q 803.43 200.60 815.54 203.65
  C 829.37 207.13 844.96 206.66 857.27 199.20
  C 870.36 191.27 874.82 168.84 860.27 159.67
  Q 855.20 156.48 850.17 155.04
  Q 834.10 150.47 816.94 145.77
  Q 805.08 142.53 805.33 130.97
  C 805.56 120.62 813.76 113.67 823.64 112.16
  Q 834.73 110.47 845.73 113.39
  C 851.03 114.80 855.68 117.57 859.97 120.96
  C 862.24 122.75 864.58 119.69 865.86 118.22
  Q 866.28 117.73 865.89 117.21
  Q 863.91 114.63 861.24 112.79
  Q 843.24 100.46 822.00 104.92
  C 806.30 108.21 796.54 116.63 796.62 133.60
  C 796.68 144.76 802.53 149.41 812.62 152.53
  Q 826.60 156.85 841.57 161.25
  Q 845.98 162.55 850.49 164.32
  Z
  M 604.62 158.81
  Q 605.54 158.50 606.53 158.50
  Q 646.15 158.66 685.91 158.75
  C 688.23 158.76 689.42 157.18 689.33 154.89
  Q 688.44 132.81 675.38 118.86
  Q 660.29 102.73 637.03 104.09
  C 617.62 105.23 601.07 120.17 595.69 138.65
  Q 590.02 158.10 597.97 176.41
  C 606.91 197.00 627.89 208.86 650.11 204.96
  C 662.76 202.74 675.19 195.61 681.12 183.82
  Q 682.08 181.91 680.07 181.22
  L 676.41 179.96
  Q 674.22 179.20 672.98 181.16
  Q 663.38 196.42 644.96 197.88
  C 622.33 199.66 606.43 182.69 603.17 161.17
  Q 602.90 159.39 604.62 158.81
  Z
  M 236.72 107.17
  A 2.43 2.43 0.0 0 0 234.29 104.74
  L 214.03 104.74
  A 2.43 2.43 0.0 0 0 211.60 107.17
  L 211.60 201.59
  A 2.43 2.43 0.0 0 0 214.03 204.02
  L 234.29 204.02
  A 2.43 2.43 0.0 0 0 236.72 201.59
  L 236.72 107.17
  Z
  M 315.71 241.95
  Q 323.20 239.47 330.41 243.34
  A 5.79 5.69 62.1 0 0 332.40 243.97
  Q 333.84 244.15 333.73 243.61
  Q 333.41 242.07 332.15 241.23
  Q 325.88 237.09 317.88 238.61
  C 310.67 239.98 306.17 244.11 307.60 251.69
  Q 308.51 256.55 313.45 258.09
  Q 320.35 260.23 328.21 262.52
  C 335.07 264.53 335.23 273.78 328.43 275.88
  Q 318.46 278.97 310.01 273.11
  Q 309.07 272.46 307.94 272.36
  Q 305.47 272.12 307.80 275.09
  A 6.01 5.89 85.5 0 0 309.44 276.52
  Q 313.79 279.05 318.32 279.32
  C 321.80 279.53 325.86 279.51 329.24 278.67
  C 334.03 277.48 336.88 273.12 336.80 268.30
  Q 336.70 262.16 330.01 259.98
  Q 323.38 257.81 316.26 256.05
  C 308.60 254.14 308.79 244.25 315.71 241.95
  Z
  M 358.57 261.74
  Q 358.40 252.94 358.47 242.18
  Q 358.49 240.20 357.06 238.76
  Q 356.35 238.04 355.64 240.40
  Q 355.30 241.54 355.29 242.73
  Q 355.20 257.76 355.26 276.18
  Q 355.27 277.92 356.64 278.77
  Q 356.89 278.92 357.14 278.74
  Q 358.44 277.77 358.46 276.18
  C 358.51 273.08 357.76 267.78 359.93 265.33
  Q 362.63 262.26 366.10 259.09
  Q 366.63 258.61 367.07 259.17
  Q 373.77 267.61 380.62 276.59
  C 381.60 277.87 382.89 278.72 384.32 279.39
  A 0.72 0.72 0.0 0 0 385.33 278.59
  Q 385.18 277.84 384.69 277.19
  Q 377.37 267.55 370.05 258.51
  A 2.88 2.86 -42.3 0 1 370.24 254.70
  Q 377.57 247.24 384.33 239.82
  Q 384.61 239.52 384.65 239.11
  Q 384.69 238.66 384.28 238.43
  Q 383.80 238.16 383.29 238.37
  Q 380.86 239.40 379.19 241.19
  Q 369.21 251.86 359.21 261.99
  A 0.38 0.37 -23.4 0 1 358.57 261.74
  Z
  M 512.36 249.99
  C 516.19 241.22 530.14 237.54 536.51 245.44
  Q 537.73 246.95 539.33 247.64
  Q 540.46 248.13 540.60 246.90
  Q 540.66 246.42 540.55 245.94
  A 4.85 4.81 14.6 0 0 539.01 243.34
  C 529.46 234.98 516.12 237.29 509.85 248.05
  C 505.04 256.32 506.90 266.89 513.26 274.05
  Q 520.26 281.93 533.05 278.31
  Q 537.74 276.99 540.32 273.45
  Q 540.97 272.54 541.24 271.46
  Q 541.74 269.44 540.96 269.48
  Q 539.39 269.55 538.39 270.81
  C 532.25 278.62 520.63 278.90 514.54 270.92
  Q 507.34 261.47 512.36 249.99
  Z
  M 630.48 263.71
  Q 637.80 260.53 639.09 253.78
  C 640.34 247.31 635.41 238.76 628.31 238.45
  Q 620.46 238.11 612.78 238.58
  A 2.39 2.39 0.0 0 0 610.53 240.94
  Q 610.32 259.62 610.52 276.74
  Q 610.53 277.84 611.57 278.71
  Q 611.82 278.92 612.09 278.77
  Q 613.57 277.94 613.61 276.07
  Q 613.70 270.96 613.45 266.16
  A 2.04 2.03 88.5 0 1 615.48 264.02
  L 624.23 264.01
  A 4.52 4.51 -15.7 0 1 628.08 266.16
  L 635.44 278.17
  A 2.32 2.32 0.0 0 0 637.85 279.23
  L 638.18 279.16
  Q 639.54 278.89 638.81 277.72
  L 630.32 264.23
  A 0.36 0.36 0.0 0 1 630.48 263.71
  Z
  M 431.66 245.32
  Q 432.01 245.35 432.25 245.65
  Q 444.86 261.39 457.27 276.98
  Q 458.49 278.51 460.42 278.97
  Q 460.96 279.11 461.15 278.59
  Q 462.01 276.34 462.00 273.84
  Q 461.93 258.11 461.98 242.01
  Q 461.98 240.18 460.85 238.77
  Q 460.51 238.34 460.15 238.75
  Q 458.78 240.27 458.80 242.28
  Q 458.96 255.84 458.84 272.24
  A 0.59 0.59 0.0 0 1 457.86 272.68
  Q 456.78 271.74 455.90 270.64
  Q 443.96 255.59 431.96 240.47
  C 431.53 239.93 430.82 239.40 430.26 239.00
  A 1.31 1.30 18.0 0 0 428.19 240.05
  L 428.08 277.66
  Q 428.08 278.78 429.15 279.12
  Q 429.61 279.26 430.30 278.99
  A 1.61 1.61 0.0 0 0 431.31 277.48
  L 431.08 245.86
  A 0.53 0.53 0.0 0 1 431.66 245.32
  Z
  M 662.82 241.78
  A 3.06 3.04 -61.9 0 1 664.64 241.22
  Q 674.47 241.38 683.19 241.20
  Q 684.49 241.17 685.25 240.00
  Q 685.72 239.27 683.07 238.70
  Q 682.07 238.48 681.05 238.48
  L 660.80 238.46
  A 1.74 1.74 0.0 0 0 659.05 240.20
  L 659.06 277.05
  A 2.25 2.25 0.0 0 0 661.31 279.30
  L 683.08 279.25
  Q 684.18 279.25 685.22 278.88
  Q 688.23 277.82 684.48 276.80
  Q 683.43 276.52 682.35 276.52
  L 664.19 276.51
  A 2.09 2.08 89.7 0 1 662.11 274.44
  L 662.02 262.19
  A 2.22 2.22 0.0 0 1 664.28 259.95
  Q 671.19 260.09 678.51 259.89
  Q 680.52 259.83 682.23 258.80
  Q 682.65 258.54 682.24 258.28
  Q 680.72 257.30 678.94 257.24
  Q 671.71 257.03 664.71 257.26
  Q 662.01 257.34 662.07 254.64
  Q 662.18 249.36 661.97 243.54
  C 661.94 242.86 662.26 242.17 662.82 241.78
  Z
  M 403.26 240.93
  Q 403.02 241.77 403.02 242.64
  Q 402.97 259.59 403.02 275.69
  Q 403.03 277.40 404.20 278.76
  Q 404.49 279.11 404.80 278.77
  Q 406.21 277.27 406.21 275.21
  Q 406.26 259.18 406.21 242.29
  Q 406.20 240.44 405.04 239.00
  Q 404.66 238.53 404.28 239.00
  Q 403.57 239.89 403.26 240.93
  Z
  M 583.25 266.66
  C 585.83 268.48 587.31 273.82 588.58 276.60
  Q 589.29 278.14 591.00 279.08
  Q 591.46 279.33 592.01 278.97
  A 0.77 0.77 0.0 0 0 592.31 278.04
  Q 584.92 259.85 576.57 240.89
  Q 576.10 239.81 574.68 238.90
  Q 574.26 238.62 573.88 238.95
  Q 572.24 240.37 571.53 242.00
  Q 565.46 255.89 557.29 275.51
  Q 556.71 276.89 556.61 277.35
  Q 555.92 280.61 558.62 278.72
  C 560.85 277.17 562.97 270.53 563.96 267.97
  A 3.03 3.03 0.0 0 1 566.80 266.03
  L 581.45 266.08
  A 3.18 3.18 0.0 0 1 583.25 266.66
  Z"
/>
<path fill="#000000" d="
  M 209.64 58.98
  C 212.29 55.53 216.92 54.01 221.15 54.09
  Q 226.85 54.20 233.15 54.57
  A 1.96 1.95 -20.9 0 1 234.43 55.14
  L 242.75 63.38
  A 3.15 3.14 42.0 0 1 242.97 67.62
  L 225.16 89.33
  Q 224.19 90.52 223.21 89.33
  Q 214.45 78.58 205.11 67.37
  C 204.05 66.10 204.25 64.51 205.48 63.42
  Q 207.79 61.39 209.64 58.98
  Z
  M 235.28 65.83
  C 232.74 62.10 230.27 60.13 225.57 61.14
  A 1.96 1.96 0.0 0 0 224.02 63.06
  L 224.01 78.30
  A 0.53 0.53 0.0 0 0 224.70 78.80
  Q 225.14 78.66 225.45 78.30
  Q 230.30 72.56 235.23 66.73
  Q 235.60 66.30 235.28 65.83
  Z"
/>
<path fill="#ffffff" d="
  M 225.57 61.14
  C 230.27 60.13 232.74 62.10 235.28 65.83
  Q 235.60 66.30 235.23 66.73
  Q 230.30 72.56 225.45 78.30
  Q 225.14 78.66 224.70 78.80
  A 0.53 0.53 0.0 0 1 224.01 78.30
  L 224.02 63.06
  A 1.96 1.96 0.0 0 1 225.57 61.14
  Z"
/>
<path fill="#000000" d="
  M 568.59 204.92
  C 557.76 204.63 551.85 196.87 551.83 186.45
  Q 551.71 125.52 551.89 67.84
  Q 551.90 65.97 553.77 65.85
  Q 556.74 65.66 559.60 65.90
  Q 561.72 66.08 561.72 68.21
  Q 561.81 126.65 561.68 182.40
  C 561.66 190.24 563.86 195.94 572.97 196.14
  Q 577.43 196.24 582.30 195.10
  Q 583.66 194.77 584.11 196.10
  Q 584.74 197.96 585.03 199.82
  Q 585.41 202.15 583.14 202.82
  Q 575.40 205.10 568.59 204.92
  Z"
/>
<path fill="#000000" d="
  M 170.38 125.36
  A 1.72 1.70 66.5 0 0 169.93 126.52
  Q 170.01 148.34 169.88 168.36
  Q 169.83 175.23 170.95 177.72
  Q 173.55 183.51 182.02 181.91
  Q 187.51 180.88 192.69 179.21
  Q 193.44 178.97 193.63 179.73
  Q 195.67 188.01 197.61 196.42
  Q 198.12 198.62 196.02 199.56
  C 186.48 203.85 175.47 206.80 165.05 205.15
  Q 150.70 202.87 146.33 191.14
  Q 144.86 187.18 144.91 176.57
  Q 145.03 152.68 144.96 131.55
  Q 144.95 128.90 144.76 126.25
  A 1.94 1.94 0.0 0 0 142.67 124.47
  Q 138.72 124.79 134.98 124.57
  C 131.79 124.37 131.91 122.43 131.87 119.93
  Q 131.73 112.85 131.80 105.39
  Q 131.80 104.74 132.46 104.74
  L 142.22 104.79
  Q 144.99 104.80 144.98 102.03
  L 144.87 74.95
  A 2.20 2.19 89.7 0 1 147.05 72.74
  L 167.72 72.66
  A 2.31 2.31 0.0 0 1 170.04 74.97
  L 169.94 102.79
  A 2.06 2.05 -0.4 0 0 172.04 104.85
  L 188.40 104.59
  A 2.56 2.55 -0.3 0 1 191.00 107.15
  L 190.99 121.96
  A 2.68 2.68 0.0 0 1 188.26 124.63
  Q 179.92 124.49 172.09 124.56
  Q 171.10 124.57 170.38 125.36
  Z"
/>
<path fill="#000000" d="
  M 283.03 121.39
  Q 283.43 121.47 283.66 121.12
  C 293.92 105.20 316.05 98.56 333.35 106.04
  C 340.46 109.12 344.13 115.64 347.00 122.67
  A 0.34 0.34 0.0 0 0 347.57 122.76
  C 350.61 119.05 353.79 114.69 357.46 111.85
  Q 370.56 101.73 386.37 103.27
  Q 407.47 105.34 411.43 126.16
  Q 412.74 133.02 412.84 145.25
  Q 413.07 172.91 413.07 201.16
  A 2.94 2.93 -89.2 0 1 410.06 204.10
  Q 401.40 203.89 391.66 204.17
  Q 387.62 204.29 387.64 200.36
  Q 387.78 177.11 387.72 154.45
  Q 387.70 146.38 386.89 139.94
  C 385.78 131.26 380.25 124.46 370.74 125.53
  C 360.94 126.63 352.93 135.39 349.83 144.45
  Q 348.62 148.01 348.73 152.69
  Q 349.28 175.24 348.91 201.48
  A 2.57 2.57 0.0 0 1 346.35 204.02
  L 327.14 204.06
  Q 323.59 204.07 323.63 200.52
  Q 323.86 173.30 323.70 149.36
  Q 323.66 143.87 322.46 137.97
  C 320.69 129.21 314.16 124.02 305.08 125.77
  C 296.29 127.45 288.78 135.64 285.73 144.27
  Q 284.49 147.77 284.62 152.58
  Q 285.32 178.82 284.76 201.27
  Q 284.69 204.18 281.70 204.12
  Q 272.12 203.90 263.21 204.14
  Q 259.71 204.23 259.71 200.73
  L 259.80 106.97
  A 2.22 2.22 0.0 0 1 262.03 104.75
  L 280.28 104.81
  Q 282.50 104.82 282.50 107.03
  L 282.50 120.76
  A 0.64 0.64 0.0 0 0 283.03 121.39
  Z"
/>
<path fill="#000000" d="
  M 456.38 162.93
  Q 455.62 163.19 455.74 163.98
  C 458.87 185.10 480.96 193.60 498.20 182.10
  C 500.63 180.48 502.44 177.65 504.55 175.56
  Q 505.96 174.16 507.76 174.62
  Q 515.69 176.64 525.75 179.63
  A 0.94 0.93 22.7 0 1 526.31 180.98
  Q 515.38 200.60 491.90 204.84
  Q 473.90 208.09 458.65 201.37
  C 438.28 192.39 426.75 171.13 429.29 149.13
  C 430.91 135.01 436.90 122.41 448.15 113.91
  C 468.19 98.74 495.58 99.55 515.00 115.02
  C 528.50 125.76 533.41 142.39 532.39 159.18
  C 532.20 162.24 529.05 162.59 526.50 162.60
  Q 493.02 162.70 458.50 162.64
  Q 457.22 162.64 456.38 162.93
  Z
  M 455.38 146.13
  L 506.22 145.95
  A 0.13 0.13 0.0 0 0 506.35 145.82
  L 506.35 145.74
  A 25.35 24.47 -0.2 0 0 480.92 121.36
  L 480.52 121.36
  A 25.35 24.47 -0.2 0 0 455.25 145.92
  L 455.25 146.00
  A 0.13 0.13 0.0 0 0 455.38 146.13
  Z"
/>
<path fill="#000000" d="
  M 723.74 153.47
  C 711.88 150.13 704.44 143.61 705.91 130.61
  C 707.60 115.63 715.55 108.60 729.64 105.26
  Q 749.21 100.61 766.29 109.96
  Q 771.23 112.67 773.88 115.46
  Q 775.80 117.48 774.27 119.80
  Q 773.97 120.25 773.53 120.59
  Q 770.78 122.77 768.15 120.44
  Q 759.40 112.65 745.51 111.77
  C 735.80 111.16 724.97 111.93 718.76 119.73
  C 713.26 126.64 712.54 137.58 720.68 142.89
  Q 723.83 144.95 728.49 146.22
  Q 747.42 151.37 759.73 155.24
  C 772.61 159.28 781.21 169.29 778.20 183.41
  C 775.81 194.65 765.05 201.72 754.21 204.29
  Q 741.50 207.29 726.73 204.14
  C 718.74 202.43 708.47 197.99 702.57 191.67
  Q 701.42 190.44 702.45 189.10
  L 705.00 185.81
  Q 706.05 184.45 707.33 185.59
  Q 725.25 201.52 750.47 197.07
  Q 755.33 196.22 760.45 193.25
  C 766.69 189.65 769.96 184.00 769.48 177.07
  C 768.79 167.14 761.83 164.32 753.51 161.93
  Q 738.23 157.56 723.74 153.47
  Z"
/>
<path fill="#000000" d="
  M 850.49 164.32
  Q 845.98 162.55 841.57 161.25
  Q 826.60 156.85 812.62 152.53
  C 802.53 149.41 796.68 144.76 796.62 133.60
  C 796.54 116.63 806.30 108.21 822.00 104.92
  Q 843.24 100.46 861.24 112.79
  Q 863.91 114.63 865.89 117.21
  Q 866.28 117.73 865.86 118.22
  C 864.58 119.69 862.24 122.75 859.97 120.96
  C 855.68 117.57 851.03 114.80 845.73 113.39
  Q 834.73 110.47 823.64 112.16
  C 813.76 113.67 805.56 120.62 805.33 130.97
  Q 805.08 142.53 816.94 145.77
  Q 834.10 150.47 850.17 155.04
  Q 855.20 156.48 860.27 159.67
  C 874.82 168.84 870.36 191.27 857.27 199.20
  C 844.96 206.66 829.37 207.13 815.54 203.65
  Q 803.43 200.60 794.07 192.60
  A 3.53 3.51 -67.4 0 1 792.85 189.63
  Q 793.00 187.97 793.89 186.87
  Q 796.34 183.84 799.25 186.43
  Q 809.38 195.46 822.23 197.35
  Q 835.05 199.24 845.71 196.07
  Q 853.80 193.66 858.04 186.33
  C 863.05 177.66 859.88 168.03 850.49 164.32
  Z"
/>
<path fill="#000000" d="
  M 604.62 158.81
  Q 602.90 159.39 603.17 161.17
  C 606.43 182.69 622.33 199.66 644.96 197.88
  Q 663.38 196.42 672.98 181.16
  Q 674.22 179.20 676.41 179.96
  L 680.07 181.22
  Q 682.08 181.91 681.12 183.82
  C 675.19 195.61 662.76 202.74 650.11 204.96
  C 627.89 208.86 606.91 197.00 597.97 176.41
  Q 590.02 158.10 595.69 138.65
  C 601.07 120.17 617.62 105.23 637.03 104.09
  Q 660.29 102.73 675.38 118.86
  Q 688.44 132.81 689.33 154.89
  C 689.42 157.18 688.23 158.76 685.91 158.75
  Q 646.15 158.66 606.53 158.50
  Q 605.54 158.50 604.62 158.81
  Z
  M 635.47 111.74
  C 616.97 114.14 603.40 131.90 602.93 150.12
  Q 602.91 150.97 603.76 150.98
  Q 640.27 151.02 677.41 150.96
  Q 679.12 150.96 680.02 149.49
  Q 680.29 149.06 680.24 148.56
  Q 679.71 143.64 678.17 139.16
  Q 670.29 116.18 647.49 112.10
  Q 641.29 110.99 635.47 111.74
  Z"
/>
<rect fill="#000000" x="211.60" y="104.74" width="25.12" height="99.28" rx="2.43"/>
<path fill="#ffffff" d="
  M 602.93 150.12
  C 603.40 131.90 616.97 114.14 635.47 111.74
  Q 641.29 110.99 647.49 112.10
  Q 670.29 116.18 678.17 139.16
  Q 679.71 143.64 680.24 148.56
  Q 680.29 149.06 680.02 149.49
  Q 679.12 150.96 677.41 150.96
  Q 640.27 151.02 603.76 150.98
  Q 602.91 150.97 602.93 150.12
  Z"
/>
<path fill="#ffffff" d="
  M 455.38 146.13
  A 0.13 0.13 0.0 0 1 455.25 146.00
  L 455.25 145.92
  A 25.35 24.47 -0.2 0 1 480.52 121.36
  L 480.92 121.36
  A 25.35 24.47 -0.2 0 1 506.35 145.74
  L 506.35 145.82
  A 0.13 0.13 0.0 0 1 506.22 145.95
  L 455.38 146.13
  Z"
/>
<path fill="#000000" d="
  M 315.71 241.95
  C 308.79 244.25 308.60 254.14 316.26 256.05
  Q 323.38 257.81 330.01 259.98
  Q 336.70 262.16 336.80 268.30
  C 336.88 273.12 334.03 277.48 329.24 278.67
  C 325.86 279.51 321.80 279.53 318.32 279.32
  Q 313.79 279.05 309.44 276.52
  A 6.01 5.89 85.5 0 1 307.80 275.09
  Q 305.47 272.12 307.94 272.36
  Q 309.07 272.46 310.01 273.11
  Q 318.46 278.97 328.43 275.88
  C 335.23 273.78 335.07 264.53 328.21 262.52
  Q 320.35 260.23 313.45 258.09
  Q 308.51 256.55 307.60 251.69
  C 306.17 244.11 310.67 239.98 317.88 238.61
  Q 325.88 237.09 332.15 241.23
  Q 333.41 242.07 333.73 243.61
  Q 333.84 244.15 332.40 243.97
  A 5.79 5.69 62.1 0 1 330.41 243.34
  Q 323.20 239.47 315.71 241.95
  Z"
/>
<path fill="#000000" d="
  M 358.57 261.74
  A 0.38 0.37 -23.4 0 0 359.21 261.99
  Q 369.21 251.86 379.19 241.19
  Q 380.86 239.40 383.29 238.37
  Q 383.80 238.16 384.28 238.43
  Q 384.69 238.66 384.65 239.11
  Q 384.61 239.52 384.33 239.82
  Q 377.57 247.24 370.24 254.70
  A 2.88 2.86 -42.3 0 0 370.05 258.51
  Q 377.37 267.55 384.69 277.19
  Q 385.18 277.84 385.33 278.59
  A 0.72 0.72 0.0 0 1 384.32 279.39
  C 382.89 278.72 381.60 277.87 380.62 276.59
  Q 373.77 267.61 367.07 259.17
  Q 366.63 258.61 366.10 259.09
  Q 362.63 262.26 359.93 265.33
  C 357.76 267.78 358.51 273.08 358.46 276.18
  Q 358.44 277.77 357.14 278.74
  Q 356.89 278.92 356.64 278.77
  Q 355.27 277.92 355.26 276.18
  Q 355.20 257.76 355.29 242.73
  Q 355.30 241.54 355.64 240.40
  Q 356.35 238.04 357.06 238.76
  Q 358.49 240.20 358.47 242.18
  Q 358.40 252.94 358.57 261.74
  Z"
/>
<path fill="#000000" d="
  M 536.51 245.44
  C 530.14 237.54 516.19 241.22 512.36 249.99
  Q 507.34 261.47 514.54 270.92
  C 520.63 278.90 532.25 278.62 538.39 270.81
  Q 539.39 269.55 540.96 269.48
  Q 541.74 269.44 541.24 271.46
  Q 540.97 272.54 540.32 273.45
  Q 537.74 276.99 533.05 278.31
  Q 520.26 281.93 513.26 274.05
  C 506.90 266.89 505.04 256.32 509.85 248.05
  C 516.12 237.29 529.46 234.98 539.01 243.34
  A 4.85 4.81 14.6 0 1 540.55 245.94
  Q 540.66 246.42 540.60 246.90
  Q 540.46 248.13 539.33 247.64
  Q 537.73 246.95 536.51 245.44
  Z"
/>
<path fill="#000000" d="
  M 630.48 263.71
  A 0.36 0.36 0.0 0 0 630.32 264.23
  L 638.81 277.72
  Q 639.54 278.89 638.18 279.16
  L 637.85 279.23
  A 2.32 2.32 0.0 0 1 635.44 278.17
  L 628.08 266.16
  A 4.52 4.51 -15.7 0 0 624.23 264.01
  L 615.48 264.02
  A 2.04 2.03 88.5 0 0 613.45 266.16
  Q 613.70 270.96 613.61 276.07
  Q 613.57 277.94 612.09 278.77
  Q 611.82 278.92 611.57 278.71
  Q 610.53 277.84 610.52 276.74
  Q 610.32 259.62 610.53 240.94
  A 2.39 2.39 0.0 0 1 612.78 238.58
  Q 620.46 238.11 628.31 238.45
  C 635.41 238.76 640.34 247.31 639.09 253.78
  Q 637.80 260.53 630.48 263.71
  Z
  M 627.90 261.24
  C 639.59 260.70 639.01 241.26 626.65 241.04
  Q 621.45 240.95 615.60 241.14
  A 2.44 2.43 89.1 0 0 613.25 243.57
  L 613.23 260.54
  Q 613.23 261.21 613.90 261.24
  Q 620.27 261.59 627.90 261.24
  Z"
/>
<path fill="#000000" d="
  M 431.66 245.32
  A 0.53 0.53 0.0 0 0 431.08 245.86
  L 431.31 277.48
  A 1.61 1.61 0.0 0 1 430.30 278.99
  Q 429.61 279.26 429.15 279.12
  Q 428.08 278.78 428.08 277.66
  L 428.19 240.05
  A 1.31 1.30 18.0 0 1 430.26 239.00
  C 430.82 239.40 431.53 239.93 431.96 240.47
  Q 443.96 255.59 455.90 270.64
  Q 456.78 271.74 457.86 272.68
  A 0.59 0.59 0.0 0 0 458.84 272.24
  Q 458.96 255.84 458.80 242.28
  Q 458.78 240.27 460.15 238.75
  Q 460.51 238.34 460.85 238.77
  Q 461.98 240.18 461.98 242.01
  Q 461.93 258.11 462.00 273.84
  Q 462.01 276.34 461.15 278.59
  Q 460.96 279.11 460.42 278.97
  Q 458.49 278.51 457.27 276.98
  Q 444.86 261.39 432.25 245.65
  Q 432.01 245.35 431.66 245.32
  Z"
/>
<path fill="#000000" d="
  M 662.82 241.78
  C 662.26 242.17 661.94 242.86 661.97 243.54
  Q 662.18 249.36 662.07 254.64
  Q 662.01 257.34 664.71 257.26
  Q 671.71 257.03 678.94 257.24
  Q 680.72 257.30 682.24 258.28
  Q 682.65 258.54 682.23 258.80
  Q 680.52 259.83 678.51 259.89
  Q 671.19 260.09 664.28 259.95
  A 2.22 2.22 0.0 0 0 662.02 262.19
  L 662.11 274.44
  A 2.09 2.08 89.7 0 0 664.19 276.51
  L 682.35 276.52
  Q 683.43 276.52 684.48 276.80
  Q 688.23 277.82 685.22 278.88
  Q 684.18 279.25 683.08 279.25
  L 661.31 279.30
  A 2.25 2.25 0.0 0 1 659.06 277.05
  L 659.05 240.20
  A 1.74 1.74 0.0 0 1 660.80 238.46
  L 681.05 238.48
  Q 682.07 238.48 683.07 238.70
  Q 685.72 239.27 685.25 240.00
  Q 684.49 241.17 683.19 241.20
  Q 674.47 241.38 664.64 241.22
  A 3.06 3.04 -61.9 0 0 662.82 241.78
  Z"
/>
<path fill="#000000" d="
  M 403.26 240.93
  Q 403.57 239.89 404.28 239.00
  Q 404.66 238.53 405.04 239.00
  Q 406.20 240.44 406.21 242.29
  Q 406.26 259.18 406.21 275.21
  Q 406.21 277.27 404.80 278.77
  Q 404.49 279.11 404.20 278.76
  Q 403.03 277.40 403.02 275.69
  Q 402.97 259.59 403.02 242.64
  Q 403.02 241.77 403.26 240.93
  Z"
/>
<path fill="#000000" d="
  M 583.25 266.66
  A 3.18 3.18 0.0 0 0 581.45 266.08
  L 566.80 266.03
  A 3.03 3.03 0.0 0 0 563.96 267.97
  C 562.97 270.53 560.85 277.17 558.62 278.72
  Q 555.92 280.61 556.61 277.35
  Q 556.71 276.89 557.29 275.51
  Q 565.46 255.89 571.53 242.00
  Q 572.24 240.37 573.88 238.95
  Q 574.26 238.62 574.68 238.90
  Q 576.10 239.81 576.57 240.89
  Q 584.92 259.85 592.31 278.04
  A 0.77 0.77 0.0 0 1 592.01 278.97
  Q 591.46 279.33 591.00 279.08
  Q 589.29 278.14 588.58 276.60
  C 587.31 273.82 585.83 268.48 583.25 266.66
  Z
  M 565.79 262.48
  A 0.78 0.78 0.0 0 0 566.51 263.56
  L 582.33 263.53
  A 0.78 0.78 0.0 0 0 583.05 262.45
  L 575.11 243.31
  A 0.78 0.78 0.0 0 0 573.67 243.31
  L 565.79 262.48
  Z"
/>
<path fill="#ffffff" d="
  M 626.65 241.04
  C 639.01 241.26 639.59 260.70 627.90 261.24
  Q 620.27 261.59 613.90 261.24
  Q 613.23 261.21 613.23 260.54
  L 613.25 243.57
  A 2.44 2.43 89.1 0 1 615.60 241.14
  Q 621.45 240.95 626.65 241.04
  Z"
/>
<path fill="#ffffff" d="
  M 565.79 262.48
  L 573.67 243.31
  A 0.78 0.78 0.0 0 1 575.11 243.31
  L 583.05 262.45
  A 0.78 0.78 0.0 0 1 582.33 263.53
  L 566.51 263.56
  A 0.78 0.78 0.0 0 1 565.79 262.48
  Z"
/>
</svg>
