<?xml version="1.0" encoding="UTF-8" standalone="no"?>
<!DOCTYPE svg PUBLIC "-//W3C//DTD SVG 1.1//EN" "http://www.w3.org/Graphics/SVG/1.1/DTD/svg11.dtd">
<svg xmlns="http://www.w3.org/2000/svg" version="1.1" viewBox="0.00 0.00 1000.00 333.00">
<g stroke-width="2.00" fill="none" stroke-linecap="butt">
<path stroke="#808080" vector-effect="non-scaling-stroke" d="
  M 650.18 66.76
  A 0.62 0.62 0.0 0 1 649.56 66.14
  L 649.63 28.47
  Q 649.63 26.54 648.38 28.01
  Q 643.66 33.53 638.22 38.97
  Q 620.26 56.94 600.17 74.16
  Q 598.77 75.36 600.61 75.32
  Q 608.91 75.15 617.82 75.13
  Q 618.43 75.13 618.45 75.74
  Q 619.85 114.93 618.52 159.07
  Q 618.15 171.18 619.59 180.41
  C 623.01 202.45 638.21 215.04 660.51 214.56
  Q 683.94 214.05 700.91 197.73
  A 0.39 0.37 -35.8 0 0 700.99 197.28
  L 698.14 191.57
  Q 697.99 191.28 697.74 191.49
  Q 683.91 203.25 667.80 197.77
  C 654.09 193.12 649.66 178.66 649.61 165.42
  Q 649.42 118.72 649.50 76.22
  A 0.74 0.74 0.0 0 1 650.24 75.49
  L 691.09 75.51
  Q 691.69 75.51 691.69 74.91
  L 691.71 67.48
  Q 691.71 66.75 690.98 66.75
  L 650.18 66.76"
/>
<path stroke="#808080" vector-effect="non-scaling-stroke" d="
  M 195.71 79.92
  C 214.85 71.75 241.70 74.93 257.35 89.04
  Q 258.00 89.64 258.55 88.94
  L 262.04 84.49
  Q 262.59 83.78 261.94 83.17
  Q 240.00 62.53 209.75 60.37
  C 170.27 57.55 137.04 84.20 129.30 122.65
  C 125.11 143.47 130.24 166.90 142.41 184.15
  C 155.36 202.52 175.48 213.47 198.01 214.48
  Q 236.52 216.20 263.97 188.95
  A 0.29 0.28 48.8 0 0 263.99 188.56
  L 259.81 183.19
  Q 259.64 182.97 259.44 183.16
  Q 251.99 190.32 242.67 194.06
  C 218.59 203.71 191.85 199.13 175.92 177.94
  C 165.54 164.13 162.30 146.27 163.67 128.94
  C 165.38 107.41 175.57 88.52 195.71 79.92"
/>
<path stroke="#808080" vector-effect="non-scaling-stroke" d="
  M 476.16 89.08
  Q 477.31 78.94 477.01 67.05
  A 0.33 0.33 0.0 0 0 476.66 66.72
  Q 460.88 67.21 445.58 66.73
  Q 445.26 66.72 445.27 67.04
  Q 447.59 139.16 445.17 210.79
  A 0.57 0.56 -1.4 0 0 445.78 211.37
  Q 461.67 210.14 476.92 211.33
  A 0.46 0.46 0.0 0 0 477.42 210.86
  Q 476.12 158.42 476.52 105.36
  C 476.53 104.28 477.02 103.52 477.68 102.72
  Q 485.65 92.99 496.53 86.47
  C 508.51 79.28 523.64 76.73 534.28 87.08
  C 540.80 93.42 544.72 104.32 544.71 113.06
  Q 544.68 145.07 544.96 175.80
  C 545.07 187.60 544.89 198.94 544.49 210.67
  Q 544.46 211.37 545.17 211.33
  C 555.40 210.72 566.11 210.70 575.96 211.41
  A 0.48 0.48 0.0 0 0 576.47 210.91
  Q 574.86 162.58 575.87 113.00
  C 576.14 99.82 574.34 87.20 565.56 76.96
  C 547.73 56.17 518.74 57.94 497.64 72.13
  Q 486.37 79.71 477.21 89.57
  Q 475.95 90.92 476.16 89.08"
/>
<path stroke="#808080" vector-effect="non-scaling-stroke" d="
  M 374.52 198.51
  A 0.53 0.53 0.0 0 1 375.39 198.67
  C 381.47 212.96 394.72 214.07 408.30 212.03
  Q 408.96 211.93 409.36 211.38
  A 1.55 1.55 0.0 0 0 408.68 209.03
  C 402.67 206.61 402.42 196.07 402.44 190.72
  Q 402.53 159.36 403.26 127.74
  Q 403.49 117.80 403.53 107.76
  Q 403.59 87.76 403.70 67.83
  A 1.77 1.77 0.0 0 0 402.30 66.09
  C 380.34 61.45 358.37 59.96 336.99 64.85
  C 323.12 68.03 311.81 74.53 301.22 83.89
  Q 286.48 96.91 280.93 116.10
  C 274.82 137.22 275.70 161.67 284.66 181.61
  Q 294.38 203.26 318.85 209.81
  Q 325.93 211.71 338.12 212.45
  C 352.23 213.31 364.74 208.32 374.52 198.51"
/>
<path stroke="#808080" vector-effect="non-scaling-stroke" d="
  M 817.40 188.58
  A 0.43 0.43 0.0 0 1 818.00 189.05
  Q 817.48 191.93 817.50 194.59
  Q 817.57 202.70 817.31 210.85
  A 0.37 0.37 0.0 0 0 817.68 211.23
  L 848.78 211.23
  A 0.56 0.56 0.0 0 0 849.34 210.63
  Q 848.59 199.10 848.48 188.00
  Q 847.92 129.03 849.14 67.05
  A 0.33 0.33 0.0 0 0 848.79 66.71
  Q 833.40 67.83 818.35 66.76
  Q 817.76 66.72 817.76 67.31
  Q 818.12 119.89 818.04 171.35
  C 818.03 173.98 816.46 175.76 814.88 177.63
  C 805.41 188.84 790.89 197.39 776.17 195.46
  C 758.16 193.09 749.70 177.62 749.62 160.50
  Q 749.46 125.75 749.61 93.23
  Q 749.66 81.22 750.17 67.07
  A 0.30 0.30 0.0 0 0 749.85 66.75
  Q 734.64 67.65 718.81 66.71
  Q 718.34 66.69 718.35 67.16
  Q 719.52 110.98 718.69 157.81
  Q 718.49 169.05 720.99 180.58
  C 725.83 202.91 747.07 215.29 768.97 214.49
  C 787.85 213.81 804.40 204.07 816.42 189.33
  Q 816.83 188.83 817.40 188.58"
/>
<path stroke="#808080" vector-effect="non-scaling-stroke" d="
  M 862.6973 213.6699
  A 10.94 10.46 89.7 0 0 873.0999 202.6752
  A 10.94 10.46 89.7 0 0 862.5827 191.7901
  A 10.94 10.46 89.7 0 0 852.1801 202.7848
  A 10.94 10.46 89.7 0 0 862.6973 213.6699"
/>
<path stroke="#acacac" vector-effect="non-scaling-stroke" d="
  M 252.20 285.99
  L 418.12 285.99"
/>
<path stroke="#bdbdbd" vector-effect="non-scaling-stroke" d="
  M 418.12 285.99
  L 512.79 285.98"
/>
<path stroke="#acacac" vector-effect="non-scaling-stroke" d="
  M 512.79 285.98
  L 630.27 285.99"
/>
<path stroke="#cacaca" vector-effect="non-scaling-stroke" d="
  M 630.27 285.99
  L 676.84 286.02"
/>
<path stroke="#acacac" vector-effect="non-scaling-stroke" d="
  M 676.84 286.02
  L 724.36 286.00"
/>
<path stroke="#bdbdbd" vector-effect="non-scaling-stroke" d="
  M 724.36 286.00
  L 855.16 285.96
  A 0.67 0.67 0.0 0 0 855.83 285.29
  L 855.89 263.41
  A 1.63 1.63 0.0 0 0 854.26 261.78
  L 722.21 261.78"
/>
<path stroke="#acacac" vector-effect="non-scaling-stroke" d="
  M 722.21 261.78
  L 676.77 261.80"
/>
<path stroke="#cacaca" vector-effect="non-scaling-stroke" d="
  M 676.77 261.80
  L 629.73 261.91"
/>
<path stroke="#acacac" vector-effect="non-scaling-stroke" d="
  M 629.73 261.91
  L 511.96 261.84"
/>
<path stroke="#bdbdbd" vector-effect="non-scaling-stroke" d="
  M 511.96 261.84
  L 418.09 261.79"
/>
<path stroke="#acacac" vector-effect="non-scaling-stroke" d="
  M 418.09 261.79
  L 286.46 261.85"
/>
<path stroke="#cacaca" vector-effect="non-scaling-stroke" d="
  M 286.46 261.85
  L 133.78 261.94
  A 1.30 1.29 90.0 0 0 132.49 263.24
  L 132.46 285.32
  Q 132.46 285.96 133.10 285.96
  L 252.20 285.99"
/>
<path stroke="#777777" vector-effect="non-scaling-stroke" d="
  M 286.46 261.85
  L 252.68 261.89
  Q 251.87 261.89 251.88 262.69
  Q 252.04 271.86 251.92 281.35
  Q 251.90 282.49 251.81 283.66
  Q 251.68 285.38 252.20 285.99"
/>
<path stroke="#6a6a6a" vector-effect="non-scaling-stroke" d="
  M 418.09 261.79
  L 418.12 285.99"
/>
<path stroke="#6a6a6a" vector-effect="non-scaling-stroke" d="
  M 511.96 261.84
  L 511.73 262.02
  Q 511.63 262.11 511.70 262.23
  Q 511.84 262.46 511.84 262.75
  Q 511.80 273.98 511.76 285.22
  Q 511.75 285.69 512.22 285.82
  L 512.79 285.98"
/>
<path stroke="#777777" vector-effect="non-scaling-stroke" d="
  M 629.73 261.91
  Q 630.35 262.44 630.36 262.75
  Q 630.60 274.29 630.27 285.99"
/>
<path stroke="#777777" vector-effect="non-scaling-stroke" d="
  M 676.77 261.80
  L 676.84 286.02"
/>
<path stroke="#6a6a6a" vector-effect="non-scaling-stroke" d="
  M 722.21 261.78
  L 723.44 262.00
  Q 723.99 262.09 724.00 262.65
  L 724.36 286.00"
/>
<path stroke="#808080" vector-effect="non-scaling-stroke" d="
  M 344.85 79.07
  C 325.29 84.82 314.01 99.79 309.62 119.54
  Q 305.36 138.69 308.44 157.50
  C 312.10 179.85 328.38 200.24 353.59 195.12
  C 361.18 193.58 368.65 189.23 372.07 182.31
  Q 373.04 180.33 373.06 178.18
  Q 373.58 126.61 373.98 78.35
  Q 373.98 77.94 373.58 77.89
  C 364.01 76.71 354.02 76.37 344.85 79.07"
/>
<path stroke="#808080" vector-effect="non-scaling-stroke" d="
  M 862.5799 211.2799
  A 8.57 7.60 89.8 0 0 870.1500 202.6835
  A 8.57 7.60 89.8 0 0 862.5201 194.1401
  A 8.57 7.60 89.8 0 0 854.9500 202.7365
  A 8.57 7.60 89.8 0 0 862.5799 211.2799"
/>
<path stroke="#808080" vector-effect="non-scaling-stroke" d="
  M 861.45 203.78
  C 862.06 203.93 862.54 204.28 862.81 204.86
  Q 863.57 206.48 864.51 208.05
  Q 865.03 208.93 866.03 208.72
  L 866.33 208.65
  A 0.32 0.31 84.5 0 0 866.58 208.34
  Q 866.53 206.47 865.12 205.10
  A 1.30 1.30 0.0 0 1 865.48 202.99
  C 868.16 201.74 868.00 198.92 865.80 197.44
  Q 863.20 195.69 859.73 196.65
  A 1.67 1.66 -7.8 0 0 858.51 198.25
  L 858.53 207.27
  Q 858.54 208.55 859.80 208.78
  Q 859.98 208.81 860.17 208.76
  Q 861.25 208.47 861.09 207.35
  L 860.68 204.47
  A 0.62 0.62 0.0 0 1 861.45 203.78"
/>
<path stroke="#808080" vector-effect="non-scaling-stroke" d="
  M 865.0123 200.1176
  A 1.27 1.27 0.0 0 0 863.8012 198.7913
  L 862.0431 198.7115
  A 1.27 1.27 0.0 0 0 860.7167 199.9226
  L 860.7077 200.1224
  A 1.27 1.27 0.0 0 0 861.9188 201.4487
  L 863.6769 201.5285
  A 1.27 1.27 0.0 0 0 865.0033 200.3174
  L 865.0123 200.1176"
/>
</g>
<path fill="#ffffff" d="
  M 0.00 0.00
  L 1000.00 0.00
  L 1000.00 333.00
  L 0.00 333.00
  L 0.00 0.00
  Z
  M 650.18 66.76
  A 0.62 0.62 0.0 0 1 649.56 66.14
  L 649.63 28.47
  Q 649.63 26.54 648.38 28.01
  Q 643.66 33.53 638.22 38.97
  Q 620.26 56.94 600.17 74.16
  Q 598.77 75.36 600.61 75.32
  Q 608.91 75.15 617.82 75.13
  Q 618.43 75.13 618.45 75.74
  Q 619.85 114.93 618.52 159.07
  Q 618.15 171.18 619.59 180.41
  C 623.01 202.45 638.21 215.04 660.51 214.56
  Q 683.94 214.05 700.91 197.73
  A 0.39 0.37 -35.8 0 0 700.99 197.28
  L 698.14 191.57
  Q 697.99 191.28 697.74 191.49
  Q 683.91 203.25 667.80 197.77
  C 654.09 193.12 649.66 178.66 649.61 165.42
  Q 649.42 118.72 649.50 76.22
  A 0.74 0.74 0.0 0 1 650.24 75.49
  L 691.09 75.51
  Q 691.69 75.51 691.69 74.91
  L 691.71 67.48
  Q 691.71 66.75 690.98 66.75
  L 650.18 66.76
  Z
  M 195.71 79.92
  C 214.85 71.75 241.70 74.93 257.35 89.04
  Q 258.00 89.64 258.55 88.94
  L 262.04 84.49
  Q 262.59 83.78 261.94 83.17
  Q 240.00 62.53 209.75 60.37
  C 170.27 57.55 137.04 84.20 129.30 122.65
  C 125.11 143.47 130.24 166.90 142.41 184.15
  C 155.36 202.52 175.48 213.47 198.01 214.48
  Q 236.52 216.20 263.97 188.95
  A 0.29 0.28 48.8 0 0 263.99 188.56
  L 259.81 183.19
  Q 259.64 182.97 259.44 183.16
  Q 251.99 190.32 242.67 194.06
  C 218.59 203.71 191.85 199.13 175.92 177.94
  C 165.54 164.13 162.30 146.27 163.67 128.94
  C 165.38 107.41 175.57 88.52 195.71 79.92
  Z
  M 476.16 89.08
  Q 477.31 78.94 477.01 67.05
  A 0.33 0.33 0.0 0 0 476.66 66.72
  Q 460.88 67.21 445.58 66.73
  Q 445.26 66.72 445.27 67.04
  Q 447.59 139.16 445.17 210.79
  A 0.57 0.56 -1.4 0 0 445.78 211.37
  Q 461.67 210.14 476.92 211.33
  A 0.46 0.46 0.0 0 0 477.42 210.86
  Q 476.12 158.42 476.52 105.36
  C 476.53 104.28 477.02 103.52 477.68 102.72
  Q 485.65 92.99 496.53 86.47
  C 508.51 79.28 523.64 76.73 534.28 87.08
  C 540.80 93.42 544.72 104.32 544.71 113.06
  Q 544.68 145.07 544.96 175.80
  C 545.07 187.60 544.89 198.94 544.49 210.67
  Q 544.46 211.37 545.17 211.33
  C 555.40 210.72 566.11 210.70 575.96 211.41
  A 0.48 0.48 0.0 0 0 576.47 210.91
  Q 574.86 162.58 575.87 113.00
  C 576.14 99.82 574.34 87.20 565.56 76.96
  C 547.73 56.17 518.74 57.94 497.64 72.13
  Q 486.37 79.71 477.21 89.57
  Q 475.95 90.92 476.16 89.08
  Z
  M 374.52 198.51
  A 0.53 0.53 0.0 0 1 375.39 198.67
  C 381.47 212.96 394.72 214.07 408.30 212.03
  Q 408.96 211.93 409.36 211.38
  A 1.55 1.55 0.0 0 0 408.68 209.03
  C 402.67 206.61 402.42 196.07 402.44 190.72
  Q 402.53 159.36 403.26 127.74
  Q 403.49 117.80 403.53 107.76
  Q 403.59 87.76 403.70 67.83
  A 1.77 1.77 0.0 0 0 402.30 66.09
  C 380.34 61.45 358.37 59.96 336.99 64.85
  C 323.12 68.03 311.81 74.53 301.22 83.89
  Q 286.48 96.91 280.93 116.10
  C 274.82 137.22 275.70 161.67 284.66 181.61
  Q 294.38 203.26 318.85 209.81
  Q 325.93 211.71 338.12 212.45
  C 352.23 213.31 364.74 208.32 374.52 198.51
  Z
  M 817.40 188.58
  A 0.43 0.43 0.0 0 1 818.00 189.05
  Q 817.48 191.93 817.50 194.59
  Q 817.57 202.70 817.31 210.85
  A 0.37 0.37 0.0 0 0 817.68 211.23
  L 848.78 211.23
  A 0.56 0.56 0.0 0 0 849.34 210.63
  Q 848.59 199.10 848.48 188.00
  Q 847.92 129.03 849.14 67.05
  A 0.33 0.33 0.0 0 0 848.79 66.71
  Q 833.40 67.83 818.35 66.76
  Q 817.76 66.72 817.76 67.31
  Q 818.12 119.89 818.04 171.35
  C 818.03 173.98 816.46 175.76 814.88 177.63
  C 805.41 188.84 790.89 197.39 776.17 195.46
  C 758.16 193.09 749.70 177.62 749.62 160.50
  Q 749.46 125.75 749.61 93.23
  Q 749.66 81.22 750.17 67.07
  A 0.30 0.30 0.0 0 0 749.85 66.75
  Q 734.64 67.65 718.81 66.71
  Q 718.34 66.69 718.35 67.16
  Q 719.52 110.98 718.69 157.81
  Q 718.49 169.05 720.99 180.58
  C 725.83 202.91 747.07 215.29 768.97 214.49
  C 787.85 213.81 804.40 204.07 816.42 189.33
  Q 816.83 188.83 817.40 188.58
  Z
  M 862.6973 213.6699
  A 10.94 10.46 89.7 0 0 873.0999 202.6752
  A 10.94 10.46 89.7 0 0 862.5827 191.7901
  A 10.94 10.46 89.7 0 0 852.1801 202.7848
  A 10.94 10.46 89.7 0 0 862.6973 213.6699
  Z
  M 252.20 285.99
  L 418.12 285.99
  L 512.79 285.98
  L 630.27 285.99
  L 676.84 286.02
  L 724.36 286.00
  L 855.16 285.96
  A 0.67 0.67 0.0 0 0 855.83 285.29
  L 855.89 263.41
  A 1.63 1.63 0.0 0 0 854.26 261.78
  L 722.21 261.78
  L 676.77 261.80
  L 629.73 261.91
  L 511.96 261.84
  L 418.09 261.79
  L 286.46 261.85
  L 133.78 261.94
  A 1.30 1.29 90.0 0 0 132.49 263.24
  L 132.46 285.32
  Q 132.46 285.96 133.10 285.96
  L 252.20 285.99
  Z"
/>
<path fill="#000000" d="
  M 650.18 66.76
  L 690.98 66.75
  Q 691.71 66.75 691.71 67.48
  L 691.69 74.91
  Q 691.69 75.51 691.09 75.51
  L 650.24 75.49
  A 0.74 0.74 0.0 0 0 649.50 76.22
  Q 649.42 118.72 649.61 165.42
  C 649.66 178.66 654.09 193.12 667.80 197.77
  Q 683.91 203.25 697.74 191.49
  Q 697.99 191.28 698.14 191.57
  L 700.99 197.28
  A 0.39 0.37 -35.8 0 1 700.91 197.73
  Q 683.94 214.05 660.51 214.56
  C 638.21 215.04 623.01 202.45 619.59 180.41
  Q 618.15 171.18 618.52 159.07
  Q 619.85 114.93 618.45 75.74
  Q 618.43 75.13 617.82 75.13
  Q 608.91 75.15 600.61 75.32
  Q 598.77 75.36 600.17 74.16
  Q 620.26 56.94 638.22 38.97
  Q 643.66 33.53 648.38 28.01
  Q 649.63 26.54 649.63 28.47
  L 649.56 66.14
  A 0.62 0.62 0.0 0 0 650.18 66.76
  Z"
/>
<path fill="#000000" d="
  M 257.35 89.04
  C 241.70 74.93 214.85 71.75 195.71 79.92
  C 175.57 88.52 165.38 107.41 163.67 128.94
  C 162.30 146.27 165.54 164.13 175.92 177.94
  C 191.85 199.13 218.59 203.71 242.67 194.06
  Q 251.99 190.32 259.44 183.16
  Q 259.64 182.97 259.81 183.19
  L 263.99 188.56
  A 0.29 0.28 48.8 0 1 263.97 188.95
  Q 236.52 216.20 198.01 214.48
  C 175.48 213.47 155.36 202.52 142.41 184.15
  C 130.24 166.90 125.11 143.47 129.30 122.65
  C 137.04 84.20 170.27 57.55 209.75 60.37
  Q 240.00 62.53 261.94 83.17
  Q 262.59 83.78 262.04 84.49
  L 258.55 88.94
  Q 258.00 89.64 257.35 89.04
  Z"
/>
<path fill="#000000" d="
  M 476.16 89.08
  Q 475.95 90.92 477.21 89.57
  Q 486.37 79.71 497.64 72.13
  C 518.74 57.94 547.73 56.17 565.56 76.96
  C 574.34 87.20 576.14 99.82 575.87 113.00
  Q 574.86 162.58 576.47 210.91
  A 0.48 0.48 0.0 0 1 575.96 211.41
  C 566.11 210.70 555.40 210.72 545.17 211.33
  Q 544.46 211.37 544.49 210.67
  C 544.89 198.94 545.07 187.60 544.96 175.80
  Q 544.68 145.07 544.71 113.06
  C 544.72 104.32 540.80 93.42 534.28 87.08
  C 523.64 76.73 508.51 79.28 496.53 86.47
  Q 485.65 92.99 477.68 102.72
  C 477.02 103.52 476.53 104.28 476.52 105.36
  Q 476.12 158.42 477.42 210.86
  A 0.46 0.46 0.0 0 1 476.92 211.33
  Q 461.67 210.14 445.78 211.37
  A 0.57 0.56 -1.4 0 1 445.17 210.79
  Q 447.59 139.16 445.27 67.04
  Q 445.26 66.72 445.58 66.73
  Q 460.88 67.21 476.66 66.72
  A 0.33 0.33 0.0 0 1 477.01 67.05
  Q 477.31 78.94 476.16 89.08
  Z"
/>
<path fill="#000000" d="
  M 374.52 198.51
  C 364.74 208.32 352.23 213.31 338.12 212.45
  Q 325.93 211.71 318.85 209.81
  Q 294.38 203.26 284.66 181.61
  C 275.70 161.67 274.82 137.22 280.93 116.10
  Q 286.48 96.91 301.22 83.89
  C 311.81 74.53 323.12 68.03 336.99 64.85
  C 358.37 59.96 380.34 61.45 402.30 66.09
  A 1.77 1.77 0.0 0 1 403.70 67.83
  Q 403.59 87.76 403.53 107.76
  Q 403.49 117.80 403.26 127.74
  Q 402.53 159.36 402.44 190.72
  C 402.42 196.07 402.67 206.61 408.68 209.03
  A 1.55 1.55 0.0 0 1 409.36 211.38
  Q 408.96 211.93 408.30 212.03
  C 394.72 214.07 381.47 212.96 375.39 198.67
  A 0.53 0.53 0.0 0 0 374.52 198.51
  Z
  M 344.85 79.07
  C 325.29 84.82 314.01 99.79 309.62 119.54
  Q 305.36 138.69 308.44 157.50
  C 312.10 179.85 328.38 200.24 353.59 195.12
  C 361.18 193.58 368.65 189.23 372.07 182.31
  Q 373.04 180.33 373.06 178.18
  Q 373.58 126.61 373.98 78.35
  Q 373.98 77.94 373.58 77.89
  C 364.01 76.71 354.02 76.37 344.85 79.07
  Z"
/>
<path fill="#000000" d="
  M 817.40 188.58
  Q 816.83 188.83 816.42 189.33
  C 804.40 204.07 787.85 213.81 768.97 214.49
  C 747.07 215.29 725.83 202.91 720.99 180.58
  Q 718.49 169.05 718.69 157.81
  Q 719.52 110.98 718.35 67.16
  Q 718.34 66.69 718.81 66.71
  Q 734.64 67.65 749.85 66.75
  A 0.30 0.30 0.0 0 1 750.17 67.07
  Q 749.66 81.22 749.61 93.23
  Q 749.46 125.75 749.62 160.50
  C 749.70 177.62 758.16 193.09 776.17 195.46
  C 790.89 197.39 805.41 188.84 814.88 177.63
  C 816.46 175.76 818.03 173.98 818.04 171.35
  Q 818.12 119.89 817.76 67.31
  Q 817.76 66.72 818.35 66.76
  Q 833.40 67.83 848.79 66.71
  A 0.33 0.33 0.0 0 1 849.14 67.05
  Q 847.92 129.03 848.48 188.00
  Q 848.59 199.10 849.34 210.63
  A 0.56 0.56 0.0 0 1 848.78 211.23
  L 817.68 211.23
  A 0.37 0.37 0.0 0 1 817.31 210.85
  Q 817.57 202.70 817.50 194.59
  Q 817.48 191.93 818.00 189.05
  A 0.43 0.43 0.0 0 0 817.40 188.58
  Z"
/>
<path fill="#ffffff" d="
  M 309.62 119.54
  C 314.01 99.79 325.29 84.82 344.85 79.07
  C 354.02 76.37 364.01 76.71 373.58 77.89
  Q 373.98 77.94 373.98 78.35
  Q 373.58 126.61 373.06 178.18
  Q 373.04 180.33 372.07 182.31
  C 368.65 189.23 361.18 193.58 353.59 195.12
  C 328.38 200.24 312.10 179.85 308.44 157.50
  Q 305.36 138.69 309.62 119.54
  Z"
/>
<path fill="#000000" d="
  M 862.6973 213.6699
  A 10.94 10.46 89.7 0 1 852.1801 202.7848
  A 10.94 10.46 89.7 0 1 862.5827 191.7901
  A 10.94 10.46 89.7 0 1 873.0999 202.6752
  A 10.94 10.46 89.7 0 1 862.6973 213.6699
  Z
  M 862.5799 211.2799
  A 8.57 7.60 89.8 0 0 870.1500 202.6835
  A 8.57 7.60 89.8 0 0 862.5201 194.1401
  A 8.57 7.60 89.8 0 0 854.9500 202.7365
  A 8.57 7.60 89.8 0 0 862.5799 211.2799
  Z"
/>
<path fill="#ffffff" d="
  M 862.5799 211.2799
  A 8.57 7.60 89.8 0 1 854.9500 202.7365
  A 8.57 7.60 89.8 0 1 862.5201 194.1401
  A 8.57 7.60 89.8 0 1 870.1500 202.6835
  A 8.57 7.60 89.8 0 1 862.5799 211.2799
  Z
  M 861.45 203.78
  C 862.06 203.93 862.54 204.28 862.81 204.86
  Q 863.57 206.48 864.51 208.05
  Q 865.03 208.93 866.03 208.72
  L 866.33 208.65
  A 0.32 0.31 84.5 0 0 866.58 208.34
  Q 866.53 206.47 865.12 205.10
  A 1.30 1.30 0.0 0 1 865.48 202.99
  C 868.16 201.74 868.00 198.92 865.80 197.44
  Q 863.20 195.69 859.73 196.65
  A 1.67 1.66 -7.8 0 0 858.51 198.25
  L 858.53 207.27
  Q 858.54 208.55 859.80 208.78
  Q 859.98 208.81 860.17 208.76
  Q 861.25 208.47 861.09 207.35
  L 860.68 204.47
  A 0.62 0.62 0.0 0 1 861.45 203.78
  Z"
/>
<path fill="#000000" d="
  M 860.68 204.47
  L 861.09 207.35
  Q 861.25 208.47 860.17 208.76
  Q 859.98 208.81 859.80 208.78
  Q 858.54 208.55 858.53 207.27
  L 858.51 198.25
  A 1.67 1.66 -7.8 0 1 859.73 196.65
  Q 863.20 195.69 865.80 197.44
  C 868.00 198.92 868.16 201.74 865.48 202.99
  A 1.30 1.30 0.0 0 0 865.12 205.10
  Q 866.53 206.47 866.58 208.34
  A 0.32 0.31 84.5 0 1 866.33 208.65
  L 866.03 208.72
  Q 865.03 208.93 864.51 208.05
  Q 863.57 206.48 862.81 204.86
  C 862.54 204.28 862.06 203.93 861.45 203.78
  A 0.62 0.62 0.0 0 0 860.68 204.47
  Z
  M 865.0123 200.1176
  A 1.27 1.27 0.0 0 0 863.8012 198.7913
  L 862.0431 198.7115
  A 1.27 1.27 0.0 0 0 860.7167 199.9226
  L 860.7077 200.1224
  A 1.27 1.27 0.0 0 0 861.9188 201.4487
  L 863.6769 201.5285
  A 1.27 1.27 0.0 0 0 865.0033 200.3174
  L 865.0123 200.1176
  Z"
/>
<rect fill="#ffffff" x="-2.15" y="-1.37" transform="translate(862.86,200.12) rotate(2.6)" width="4.30" height="2.74" rx="1.27"/>
<path fill="#959595" d="
  M 286.46 261.85
  L 252.68 261.89
  Q 251.87 261.89 251.88 262.69
  Q 252.04 271.86 251.92 281.35
  Q 251.90 282.49 251.81 283.66
  Q 251.68 285.38 252.20 285.99
  L 133.10 285.96
  Q 132.46 285.96 132.46 285.32
  L 132.49 263.24
  A 1.30 1.29 -90.0 0 1 133.78 261.94
  L 286.46 261.85
  Z"
/>
<path fill="#595959" d="
  M 286.46 261.85
  L 418.09 261.79
  L 418.12 285.99
  L 252.20 285.99
  Q 251.68 285.38 251.81 283.66
  Q 251.90 282.49 251.92 281.35
  Q 252.04 271.86 251.88 262.69
  Q 251.87 261.89 252.68 261.89
  L 286.46 261.85
  Z"
/>
<path fill="#7a7a7a" d="
  M 418.09 261.79
  L 511.96 261.84
  L 511.73 262.02
  Q 511.63 262.11 511.70 262.23
  Q 511.84 262.46 511.84 262.75
  Q 511.80 273.98 511.76 285.22
  Q 511.75 285.69 512.22 285.82
  L 512.79 285.98
  L 418.12 285.99
  L 418.09 261.79
  Z"
/>
<path fill="#595959" d="
  M 511.96 261.84
  L 629.73 261.91
  Q 630.35 262.44 630.36 262.75
  Q 630.60 274.29 630.27 285.99
  L 512.79 285.98
  L 512.22 285.82
  Q 511.75 285.69 511.76 285.22
  Q 511.80 273.98 511.84 262.75
  Q 511.84 262.46 511.70 262.23
  Q 511.63 262.11 511.73 262.02
  L 511.96 261.84
  Z"
/>
<path fill="#959595" d="
  M 676.77 261.80
  L 676.84 286.02
  L 630.27 285.99
  Q 630.60 274.29 630.36 262.75
  Q 630.35 262.44 629.73 261.91
  L 676.77 261.80
  Z"
/>
<path fill="#595959" d="
  M 676.77 261.80
  L 722.21 261.78
  L 723.44 262.00
  Q 723.99 262.09 724.00 262.65
  L 724.36 286.00
  L 676.84 286.02
  L 676.77 261.80
  Z"
/>
<path fill="#7a7a7a" d="
  M 722.21 261.78
  L 854.26 261.78
  A 1.63 1.63 0.0 0 1 855.89 263.41
  L 855.83 285.29
  A 0.67 0.67 0.0 0 1 855.16 285.96
  L 724.36 286.00
  L 724.00 262.65
  Q 723.99 262.09 723.44 262.00
  L 722.21 261.78
  Z"
/>
</svg>
