<?xml version="1.0" encoding="UTF-8" standalone="no"?>
<!DOCTYPE svg PUBLIC "-//W3C//DTD SVG 1.1//EN" "http://www.w3.org/Graphics/SVG/1.1/DTD/svg11.dtd">
<svg xmlns="http://www.w3.org/2000/svg" version="1.1" viewBox="0.00 0.00 1000.00 333.00">
<g stroke-width="2.00" fill="none" stroke-linecap="butt">
<path stroke="#808080" vector-effect="non-scaling-stroke" d="
  M 146.99 136.18
  A 0.21 0.20 22.5 0 1 147.34 136.04
  Q 160.00 148.50 176.06 164.53
  C 180.69 169.16 186.27 171.62 191.91 166.34
  Q 200.35 158.45 213.52 144.90
  Q 215.87 142.47 215.88 139.19
  Q 215.92 127.74 215.75 116.46
  A 0.25 0.25 0.0 0 0 215.32 116.29
  L 185.88 145.88
  A 0.59 0.59 0.0 0 1 185.04 145.88
  Q 163.70 124.34 141.93 102.69
  C 139.27 100.04 136.11 98.21 132.26 99.89
  Q 127.29 102.06 127.28 107.75
  Q 127.24 164.42 127.28 223.57
  C 127.29 236.48 146.95 237.05 146.97 222.65
  Q 147.04 178.73 146.99 136.18"
/>
<path stroke="#808080" vector-effect="non-scaling-stroke" d="
  M 241.70 108.94
  A 9.62 9.62 0.0 0 0 232.08 99.32
  L 231.70 99.32
  A 9.62 9.62 0.0 0 0 222.08 108.94
  L 222.08 223.70
  A 9.62 9.62 0.0 0 0 231.70 233.32
  L 232.08 233.32
  A 9.62 9.62 0.0 0 0 241.70 223.70
  L 241.70 108.94"
/>
<path stroke="#808080" vector-effect="non-scaling-stroke" d="
  M 352.93 204.49
  Q 356.93 195.28 356.95 188.25
  Q 357.08 150.12 357.02 110.50
  Q 357.01 103.68 352.82 101.00
  C 345.63 96.39 337.56 101.46 337.54 109.71
  Q 337.45 146.04 337.54 181.34
  Q 337.56 188.89 336.19 193.50
  C 328.26 220.22 290.78 220.64 281.91 194.28
  Q 280.36 189.68 280.37 181.17
  C 280.39 157.22 280.50 133.00 280.31 108.61
  C 280.27 104.26 277.43 101.02 273.29 99.74
  C 267.85 98.05 262.08 101.53 260.95 107.29
  Q 260.49 109.63 260.50 112.09
  Q 260.65 145.56 260.63 182.20
  Q 260.63 194.32 263.90 202.49
  C 272.63 224.26 294.90 237.43 318.32 232.47
  Q 343.05 227.23 352.93 204.49"
/>
<path stroke="#808080" vector-effect="non-scaling-stroke" d="
  M 396.03 136.09
  Q 396.36 135.70 396.72 136.07
  Q 410.00 149.79 424.15 163.70
  Q 428.71 168.19 431.39 168.98
  Q 436.66 170.54 441.13 166.17
  Q 450.23 157.27 462.72 144.65
  Q 464.72 142.62 464.81 140.19
  Q 465.15 130.47 464.90 116.92
  A 1.36 1.30 32.4 0 0 464.75 116.31
  Q 464.22 115.30 463.63 115.90
  Q 448.82 130.93 434.53 145.38
  A 0.67 0.67 0.0 0 1 433.58 145.39
  Q 411.76 123.62 390.37 102.29
  C 384.60 96.55 376.24 99.68 376.25 107.60
  Q 376.26 157.26 376.27 221.76
  C 376.27 226.30 377.36 230.44 381.81 232.51
  C 388.93 235.83 395.82 230.49 395.81 222.87
  Q 395.74 179.69 395.93 136.38
  A 0.49 0.47 -27.1 0 1 396.03 136.09"
/>
<path stroke="#808080" vector-effect="non-scaling-stroke" d="
  M 490.69 109.02
  A 9.70 9.70 0.0 0 0 480.99 99.32
  L 480.67 99.32
  A 9.70 9.70 0.0 0 0 470.97 109.02
  L 470.97 223.70
  A 9.70 9.70 0.0 0 0 480.67 233.40
  L 480.99 233.40
  A 9.70 9.70 0.0 0 0 490.69 223.70
  L 490.69 109.02"
/>
<path stroke="#808080" vector-effect="non-scaling-stroke" d="
  M 584.55 197.64
  C 577.15 212.47 559.06 218.67 544.29 209.84
  Q 532.32 202.69 530.72 189.95
  Q 530.27 186.34 530.27 181.73
  Q 530.30 146.02 530.27 109.90
  C 530.26 95.70 510.54 95.88 510.52 109.99
  Q 510.48 142.28 510.52 175.40
  Q 510.52 183.10 511.00 188.87
  Q 513.03 213.74 533.49 226.22
  Q 551.41 237.14 571.13 231.85
  C 591.80 226.30 606.87 207.74 606.93 185.93
  Q 607.05 145.34 606.96 110.08
  C 606.94 101.88 599.37 96.32 591.95 100.79
  C 587.56 103.43 587.33 108.10 587.34 112.62
  Q 587.43 151.43 587.33 184.26
  Q 587.31 192.11 584.55 197.64"
/>
<path stroke="#808080" vector-effect="non-scaling-stroke" d="
  M 670.77 119.05
  C 678.93 119.32 685.73 122.26 691.75 127.67
  C 695.29 130.87 700.02 132.27 704.36 129.89
  C 712.10 125.66 711.54 117.14 705.58 111.56
  Q 697.75 104.23 687.17 101.43
  C 671.78 97.37 656.04 98.75 643.13 108.10
  C 615.29 128.29 626.67 164.74 658.38 170.80
  Q 667.81 172.61 677.62 174.25
  Q 681.93 174.97 685.63 176.52
  C 695.75 180.75 699.35 192.36 693.61 201.71
  C 686.25 213.72 670.11 216.20 658.33 209.49
  C 654.77 207.46 651.45 204.18 648.47 201.26
  C 644.95 197.82 640.56 195.45 635.73 197.45
  Q 628.29 200.53 628.83 208.20
  C 629.08 211.87 632.20 215.90 634.78 218.41
  Q 647.79 231.08 665.66 232.97
  C 677.55 234.24 689.12 232.74 699.29 226.35
  Q 716.32 215.65 717.71 195.89
  C 719.07 176.45 707.68 160.93 688.45 156.38
  C 679.40 154.24 669.29 153.54 660.80 149.88
  C 652.63 146.35 646.31 138.62 650.39 129.53
  C 653.62 122.33 662.90 118.79 670.77 119.05"
/>
<path stroke="#808080" vector-effect="non-scaling-stroke" d="
  M 872.9152 164.9504
  A 67.31 67.15 -1.2 0 0 804.2137 99.2247
  A 67.31 67.15 -1.2 0 0 738.3248 167.7696
  A 67.31 67.15 -1.2 0 0 807.0263 233.4953
  A 67.31 67.15 -1.2 0 0 872.9152 164.9504"
/>
<path stroke="#808080" vector-effect="non-scaling-stroke" d="
  M 852.68 166.38
  A 47.02 47.02 0.0 0 0 805.66 119.36
  A 47.02 47.02 0.0 0 0 758.64 166.38
  A 47.02 47.02 0.0 0 0 805.66 213.40
  A 47.02 47.02 0.0 0 0 852.68 166.38"
/>
<path stroke="#808080" vector-effect="non-scaling-stroke" d="
  M 787.88 161.48
  L 787.86 150.34
  Q 787.85 147.34 784.86 147.12
  Q 784.48 147.09 784.11 147.18
  Q 781.80 147.79 781.80 150.18
  L 781.79 182.64
  Q 781.79 185.74 784.89 185.55
  L 785.29 185.52
  Q 787.67 185.37 787.76 182.98
  Q 787.89 179.45 787.70 175.35
  C 787.51 171.30 789.74 168.86 792.78 166.75
  A 0.39 0.39 0.0 0 1 793.34 166.87
  L 803.39 183.99
  Q 804.90 186.57 807.57 185.22
  Q 807.92 185.05 808.19 184.76
  Q 809.75 183.07 808.59 181.09
  L 797.48 162.15
  Q 797.18 161.65 797.60 161.24
  L 807.40 151.88
  A 2.42 2.42 0.0 0 0 807.80 148.88
  Q 807.34 148.12 806.63 147.62
  Q 804.62 146.22 802.87 147.94
  L 788.78 161.85
  Q 787.89 162.73 787.88 161.48"
/>
<path stroke="#808080" vector-effect="non-scaling-stroke" d="
  M 837.69 166.22
  C 845.07 159.02 840.25 147.12 830.00 147.02
  Q 823.99 146.96 817.82 147.03
  Q 815.11 147.06 815.12 149.76
  L 815.23 182.90
  Q 815.24 185.82 818.15 185.57
  L 818.55 185.53
  Q 820.87 185.33 820.92 183.00
  Q 821.01 178.05 821.03 172.06
  Q 821.04 169.14 823.97 169.02
  C 829.70 168.79 834.97 169.89 835.34 176.79
  Q 835.51 180.01 835.54 183.06
  Q 835.57 185.35 837.86 185.51
  Q 838.22 185.54 838.56 185.42
  Q 841.03 184.55 841.22 182.01
  C 841.64 176.44 841.52 171.42 837.67 167.26
  Q 837.17 166.73 837.69 166.22"
/>
<path stroke="#808080" vector-effect="non-scaling-stroke" d="
  M 775.69 181.58
  A 3.79 3.79 0.0 0 0 771.90 177.79
  A 3.79 3.79 0.0 0 0 768.11 181.58
  A 3.79 3.79 0.0 0 0 771.90 185.37
  A 3.79 3.79 0.0 0 0 775.69 181.58"
/>
<path stroke="#808080" vector-effect="non-scaling-stroke" d="
  M 820.97 155.35
  L 820.99 160.93
  A 2.40 2.40 0.0 0 0 823.41 163.31
  L 829.59 163.28
  A 5.68 5.01 -0.3 0 0 835.24 158.24
  L 835.24 157.88
  A 5.68 5.01 -0.3 0 0 829.53 152.90
  L 823.35 152.93
  A 2.40 2.40 0.0 0 0 820.97 155.35"
/>
</g>
<path fill="#ffffff" d="
  M 0.00 0.00
  L 1000.00 0.00
  L 1000.00 333.00
  L 0.00 333.00
  L 0.00 0.00
  Z
  M 146.99 136.18
  A 0.21 0.20 22.5 0 1 147.34 136.04
  Q 160.00 148.50 176.06 164.53
  C 180.69 169.16 186.27 171.62 191.91 166.34
  Q 200.35 158.45 213.52 144.90
  Q 215.87 142.47 215.88 139.19
  Q 215.92 127.74 215.75 116.46
  A 0.25 0.25 0.0 0 0 215.32 116.29
  L 185.88 145.88
  A 0.59 0.59 0.0 0 1 185.04 145.88
  Q 163.70 124.34 141.93 102.69
  C 139.27 100.04 136.11 98.21 132.26 99.89
  Q 127.29 102.06 127.28 107.75
  Q 127.24 164.42 127.28 223.57
  C 127.29 236.48 146.95 237.05 146.97 222.65
  Q 147.04 178.73 146.99 136.18
  Z
  M 241.70 108.94
  A 9.62 9.62 0.0 0 0 232.08 99.32
  L 231.70 99.32
  A 9.62 9.62 0.0 0 0 222.08 108.94
  L 222.08 223.70
  A 9.62 9.62 0.0 0 0 231.70 233.32
  L 232.08 233.32
  A 9.62 9.62 0.0 0 0 241.70 223.70
  L 241.70 108.94
  Z
  M 352.93 204.49
  Q 356.93 195.28 356.95 188.25
  Q 357.08 150.12 357.02 110.50
  Q 357.01 103.68 352.82 101.00
  C 345.63 96.39 337.56 101.46 337.54 109.71
  Q 337.45 146.04 337.54 181.34
  Q 337.56 188.89 336.19 193.50
  C 328.26 220.22 290.78 220.64 281.91 194.28
  Q 280.36 189.68 280.37 181.17
  C 280.39 157.22 280.50 133.00 280.31 108.61
  C 280.27 104.26 277.43 101.02 273.29 99.74
  C 267.85 98.05 262.08 101.53 260.95 107.29
  Q 260.49 109.63 260.50 112.09
  Q 260.65 145.56 260.63 182.20
  Q 260.63 194.32 263.90 202.49
  C 272.63 224.26 294.90 237.43 318.32 232.47
  Q 343.05 227.23 352.93 204.49
  Z
  M 396.03 136.09
  Q 396.36 135.70 396.72 136.07
  Q 410.00 149.79 424.15 163.70
  Q 428.71 168.19 431.39 168.98
  Q 436.66 170.54 441.13 166.17
  Q 450.23 157.27 462.72 144.65
  Q 464.72 142.62 464.81 140.19
  Q 465.15 130.47 464.90 116.92
  A 1.36 1.30 32.4 0 0 464.75 116.31
  Q 464.22 115.30 463.63 115.90
  Q 448.82 130.93 434.53 145.38
  A 0.67 0.67 0.0 0 1 433.58 145.39
  Q 411.76 123.62 390.37 102.29
  C 384.60 96.55 376.24 99.68 376.25 107.60
  Q 376.26 157.26 376.27 221.76
  C 376.27 226.30 377.36 230.44 381.81 232.51
  C 388.93 235.83 395.82 230.49 395.81 222.87
  Q 395.74 179.69 395.93 136.38
  A 0.49 0.47 -27.1 0 1 396.03 136.09
  Z
  M 490.69 109.02
  A 9.70 9.70 0.0 0 0 480.99 99.32
  L 480.67 99.32
  A 9.70 9.70 0.0 0 0 470.97 109.02
  L 470.97 223.70
  A 9.70 9.70 0.0 0 0 480.67 233.40
  L 480.99 233.40
  A 9.70 9.70 0.0 0 0 490.69 223.70
  L 490.69 109.02
  Z
  M 584.55 197.64
  C 577.15 212.47 559.06 218.67 544.29 209.84
  Q 532.32 202.69 530.72 189.95
  Q 530.27 186.34 530.27 181.73
  Q 530.30 146.02 530.27 109.90
  C 530.26 95.70 510.54 95.88 510.52 109.99
  Q 510.48 142.28 510.52 175.40
  Q 510.52 183.10 511.00 188.87
  Q 513.03 213.74 533.49 226.22
  Q 551.41 237.14 571.13 231.85
  C 591.80 226.30 606.87 207.74 606.93 185.93
  Q 607.05 145.34 606.96 110.08
  C 606.94 101.88 599.37 96.32 591.95 100.79
  C 587.56 103.43 587.33 108.10 587.34 112.62
  Q 587.43 151.43 587.33 184.26
  Q 587.31 192.11 584.55 197.64
  Z
  M 670.77 119.05
  C 678.93 119.32 685.73 122.26 691.75 127.67
  C 695.29 130.87 700.02 132.27 704.36 129.89
  C 712.10 125.66 711.54 117.14 705.58 111.56
  Q 697.75 104.23 687.17 101.43
  C 671.78 97.37 656.04 98.75 643.13 108.10
  C 615.29 128.29 626.67 164.74 658.38 170.80
  Q 667.81 172.61 677.62 174.25
  Q 681.93 174.97 685.63 176.52
  C 695.75 180.75 699.35 192.36 693.61 201.71
  C 686.25 213.72 670.11 216.20 658.33 209.49
  C 654.77 207.46 651.45 204.18 648.47 201.26
  C 644.95 197.82 640.56 195.45 635.73 197.45
  Q 628.29 200.53 628.83 208.20
  C 629.08 211.87 632.20 215.90 634.78 218.41
  Q 647.79 231.08 665.66 232.97
  C 677.55 234.24 689.12 232.74 699.29 226.35
  Q 716.32 215.65 717.71 195.89
  C 719.07 176.45 707.68 160.93 688.45 156.38
  C 679.40 154.24 669.29 153.54 660.80 149.88
  C 652.63 146.35 646.31 138.62 650.39 129.53
  C 653.62 122.33 662.90 118.79 670.77 119.05
  Z
  M 872.9152 164.9504
  A 67.31 67.15 -1.2 0 0 804.2137 99.2247
  A 67.31 67.15 -1.2 0 0 738.3248 167.7696
  A 67.31 67.15 -1.2 0 0 807.0263 233.4953
  A 67.31 67.15 -1.2 0 0 872.9152 164.9504
  Z"
/>
<path fill="#000000" d="
  M 146.99 136.18
  Q 147.04 178.73 146.97 222.65
  C 146.95 237.05 127.29 236.48 127.28 223.57
  Q 127.24 164.42 127.28 107.75
  Q 127.29 102.06 132.26 99.89
  C 136.11 98.21 139.27 100.04 141.93 102.69
  Q 163.70 124.34 185.04 145.88
  A 0.59 0.59 0.0 0 0 185.88 145.88
  L 215.32 116.29
  A 0.25 0.25 0.0 0 1 215.75 116.46
  Q 215.92 127.74 215.88 139.19
  Q 215.87 142.47 213.52 144.90
  Q 200.35 158.45 191.91 166.34
  C 186.27 171.62 180.69 169.16 176.06 164.53
  Q 160.00 148.50 147.34 136.04
  A 0.21 0.20 22.5 0 0 146.99 136.18
  Z"
/>
<rect fill="#000000" x="222.08" y="99.32" width="19.62" height="134.00" rx="9.62"/>
<path fill="#000000" d="
  M 352.93 204.49
  Q 343.05 227.23 318.32 232.47
  C 294.90 237.43 272.63 224.26 263.90 202.49
  Q 260.63 194.32 260.63 182.20
  Q 260.65 145.56 260.50 112.09
  Q 260.49 109.63 260.95 107.29
  C 262.08 101.53 267.85 98.05 273.29 99.74
  C 277.43 101.02 280.27 104.26 280.31 108.61
  C 280.50 133.00 280.39 157.22 280.37 181.17
  Q 280.36 189.68 281.91 194.28
  C 290.78 220.64 328.26 220.22 336.19 193.50
  Q 337.56 188.89 337.54 181.34
  Q 337.45 146.04 337.54 109.71
  C 337.56 101.46 345.63 96.39 352.82 101.00
  Q 357.01 103.68 357.02 110.50
  Q 357.08 150.12 356.95 188.25
  Q 356.93 195.28 352.93 204.49
  Z"
/>
<path fill="#000000" d="
  M 396.03 136.09
  A 0.49 0.47 -27.1 0 0 395.93 136.38
  Q 395.74 179.69 395.81 222.87
  C 395.82 230.49 388.93 235.83 381.81 232.51
  C 377.36 230.44 376.27 226.30 376.27 221.76
  Q 376.26 157.26 376.25 107.60
  C 376.24 99.68 384.60 96.55 390.37 102.29
  Q 411.76 123.62 433.58 145.39
  A 0.67 0.67 0.0 0 0 434.53 145.38
  Q 448.82 130.93 463.63 115.90
  Q 464.22 115.30 464.75 116.31
  A 1.36 1.30 32.4 0 1 464.90 116.92
  Q 465.15 130.47 464.81 140.19
  Q 464.72 142.62 462.72 144.65
  Q 450.23 157.27 441.13 166.17
  Q 436.66 170.54 431.39 168.98
  Q 428.71 168.19 424.15 163.70
  Q 410.00 149.79 396.72 136.07
  Q 396.36 135.70 396.03 136.09
  Z"
/>
<rect fill="#000000" x="470.97" y="99.32" width="19.72" height="134.08" rx="9.70"/>
<path fill="#000000" d="
  M 584.55 197.64
  Q 587.31 192.11 587.33 184.26
  Q 587.43 151.43 587.34 112.62
  C 587.33 108.10 587.56 103.43 591.95 100.79
  C 599.37 96.32 606.94 101.88 606.96 110.08
  Q 607.05 145.34 606.93 185.93
  C 606.87 207.74 591.80 226.30 571.13 231.85
  Q 551.41 237.14 533.49 226.22
  Q 513.03 213.74 511.00 188.87
  Q 510.52 183.10 510.52 175.40
  Q 510.48 142.28 510.52 109.99
  C 510.54 95.88 530.26 95.70 530.27 109.90
  Q 530.30 146.02 530.27 181.73
  Q 530.27 186.34 530.72 189.95
  Q 532.32 202.69 544.29 209.84
  C 559.06 218.67 577.15 212.47 584.55 197.64
  Z"
/>
<path fill="#000000" d="
  M 691.75 127.67
  C 685.73 122.26 678.93 119.32 670.77 119.05
  C 662.90 118.79 653.62 122.33 650.39 129.53
  C 646.31 138.62 652.63 146.35 660.80 149.88
  C 669.29 153.54 679.40 154.24 688.45 156.38
  C 707.68 160.93 719.07 176.45 717.71 195.89
  Q 716.32 215.65 699.29 226.35
  C 689.12 232.74 677.55 234.24 665.66 232.97
  Q 647.79 231.08 634.78 218.41
  C 632.20 215.90 629.08 211.87 628.83 208.20
  Q 628.29 200.53 635.73 197.45
  C 640.56 195.45 644.95 197.82 648.47 201.26
  C 651.45 204.18 654.77 207.46 658.33 209.49
  C 670.11 216.20 686.25 213.72 693.61 201.71
  C 699.35 192.36 695.75 180.75 685.63 176.52
  Q 681.93 174.97 677.62 174.25
  Q 667.81 172.61 658.38 170.80
  C 626.67 164.74 615.29 128.29 643.13 108.10
  C 656.04 98.75 671.78 97.37 687.17 101.43
  Q 697.75 104.23 705.58 111.56
  C 711.54 117.14 712.10 125.66 704.36 129.89
  C 700.02 132.27 695.29 130.87 691.75 127.67
  Z"
/>
<path fill="#000000" d="
  M 872.9152 164.9504
  A 67.31 67.15 -1.2 0 1 807.0263 233.4953
  A 67.31 67.15 -1.2 0 1 738.3248 167.7696
  A 67.31 67.15 -1.2 0 1 804.2137 99.2247
  A 67.31 67.15 -1.2 0 1 872.9152 164.9504
  Z
  M 852.68 166.38
  A 47.02 47.02 0.0 0 0 805.66 119.36
  A 47.02 47.02 0.0 0 0 758.64 166.38
  A 47.02 47.02 0.0 0 0 805.66 213.40
  A 47.02 47.02 0.0 0 0 852.68 166.38
  Z"
/>
<path fill="#ffffff" d="
  M 852.68 166.38
  A 47.02 47.02 0.0 0 1 805.66 213.40
  A 47.02 47.02 0.0 0 1 758.64 166.38
  A 47.02 47.02 0.0 0 1 805.66 119.36
  A 47.02 47.02 0.0 0 1 852.68 166.38
  Z
  M 787.88 161.48
  L 787.86 150.34
  Q 787.85 147.34 784.86 147.12
  Q 784.48 147.09 784.11 147.18
  Q 781.80 147.79 781.80 150.18
  L 781.79 182.64
  Q 781.79 185.74 784.89 185.55
  L 785.29 185.52
  Q 787.67 185.37 787.76 182.98
  Q 787.89 179.45 787.70 175.35
  C 787.51 171.30 789.74 168.86 792.78 166.75
  A 0.39 0.39 0.0 0 1 793.34 166.87
  L 803.39 183.99
  Q 804.90 186.57 807.57 185.22
  Q 807.92 185.05 808.19 184.76
  Q 809.75 183.07 808.59 181.09
  L 797.48 162.15
  Q 797.18 161.65 797.60 161.24
  L 807.40 151.88
  A 2.42 2.42 0.0 0 0 807.80 148.88
  Q 807.34 148.12 806.63 147.62
  Q 804.62 146.22 802.87 147.94
  L 788.78 161.85
  Q 787.89 162.73 787.88 161.48
  Z
  M 837.69 166.22
  C 845.07 159.02 840.25 147.12 830.00 147.02
  Q 823.99 146.96 817.82 147.03
  Q 815.11 147.06 815.12 149.76
  L 815.23 182.90
  Q 815.24 185.82 818.15 185.57
  L 818.55 185.53
  Q 820.87 185.33 820.92 183.00
  Q 821.01 178.05 821.03 172.06
  Q 821.04 169.14 823.97 169.02
  C 829.70 168.79 834.97 169.89 835.34 176.79
  Q 835.51 180.01 835.54 183.06
  Q 835.57 185.35 837.86 185.51
  Q 838.22 185.54 838.56 185.42
  Q 841.03 184.55 841.22 182.01
  C 841.64 176.44 841.52 171.42 837.67 167.26
  Q 837.17 166.73 837.69 166.22
  Z
  M 775.69 181.58
  A 3.79 3.79 0.0 0 0 771.90 177.79
  A 3.79 3.79 0.0 0 0 768.11 181.58
  A 3.79 3.79 0.0 0 0 771.90 185.37
  A 3.79 3.79 0.0 0 0 775.69 181.58
  Z"
/>
<path fill="#000000" d="
  M 787.88 161.48
  Q 787.89 162.73 788.78 161.85
  L 802.87 147.94
  Q 804.62 146.22 806.63 147.62
  Q 807.34 148.12 807.80 148.88
  A 2.42 2.42 0.0 0 1 807.40 151.88
  L 797.60 161.24
  Q 797.18 161.65 797.48 162.15
  L 808.59 181.09
  Q 809.75 183.07 808.19 184.76
  Q 807.92 185.05 807.57 185.22
  Q 804.90 186.57 803.39 183.99
  L 793.34 166.87
  A 0.39 0.39 0.0 0 0 792.78 166.75
  C 789.74 168.86 787.51 171.30 787.70 175.35
  Q 787.89 179.45 787.76 182.98
  Q 787.67 185.37 785.29 185.52
  L 784.89 185.55
  Q 781.79 185.74 781.79 182.64
  L 781.80 150.18
  Q 781.80 147.79 784.11 147.18
  Q 784.48 147.09 784.86 147.12
  Q 787.85 147.34 787.86 150.34
  L 787.88 161.48
  Z"
/>
<path fill="#000000" d="
  M 837.67 167.26
  C 841.52 171.42 841.64 176.44 841.22 182.01
  Q 841.03 184.55 838.56 185.42
  Q 838.22 185.54 837.86 185.51
  Q 835.57 185.35 835.54 183.06
  Q 835.51 180.01 835.34 176.79
  C 834.97 169.89 829.70 168.79 823.97 169.02
  Q 821.04 169.14 821.03 172.06
  Q 821.01 178.05 820.92 183.00
  Q 820.87 185.33 818.55 185.53
  L 818.15 185.57
  Q 815.24 185.82 815.23 182.90
  L 815.12 149.76
  Q 815.11 147.06 817.82 147.03
  Q 823.99 146.96 830.00 147.02
  C 840.25 147.12 845.07 159.02 837.69 166.22
  Q 837.17 166.73 837.67 167.26
  Z
  M 820.97 155.35
  L 820.99 160.93
  A 2.40 2.40 0.0 0 0 823.41 163.31
  L 829.59 163.28
  A 5.68 5.01 -0.3 0 0 835.24 158.24
  L 835.24 157.88
  A 5.68 5.01 -0.3 0 0 829.53 152.90
  L 823.35 152.93
  A 2.40 2.40 0.0 0 0 820.97 155.35
  Z"
/>
<path fill="#ffffff" d="
  M 820.97 155.35
  A 2.40 2.40 0.0 0 1 823.35 152.93
  L 829.53 152.90
  A 5.68 5.01 -0.3 0 1 835.24 157.88
  L 835.24 158.24
  A 5.68 5.01 -0.3 0 1 829.59 163.28
  L 823.41 163.31
  A 2.40 2.40 0.0 0 1 820.99 160.93
  L 820.97 155.35
  Z"
/>
<circle fill="#000000" cx="771.90" cy="181.58" r="3.79"/>
</svg>
