<?xml version="1.0" encoding="UTF-8" standalone="no"?>
<!DOCTYPE svg PUBLIC "-//W3C//DTD SVG 1.1//EN" "http://www.w3.org/Graphics/SVG/1.1/DTD/svg11.dtd">
<svg xmlns="http://www.w3.org/2000/svg" version="1.1" viewBox="0.00 0.00 1000.00 333.00">
<g stroke-width="2.00" fill="none" stroke-linecap="butt">
<path stroke="#939091" vector-effect="non-scaling-stroke" d="
  M 857.0437 74.2799
  A 16.13 15.18 90.2 0 0 872.2799 58.2030
  A 16.13 15.18 90.2 0 0 857.1563 42.0201
  A 16.13 15.18 90.2 0 0 841.9201 58.0970
  A 16.13 15.18 90.2 0 0 857.0437 74.2799"
/>
<path stroke="#939091" vector-effect="non-scaling-stroke" d="
  M 737.26 207.57
  Q 740.37 208.19 742.56 206.93
  Q 749.23 203.07 756.27 199.36
  A 1.24 1.23 -42.0 0 1 757.51 199.42
  Q 775.64 211.32 798.04 209.66
  Q 814.48 208.44 826.38 196.42
  C 838.13 184.54 839.65 167.41 837.98 151.72
  C 836.10 134.00 827.83 121.52 809.86 116.24
  Q 791.56 110.87 771.16 105.08
  C 761.99 102.48 750.85 97.15 748.17 87.58
  Q 743.69 71.56 752.58 60.03
  C 766.02 42.58 793.33 45.92 810.91 54.11
  A 2.87 2.84 0.8 0 1 812.29 55.51
  L 824.88 82.97
  Q 825.22 83.72 826.04 83.71
  L 828.61 83.69
  Q 829.42 83.69 829.42 82.89
  L 829.41 42.99
  A 0.70 0.70 0.0 0 0 828.78 42.29
  C 826.98 42.10 825.11 42.33 823.44 43.14
  Q 817.66 45.96 812.22 48.56
  Q 811.68 48.81 811.15 48.56
  Q 798.93 42.78 781.28 42.39
  C 753.50 41.78 737.95 61.69 737.23 87.50
  C 736.77 103.73 743.57 117.97 757.47 126.13
  Q 763.78 129.83 776.05 133.01
  Q 791.05 136.89 804.87 140.83
  C 814.90 143.68 825.74 149.25 828.87 159.97
  Q 831.79 170.01 828.87 181.12
  C 825.68 193.23 815.12 201.13 803.08 203.51
  Q 778.63 208.35 758.30 193.95
  A 4.39 4.38 -84.3 0 1 756.82 192.14
  Q 749.80 176.21 742.13 158.30
  Q 740.80 155.21 737.40 156.45
  Q 736.90 156.63 736.90 157.16
  L 736.94 207.25
  A 0.39 0.31 6.5 0 0 737.26 207.57"
/>
<path stroke="#939091" vector-effect="non-scaling-stroke" d="
  M 395.34 107.53
  C 389.60 70.98 363.58 41.53 324.79 42.44
  C 286.68 43.32 261.46 73.52 256.76 110.00
  Q 254.37 128.57 257.48 146.54
  C 262.17 173.70 279.42 199.26 306.62 207.24
  Q 317.41 210.41 330.45 209.79
  C 350.34 208.85 366.27 200.18 378.89 184.05
  C 395.20 163.20 399.49 133.92 395.34 107.53"
/>
<path stroke="#939091" vector-effect="non-scaling-stroke" d="
  M 144.98 197.84
  A 0.55 0.55 0.0 0 1 144.52 198.39
  L 128.67 201.02
  A 0.55 0.55 0.0 0 0 128.21 201.55
  L 128.15 205.20
  A 0.55 0.55 0.0 0 0 128.70 205.76
  L 241.69 205.75
  A 0.55 0.55 0.0 0 0 242.24 205.20
  L 242.26 157.53
  A 0.55 0.55 0.0 0 0 241.73 156.98
  L 237.10 156.81
  A 0.55 0.55 0.0 0 0 236.56 157.18
  L 221.63 200.17
  A 0.55 0.55 0.0 0 1 221.11 200.54
  L 166.60 200.54
  A 0.55 0.55 0.0 0 1 166.05 199.99
  L 166.04 54.49
  A 0.55 0.55 0.0 0 1 166.50 53.95
  L 183.00 51.13
  A 0.55 0.55 0.0 0 0 183.46 50.59
  L 183.48 47.06
  A 0.55 0.55 0.0 0 0 182.93 46.51
  L 128.72 46.51
  A 0.55 0.55 0.0 0 0 128.17 47.08
  L 128.28 50.69
  A 0.55 0.55 0.0 0 0 128.73 51.22
  L 144.52 53.89
  A 0.55 0.55 0.0 0 1 144.98 54.43
  L 144.98 197.84"
/>
<path stroke="#939091" vector-effect="non-scaling-stroke" d="
  M 451.41 200.52
  A 0.66 0.66 0.0 0 1 450.75 199.86
  L 450.75 54.58
  A 0.66 0.66 0.0 0 1 451.30 53.93
  L 467.44 51.21
  A 0.66 0.66 0.0 0 0 467.99 50.57
  L 468.02 47.16
  A 0.66 0.66 0.0 0 0 467.36 46.50
  L 413.32 46.51
  A 0.66 0.66 0.0 0 0 412.66 47.18
  L 412.74 50.54
  A 0.66 0.66 0.0 0 0 413.29 51.17
  L 429.24 53.92
  A 0.66 0.66 0.0 0 1 429.79 54.57
  L 429.82 197.76
  A 0.66 0.66 0.0 0 1 429.27 198.41
  L 413.22 201.04
  A 0.66 0.66 0.0 0 0 412.67 201.69
  L 412.67 205.09
  A 0.66 0.66 0.0 0 0 413.33 205.75
  L 526.09 205.75
  A 0.66 0.66 0.0 0 0 526.75 205.09
  L 526.79 157.56
  A 0.66 0.66 0.0 0 0 526.13 156.90
  L 521.87 156.87
  A 0.66 0.66 0.0 0 0 521.25 157.32
  L 506.37 200.12
  A 0.66 0.66 0.0 0 1 505.75 200.56
  L 451.41 200.52"
/>
<path stroke="#939091" vector-effect="non-scaling-stroke" d="
  M 575.80 54.51
  A 0.55 0.55 0.0 0 1 576.26 53.97
  L 592.82 51.13
  A 0.55 0.55 0.0 0 0 593.28 50.59
  L 593.28 47.06
  A 0.55 0.55 0.0 0 0 592.73 46.51
  L 538.58 46.51
  A 0.55 0.55 0.0 0 0 538.03 47.08
  L 538.13 50.66
  A 0.55 0.55 0.0 0 0 538.58 51.19
  L 554.42 53.89
  A 0.55 0.55 0.0 0 1 554.88 54.43
  L 554.88 197.85
  A 0.55 0.55 0.0 0 1 554.42 198.39
  L 538.53 201.07
  A 0.55 0.55 0.0 0 0 538.07 201.60
  L 537.99 205.19
  A 0.55 0.55 0.0 0 0 538.54 205.75
  L 651.68 205.75
  A 0.55 0.55 0.0 0 0 652.23 205.20
  L 652.23 157.54
  A 0.55 0.55 0.0 0 0 651.68 156.99
  L 647.01 156.96
  A 0.55 0.55 0.0 0 0 646.49 157.33
  L 631.59 200.14
  A 0.55 0.55 0.0 0 1 631.07 200.51
  L 576.36 200.56
  A 0.55 0.55 0.0 0 1 575.81 200.01
  L 575.80 54.51"
/>
<path stroke="#939091" vector-effect="non-scaling-stroke" d="
  M 679.75 53.92
  A 0.64 0.64 0.0 0 1 680.28 54.55
  L 680.27 197.79
  A 0.64 0.64 0.0 0 1 679.73 198.42
  L 663.76 201.05
  A 0.64 0.64 0.0 0 0 663.22 201.67
  L 663.17 205.10
  A 0.64 0.64 0.0 0 0 663.81 205.75
  L 717.94 205.75
  A 0.64 0.64 0.0 0 0 718.58 205.11
  L 718.56 201.73
  A 0.64 0.64 0.0 0 0 718.03 201.10
  L 701.84 198.36
  A 0.64 0.64 0.0 0 1 701.31 197.73
  L 701.27 54.52
  A 0.64 0.64 0.0 0 1 701.80 53.89
  L 717.98 51.17
  A 0.64 0.64 0.0 0 0 718.52 50.55
  L 718.57 47.16
  A 0.64 0.64 0.0 0 0 717.93 46.51
  L 663.88 46.51
  A 0.64 0.64 0.0 0 0 663.24 47.15
  L 663.27 50.53
  A 0.64 0.64 0.0 0 0 663.80 51.16
  L 679.75 53.92"
/>
<path stroke="#939091" vector-effect="non-scaling-stroke" d="
  M 252.88 272.03
  A 0.33 0.33 0.0 0 1 253.19 271.82
  L 271.66 271.78
  A 0.33 0.33 0.0 0 1 271.97 271.99
  L 275.89 282.38
  A 0.33 0.33 0.0 0 0 276.20 282.59
  L 286.05 282.60
  A 0.33 0.33 0.0 0 0 286.36 282.15
  L 267.24 234.47
  A 0.33 0.33 0.0 0 0 266.94 234.26
  L 258.18 234.26
  A 0.33 0.33 0.0 0 0 257.88 234.47
  L 238.76 282.17
  A 0.33 0.33 0.0 0 0 239.07 282.62
  L 248.69 282.51
  A 0.33 0.33 0.0 0 0 249.00 282.30
  L 252.88 272.03"
/>
<path stroke="#939091" vector-effect="non-scaling-stroke" d="
  M 554.92 282.53
  A 0.50 0.50 0.0 0 0 555.38 282.21
  L 559.20 272.12
  A 0.50 0.50 0.0 0 1 559.66 271.80
  L 577.92 271.77
  A 0.50 0.50 0.0 0 1 578.39 272.09
  L 582.23 282.29
  A 0.50 0.50 0.0 0 0 582.70 282.62
  L 592.17 282.57
  A 0.50 0.50 0.0 0 0 592.64 281.89
  L 573.66 234.57
  A 0.50 0.50 0.0 0 0 573.19 234.26
  L 564.62 234.28
  A 0.50 0.50 0.0 0 0 564.15 234.59
  L 545.18 281.90
  A 0.50 0.50 0.0 0 0 545.64 282.59
  L 554.92 282.53"
/>
<path stroke="#939091" vector-effect="non-scaling-stroke" d="
  M 165.24 257.78
  A 0.35 0.35 0.0 0 1 165.19 257.15
  C 173.26 252.19 171.99 240.20 163.84 236.22
  Q 160.41 234.54 153.51 234.63
  Q 144.18 234.75 135.17 234.60
  Q 134.72 234.59 134.72 235.04
  L 134.71 282.22
  Q 134.71 282.56 135.05 282.56
  Q 146.67 282.56 157.76 282.51
  C 166.70 282.47 173.62 277.62 172.95 267.80
  Q 172.45 260.65 165.24 257.78"
/>
<path stroke="#939091" vector-effect="non-scaling-stroke" d="
  M 200.25 263.64
  A 0.45 0.45 0.0 0 1 200.70 263.19
  L 221.03 263.23
  A 0.45 0.45 0.0 0 0 221.48 262.78
  L 221.49 254.10
  A 0.45 0.45 0.0 0 0 221.04 253.65
  L 200.68 253.70
  A 0.45 0.45 0.0 0 1 200.23 253.25
  L 200.25 244.49
  A 0.45 0.45 0.0 0 1 200.70 244.04
  L 223.91 244.18
  A 0.45 0.45 0.0 0 0 224.36 243.73
  L 224.38 235.08
  A 0.45 0.45 0.0 0 0 223.93 234.63
  L 190.71 234.66
  A 0.45 0.45 0.0 0 0 190.26 235.11
  L 190.24 282.13
  A 0.45 0.45 0.0 0 0 190.69 282.58
  L 224.23 282.54
  A 0.45 0.45 0.0 0 0 224.68 282.09
  L 224.64 273.56
  A 0.45 0.45 0.0 0 0 224.19 273.11
  L 200.71 273.21
  A 0.45 0.45 0.0 0 1 200.26 272.76
  L 200.25 263.64"
/>
<path stroke="#939091" vector-effect="non-scaling-stroke" d="
  M 320.28 273.47
  C 313.60 273.74 310.27 268.86 310.25 262.81
  Q 310.19 249.03 310.19 235.16
  Q 310.19 234.60 309.62 234.60
  L 300.78 234.61
  Q 300.23 234.61 300.23 235.16
  Q 300.11 251.72 300.21 264.01
  C 300.33 278.90 312.28 285.67 325.78 282.58
  C 335.47 280.36 339.48 271.63 339.48 262.35
  Q 339.48 249.11 339.48 235.29
  Q 339.48 234.55 338.74 234.55
  L 330.07 234.56
  A 0.63 0.63 0.0 0 0 329.44 235.19
  Q 329.47 248.70 329.43 262.28
  C 329.41 268.12 326.84 273.20 320.28 273.47"
/>
<path stroke="#939091" vector-effect="non-scaling-stroke" d="
  M 379.10 244.85
  A 0.36 0.36 0.0 0 1 379.46 244.49
  L 392.41 244.49
  A 0.36 0.36 0.0 0 0 392.77 244.13
  L 392.75 234.98
  A 0.36 0.36 0.0 0 0 392.39 234.62
  L 355.79 234.66
  A 0.36 0.36 0.0 0 0 355.43 235.02
  L 355.43 244.13
  A 0.36 0.36 0.0 0 0 355.79 244.49
  L 368.89 244.48
  A 0.36 0.36 0.0 0 1 369.25 244.84
  L 369.14 282.29
  A 0.36 0.36 0.0 0 0 369.50 282.65
  L 378.83 282.58
  A 0.36 0.36 0.0 0 0 379.19 282.22
  L 379.10 244.85"
/>
<path stroke="#939091" vector-effect="non-scaling-stroke" d="
  M 427.55 253.30
  A 0.42 0.42 0.0 0 1 426.81 253.30
  L 416.64 234.80
  A 0.42 0.42 0.0 0 0 416.27 234.58
  L 405.46 234.65
  A 0.42 0.42 0.0 0 0 405.10 235.28
  L 422.21 263.69
  A 0.42 0.42 0.0 0 1 422.27 263.91
  L 422.15 282.22
  A 0.42 0.42 0.0 0 0 422.58 282.64
  L 431.77 282.52
  A 0.42 0.42 0.0 0 0 432.18 282.10
  L 432.16 263.40
  A 0.42 0.42 0.0 0 1 432.22 263.18
  L 449.24 235.15
  A 0.42 0.42 0.0 0 0 448.88 234.51
  L 438.27 234.54
  A 0.42 0.42 0.0 0 0 437.90 234.75
  L 427.55 253.30"
/>
<path stroke="#939091" vector-effect="non-scaling-stroke" d="
  M 493.44 282.57
  A 0.32 0.32 0.0 0 0 493.76 282.25
  L 493.70 252.72
  A 0.32 0.32 0.0 0 1 494.29 252.56
  L 506.08 271.69
  A 0.32 0.32 0.0 0 0 506.62 271.69
  L 518.59 252.20
  A 0.32 0.32 0.0 0 1 519.19 252.37
  L 519.06 282.27
  A 0.32 0.32 0.0 0 0 519.38 282.59
  L 528.69 282.51
  A 0.32 0.32 0.0 0 0 529.01 282.19
  L 528.99 234.89
  A 0.32 0.32 0.0 0 0 528.67 234.57
  L 518.42 234.61
  A 0.32 0.32 0.0 0 0 518.15 234.77
  L 506.75 254.37
  A 0.32 0.32 0.0 0 1 506.19 254.37
  L 494.81 234.76
  A 0.32 0.32 0.0 0 0 494.54 234.60
  L 484.20 234.63
  A 0.32 0.32 0.0 0 0 483.88 234.95
  L 483.86 282.32
  A 0.32 0.32 0.0 0 0 484.18 282.64
  L 493.44 282.57"
/>
<path stroke="#939091" vector-effect="non-scaling-stroke" d="
  M 619.48 254.70
  A 0.40 0.40 0.0 0 1 618.77 254.44
  L 618.84 235.01
  A 0.40 0.40 0.0 0 0 618.44 234.61
  L 609.20 234.59
  A 0.40 0.40 0.0 0 0 608.80 234.99
  L 608.78 282.21
  A 0.40 0.40 0.0 0 0 609.19 282.61
  L 618.42 282.50
  A 0.40 0.40 0.0 0 0 618.82 282.09
  L 618.74 268.25
  A 0.40 0.40 0.0 0 1 618.84 267.99
  L 623.62 262.56
  A 0.40 0.40 0.0 0 1 624.25 262.60
  L 637.80 282.46
  A 0.40 0.40 0.0 0 0 638.13 282.64
  L 649.32 282.60
  A 0.40 0.40 0.0 0 0 649.65 281.97
  L 630.93 255.25
  A 0.40 0.40 0.0 0 1 630.97 254.75
  L 648.77 235.18
  A 0.40 0.40 0.0 0 0 648.47 234.51
  L 637.17 234.56
  A 0.40 0.40 0.0 0 0 636.87 234.70
  L 619.48 254.70"
/>
<path stroke="#939091" vector-effect="non-scaling-stroke" d="
  M 674.78 263.60
  A 0.39 0.39 0.0 0 1 675.17 263.21
  L 695.78 263.24
  A 0.39 0.39 0.0 0 0 696.17 262.85
  L 696.21 254.05
  A 0.39 0.39 0.0 0 0 695.82 253.66
  L 675.25 253.70
  A 0.39 0.39 0.0 0 1 674.86 253.31
  L 674.83 244.51
  A 0.39 0.39 0.0 0 1 675.22 244.12
  L 698.62 244.12
  A 0.39 0.39 0.0 0 0 699.01 243.73
  L 699.00 235.03
  A 0.39 0.39 0.0 0 0 698.61 234.64
  L 665.34 234.63
  A 0.39 0.39 0.0 0 0 664.95 235.02
  L 664.94 282.20
  A 0.39 0.39 0.0 0 0 665.33 282.59
  L 699.01 282.51
  A 0.39 0.39 0.0 0 0 699.40 282.12
  L 699.31 273.47
  A 0.39 0.39 0.0 0 0 698.92 273.08
  L 675.28 273.17
  A 0.39 0.39 0.0 0 1 674.89 272.78
  L 674.78 263.60"
/>
<path stroke="#939091" vector-effect="non-scaling-stroke" d="
  M 764.95 262.91
  C 764.80 277.42 745.84 276.96 745.77 262.65
  Q 745.71 249.50 745.76 235.25
  A 0.65 0.64 90.0 0 0 745.12 234.60
  L 736.29 234.59
  Q 735.73 234.59 735.73 235.15
  Q 735.73 247.87 735.72 261.96
  C 735.71 271.17 739.07 279.91 748.82 282.50
  C 755.38 284.25 763.63 283.42 768.86 278.74
  C 773.19 274.87 774.95 268.60 775.01 262.94
  Q 775.15 249.47 775.06 235.35
  Q 775.05 234.63 774.33 234.63
  L 765.67 234.61
  Q 764.96 234.61 764.97 235.32
  Q 765.09 248.99 764.95 262.91"
/>
<path stroke="#939091" vector-effect="non-scaling-stroke" d="
  M 804.93 268.15
  C 812.31 268.35 819.49 268.55 824.81 263.77
  Q 829.52 259.53 829.82 252.65
  C 830.36 239.99 822.28 234.35 810.85 234.61
  Q 802.72 234.80 794.95 234.52
  A 0.67 0.67 0.0 0 0 794.26 235.19
  L 794.24 282.17
  A 0.43 0.42 0.7 0 0 794.67 282.60
  L 803.77 282.51
  A 0.53 0.53 0.0 0 0 804.29 281.98
  L 804.24 268.82
  Q 804.24 268.14 804.93 268.15"
/>
<path stroke="#939091" vector-effect="non-scaling-stroke" d="
  M 857.3474 71.5587
  A 13.42 12.62 89.2 0 0 869.7788 57.9638
  A 13.42 12.62 89.2 0 0 856.9726 44.7213
  A 13.42 12.62 89.2 0 0 844.5412 58.3162
  A 13.42 12.62 89.2 0 0 857.3474 71.5587"
/>
<path stroke="#939091" vector-effect="non-scaling-stroke" d="
  M 372.23 97.57
  C 369.24 67.67 347.74 40.57 314.53 49.10
  C 296.15 53.82 284.31 72.93 280.81 90.51
  Q 278.93 99.99 278.82 108.63
  Q 278.57 127.66 278.89 144.71
  C 279.19 160.88 283.16 176.97 293.42 189.21
  Q 308.47 207.16 332.44 204.28
  C 356.52 201.39 370.10 177.55 372.28 155.23
  C 372.74 150.52 373.24 145.66 373.25 140.92
  Q 373.27 127.09 373.23 112.86
  C 373.22 107.76 372.73 102.65 372.23 97.57"
/>
<path stroke="#939091" vector-effect="non-scaling-stroke" d="
  M 859.59 59.07
  C 864.51 57.97 864.31 50.35 858.93 49.84
  Q 855.03 49.46 850.85 49.54
  A 0.50 0.50 0.0 0 0 850.36 50.04
  L 850.43 66.21
  A 1.02 1.02 0.0 0 0 851.46 67.23
  L 852.04 67.23
  Q 853.30 67.22 853.27 65.96
  L 853.14 60.43
  Q 853.12 59.81 853.73 59.71
  C 857.23 59.15 858.97 63.20 860.19 65.73
  A 2.54 2.52 79.4 0 0 862.25 67.15
  L 863.17 67.23
  Q 864.32 67.33 863.79 66.30
  Q 861.86 62.61 859.36 59.75
  Q 858.90 59.22 859.59 59.07"
/>
<path stroke="#939091" vector-effect="non-scaling-stroke" d="
  M 853.19 52.63
  L 853.19 56.81
  A 0.47 0.47 0.0 0 0 853.66 57.28
  L 856.92 57.29
  A 3.33 2.37 0.1 0 0 860.25 54.93
  L 860.25 54.55
  A 3.33 2.37 0.1 0 0 856.92 52.17
  L 853.66 52.16
  A 0.47 0.47 0.0 0 0 853.19 52.63"
/>
<path stroke="#939091" vector-effect="non-scaling-stroke" d="
  M 256.69 261.99
  A 0.33 0.33 0.0 0 0 257.00 262.44
  L 267.86 262.44
  A 0.33 0.33 0.0 0 0 268.17 261.99
  L 262.74 247.97
  A 0.33 0.33 0.0 0 0 262.12 247.97
  L 256.69 261.99"
/>
<path stroke="#939091" vector-effect="non-scaling-stroke" d="
  M 563.08 261.99
  A 0.33 0.33 0.0 0 0 563.39 262.44
  L 574.20 262.46
  A 0.33 0.33 0.0 0 0 574.50 262.01
  L 569.12 247.97
  A 0.33 0.33 0.0 0 0 568.51 247.97
  L 563.08 261.99"
/>
<path stroke="#939091" vector-effect="non-scaling-stroke" d="
  M 144.48 244.24
  L 144.46 253.60
  A 0.33 0.33 0.0 0 0 144.79 253.93
  L 154.49 253.94
  A 6.13 4.77 0.1 0 0 160.63 249.18
  L 160.63 248.70
  A 6.13 4.77 0.1 0 0 154.51 243.92
  L 144.81 243.91
  A 0.33 0.33 0.0 0 0 144.48 244.24"
/>
<path stroke="#939091" vector-effect="non-scaling-stroke" d="
  M 144.48 263.21
  L 144.48 272.81
  A 0.43 0.43 0.0 0 0 144.91 273.24
  L 156.72 273.24
  A 6.42 4.84 -0.0 0 0 163.14 268.40
  L 163.14 267.62
  A 6.42 4.84 0.0 0 0 156.72 262.78
  L 144.91 262.78
  A 0.43 0.43 0.0 0 0 144.48 263.21"
/>
<path stroke="#939091" vector-effect="non-scaling-stroke" d="
  M 804.26 244.71
  L 804.24 258.21
  A 0.49 0.49 0.0 0 0 804.73 258.70
  L 812.46 258.71
  A 7.28 6.80 0.1 0 0 819.75 251.92
  L 819.75 251.04
  A 7.28 6.80 0.1 0 0 812.48 244.23
  L 804.75 244.22
  A 0.49 0.49 0.0 0 0 804.26 244.71"
/>
</g>
<path fill="#ffffff" d="
  M 0.00 0.00
  L 1000.00 0.00
  L 1000.00 333.00
  L 0.00 333.00
  L 0.00 0.00
  Z
  M 857.0437 74.2799
  A 16.13 15.18 90.2 0 0 872.2799 58.2030
  A 16.13 15.18 90.2 0 0 857.1563 42.0201
  A 16.13 15.18 90.2 0 0 841.9201 58.0970
  A 16.13 15.18 90.2 0 0 857.0437 74.2799
  Z
  M 737.26 207.57
  Q 740.37 208.19 742.56 206.93
  Q 749.23 203.07 756.27 199.36
  A 1.24 1.23 -42.0 0 1 757.51 199.42
  Q 775.64 211.32 798.04 209.66
  Q 814.48 208.44 826.38 196.42
  C 838.13 184.54 839.65 167.41 837.98 151.72
  C 836.10 134.00 827.83 121.52 809.86 116.24
  Q 791.56 110.87 771.16 105.08
  C 761.99 102.48 750.85 97.15 748.17 87.58
  Q 743.69 71.56 752.58 60.03
  C 766.02 42.58 793.33 45.92 810.91 54.11
  A 2.87 2.84 0.8 0 1 812.29 55.51
  L 824.88 82.97
  Q 825.22 83.72 826.04 83.71
  L 828.61 83.69
  Q 829.42 83.69 829.42 82.89
  L 829.41 42.99
  A 0.70 0.70 0.0 0 0 828.78 42.29
  C 826.98 42.10 825.11 42.33 823.44 43.14
  Q 817.66 45.96 812.22 48.56
  Q 811.68 48.81 811.15 48.56
  Q 798.93 42.78 781.28 42.39
  C 753.50 41.78 737.95 61.69 737.23 87.50
  C 736.77 103.73 743.57 117.97 757.47 126.13
  Q 763.78 129.83 776.05 133.01
  Q 791.05 136.89 804.87 140.83
  C 814.90 143.68 825.74 149.25 828.87 159.97
  Q 831.79 170.01 828.87 181.12
  C 825.68 193.23 815.12 201.13 803.08 203.51
  Q 778.63 208.35 758.30 193.95
  A 4.39 4.38 -84.3 0 1 756.82 192.14
  Q 749.80 176.21 742.13 158.30
  Q 740.80 155.21 737.40 156.45
  Q 736.90 156.63 736.90 157.16
  L 736.94 207.25
  A 0.39 0.31 6.5 0 0 737.26 207.57
  Z
  M 395.34 107.53
  C 389.60 70.98 363.58 41.53 324.79 42.44
  C 286.68 43.32 261.46 73.52 256.76 110.00
  Q 254.37 128.57 257.48 146.54
  C 262.17 173.70 279.42 199.26 306.62 207.24
  Q 317.41 210.41 330.45 209.79
  C 350.34 208.85 366.27 200.18 378.89 184.05
  C 395.20 163.20 399.49 133.92 395.34 107.53
  Z
  M 144.98 197.84
  A 0.55 0.55 0.0 0 1 144.52 198.39
  L 128.67 201.02
  A 0.55 0.55 0.0 0 0 128.21 201.55
  L 128.15 205.20
  A 0.55 0.55 0.0 0 0 128.70 205.76
  L 241.69 205.75
  A 0.55 0.55 0.0 0 0 242.24 205.20
  L 242.26 157.53
  A 0.55 0.55 0.0 0 0 241.73 156.98
  L 237.10 156.81
  A 0.55 0.55 0.0 0 0 236.56 157.18
  L 221.63 200.17
  A 0.55 0.55 0.0 0 1 221.11 200.54
  L 166.60 200.54
  A 0.55 0.55 0.0 0 1 166.05 199.99
  L 166.04 54.49
  A 0.55 0.55 0.0 0 1 166.50 53.95
  L 183.00 51.13
  A 0.55 0.55 0.0 0 0 183.46 50.59
  L 183.48 47.06
  A 0.55 0.55 0.0 0 0 182.93 46.51
  L 128.72 46.51
  A 0.55 0.55 0.0 0 0 128.17 47.08
  L 128.28 50.69
  A 0.55 0.55 0.0 0 0 128.73 51.22
  L 144.52 53.89
  A 0.55 0.55 0.0 0 1 144.98 54.43
  L 144.98 197.84
  Z
  M 451.41 200.52
  A 0.66 0.66 0.0 0 1 450.75 199.86
  L 450.75 54.58
  A 0.66 0.66 0.0 0 1 451.30 53.93
  L 467.44 51.21
  A 0.66 0.66 0.0 0 0 467.99 50.57
  L 468.02 47.16
  A 0.66 0.66 0.0 0 0 467.36 46.50
  L 413.32 46.51
  A 0.66 0.66 0.0 0 0 412.66 47.18
  L 412.74 50.54
  A 0.66 0.66 0.0 0 0 413.29 51.17
  L 429.24 53.92
  A 0.66 0.66 0.0 0 1 429.79 54.57
  L 429.82 197.76
  A 0.66 0.66 0.0 0 1 429.27 198.41
  L 413.22 201.04
  A 0.66 0.66 0.0 0 0 412.67 201.69
  L 412.67 205.09
  A 0.66 0.66 0.0 0 0 413.33 205.75
  L 526.09 205.75
  A 0.66 0.66 0.0 0 0 526.75 205.09
  L 526.79 157.56
  A 0.66 0.66 0.0 0 0 526.13 156.90
  L 521.87 156.87
  A 0.66 0.66 0.0 0 0 521.25 157.32
  L 506.37 200.12
  A 0.66 0.66 0.0 0 1 505.75 200.56
  L 451.41 200.52
  Z
  M 575.80 54.51
  A 0.55 0.55 0.0 0 1 576.26 53.97
  L 592.82 51.13
  A 0.55 0.55 0.0 0 0 593.28 50.59
  L 593.28 47.06
  A 0.55 0.55 0.0 0 0 592.73 46.51
  L 538.58 46.51
  A 0.55 0.55 0.0 0 0 538.03 47.08
  L 538.13 50.66
  A 0.55 0.55 0.0 0 0 538.58 51.19
  L 554.42 53.89
  A 0.55 0.55 0.0 0 1 554.88 54.43
  L 554.88 197.85
  A 0.55 0.55 0.0 0 1 554.42 198.39
  L 538.53 201.07
  A 0.55 0.55 0.0 0 0 538.07 201.60
  L 537.99 205.19
  A 0.55 0.55 0.0 0 0 538.54 205.75
  L 651.68 205.75
  A 0.55 0.55 0.0 0 0 652.23 205.20
  L 652.23 157.54
  A 0.55 0.55 0.0 0 0 651.68 156.99
  L 647.01 156.96
  A 0.55 0.55 0.0 0 0 646.49 157.33
  L 631.59 200.14
  A 0.55 0.55 0.0 0 1 631.07 200.51
  L 576.36 200.56
  A 0.55 0.55 0.0 0 1 575.81 200.01
  L 575.80 54.51
  Z
  M 679.75 53.92
  A 0.64 0.64 0.0 0 1 680.28 54.55
  L 680.27 197.79
  A 0.64 0.64 0.0 0 1 679.73 198.42
  L 663.76 201.05
  A 0.64 0.64 0.0 0 0 663.22 201.67
  L 663.17 205.10
  A 0.64 0.64 0.0 0 0 663.81 205.75
  L 717.94 205.75
  A 0.64 0.64 0.0 0 0 718.58 205.11
  L 718.56 201.73
  A 0.64 0.64 0.0 0 0 718.03 201.10
  L 701.84 198.36
  A 0.64 0.64 0.0 0 1 701.31 197.73
  L 701.27 54.52
  A 0.64 0.64 0.0 0 1 701.80 53.89
  L 717.98 51.17
  A 0.64 0.64 0.0 0 0 718.52 50.55
  L 718.57 47.16
  A 0.64 0.64 0.0 0 0 717.93 46.51
  L 663.88 46.51
  A 0.64 0.64 0.0 0 0 663.24 47.15
  L 663.27 50.53
  A 0.64 0.64 0.0 0 0 663.80 51.16
  L 679.75 53.92
  Z
  M 252.88 272.03
  A 0.33 0.33 0.0 0 1 253.19 271.82
  L 271.66 271.78
  A 0.33 0.33 0.0 0 1 271.97 271.99
  L 275.89 282.38
  A 0.33 0.33 0.0 0 0 276.20 282.59
  L 286.05 282.60
  A 0.33 0.33 0.0 0 0 286.36 282.15
  L 267.24 234.47
  A 0.33 0.33 0.0 0 0 266.94 234.26
  L 258.18 234.26
  A 0.33 0.33 0.0 0 0 257.88 234.47
  L 238.76 282.17
  A 0.33 0.33 0.0 0 0 239.07 282.62
  L 248.69 282.51
  A 0.33 0.33 0.0 0 0 249.00 282.30
  L 252.88 272.03
  Z
  M 554.92 282.53
  A 0.50 0.50 0.0 0 0 555.38 282.21
  L 559.20 272.12
  A 0.50 0.50 0.0 0 1 559.66 271.80
  L 577.92 271.77
  A 0.50 0.50 0.0 0 1 578.39 272.09
  L 582.23 282.29
  A 0.50 0.50 0.0 0 0 582.70 282.62
  L 592.17 282.57
  A 0.50 0.50 0.0 0 0 592.64 281.89
  L 573.66 234.57
  A 0.50 0.50 0.0 0 0 573.19 234.26
  L 564.62 234.28
  A 0.50 0.50 0.0 0 0 564.15 234.59
  L 545.18 281.90
  A 0.50 0.50 0.0 0 0 545.64 282.59
  L 554.92 282.53
  Z
  M 165.24 257.78
  A 0.35 0.35 0.0 0 1 165.19 257.15
  C 173.26 252.19 171.99 240.20 163.84 236.22
  Q 160.41 234.54 153.51 234.63
  Q 144.18 234.75 135.17 234.60
  Q 134.72 234.59 134.72 235.04
  L 134.71 282.22
  Q 134.71 282.56 135.05 282.56
  Q 146.67 282.56 157.76 282.51
  C 166.70 282.47 173.62 277.62 172.95 267.80
  Q 172.45 260.65 165.24 257.78
  Z
  M 200.25 263.64
  A 0.45 0.45 0.0 0 1 200.70 263.19
  L 221.03 263.23
  A 0.45 0.45 0.0 0 0 221.48 262.78
  L 221.49 254.10
  A 0.45 0.45 0.0 0 0 221.04 253.65
  L 200.68 253.70
  A 0.45 0.45 0.0 0 1 200.23 253.25
  L 200.25 244.49
  A 0.45 0.45 0.0 0 1 200.70 244.04
  L 223.91 244.18
  A 0.45 0.45 0.0 0 0 224.36 243.73
  L 224.38 235.08
  A 0.45 0.45 0.0 0 0 223.93 234.63
  L 190.71 234.66
  A 0.45 0.45 0.0 0 0 190.26 235.11
  L 190.24 282.13
  A 0.45 0.45 0.0 0 0 190.69 282.58
  L 224.23 282.54
  A 0.45 0.45 0.0 0 0 224.68 282.09
  L 224.64 273.56
  A 0.45 0.45 0.0 0 0 224.19 273.11
  L 200.71 273.21
  A 0.45 0.45 0.0 0 1 200.26 272.76
  L 200.25 263.64
  Z
  M 320.28 273.47
  C 313.60 273.74 310.27 268.86 310.25 262.81
  Q 310.19 249.03 310.19 235.16
  Q 310.19 234.60 309.62 234.60
  L 300.78 234.61
  Q 300.23 234.61 300.23 235.16
  Q 300.11 251.72 300.21 264.01
  C 300.33 278.90 312.28 285.67 325.78 282.58
  C 335.47 280.36 339.48 271.63 339.48 262.35
  Q 339.48 249.11 339.48 235.29
  Q 339.48 234.55 338.74 234.55
  L 330.07 234.56
  A 0.63 0.63 0.0 0 0 329.44 235.19
  Q 329.47 248.70 329.43 262.28
  C 329.41 268.12 326.84 273.20 320.28 273.47
  Z
  M 379.10 244.85
  A 0.36 0.36 0.0 0 1 379.46 244.49
  L 392.41 244.49
  A 0.36 0.36 0.0 0 0 392.77 244.13
  L 392.75 234.98
  A 0.36 0.36 0.0 0 0 392.39 234.62
  L 355.79 234.66
  A 0.36 0.36 0.0 0 0 355.43 235.02
  L 355.43 244.13
  A 0.36 0.36 0.0 0 0 355.79 244.49
  L 368.89 244.48
  A 0.36 0.36 0.0 0 1 369.25 244.84
  L 369.14 282.29
  A 0.36 0.36 0.0 0 0 369.50 282.65
  L 378.83 282.58
  A 0.36 0.36 0.0 0 0 379.19 282.22
  L 379.10 244.85
  Z
  M 427.55 253.30
  A 0.42 0.42 0.0 0 1 426.81 253.30
  L 416.64 234.80
  A 0.42 0.42 0.0 0 0 416.27 234.58
  L 405.46 234.65
  A 0.42 0.42 0.0 0 0 405.10 235.28
  L 422.21 263.69
  A 0.42 0.42 0.0 0 1 422.27 263.91
  L 422.15 282.22
  A 0.42 0.42 0.0 0 0 422.58 282.64
  L 431.77 282.52
  A 0.42 0.42 0.0 0 0 432.18 282.10
  L 432.16 263.40
  A 0.42 0.42 0.0 0 1 432.22 263.18
  L 449.24 235.15
  A 0.42 0.42 0.0 0 0 448.88 234.51
  L 438.27 234.54
  A 0.42 0.42 0.0 0 0 437.90 234.75
  L 427.55 253.30
  Z
  M 493.44 282.57
  A 0.32 0.32 0.0 0 0 493.76 282.25
  L 493.70 252.72
  A 0.32 0.32 0.0 0 1 494.29 252.56
  L 506.08 271.69
  A 0.32 0.32 0.0 0 0 506.62 271.69
  L 518.59 252.20
  A 0.32 0.32 0.0 0 1 519.19 252.37
  L 519.06 282.27
  A 0.32 0.32 0.0 0 0 519.38 282.59
  L 528.69 282.51
  A 0.32 0.32 0.0 0 0 529.01 282.19
  L 528.99 234.89
  A 0.32 0.32 0.0 0 0 528.67 234.57
  L 518.42 234.61
  A 0.32 0.32 0.0 0 0 518.15 234.77
  L 506.75 254.37
  A 0.32 0.32 0.0 0 1 506.19 254.37
  L 494.81 234.76
  A 0.32 0.32 0.0 0 0 494.54 234.60
  L 484.20 234.63
  A 0.32 0.32 0.0 0 0 483.88 234.95
  L 483.86 282.32
  A 0.32 0.32 0.0 0 0 484.18 282.64
  L 493.44 282.57
  Z
  M 619.48 254.70
  A 0.40 0.40 0.0 0 1 618.77 254.44
  L 618.84 235.01
  A 0.40 0.40 0.0 0 0 618.44 234.61
  L 609.20 234.59
  A 0.40 0.40 0.0 0 0 608.80 234.99
  L 608.78 282.21
  A 0.40 0.40 0.0 0 0 609.19 282.61
  L 618.42 282.50
  A 0.40 0.40 0.0 0 0 618.82 282.09
  L 618.74 268.25
  A 0.40 0.40 0.0 0 1 618.84 267.99
  L 623.62 262.56
  A 0.40 0.40 0.0 0 1 624.25 262.60
  L 637.80 282.46
  A 0.40 0.40 0.0 0 0 638.13 282.64
  L 649.32 282.60
  A 0.40 0.40 0.0 0 0 649.65 281.97
  L 630.93 255.25
  A 0.40 0.40 0.0 0 1 630.97 254.75
  L 648.77 235.18
  A 0.40 0.40 0.0 0 0 648.47 234.51
  L 637.17 234.56
  A 0.40 0.40 0.0 0 0 636.87 234.70
  L 619.48 254.70
  Z
  M 674.78 263.60
  A 0.39 0.39 0.0 0 1 675.17 263.21
  L 695.78 263.24
  A 0.39 0.39 0.0 0 0 696.17 262.85
  L 696.21 254.05
  A 0.39 0.39 0.0 0 0 695.82 253.66
  L 675.25 253.70
  A 0.39 0.39 0.0 0 1 674.86 253.31
  L 674.83 244.51
  A 0.39 0.39 0.0 0 1 675.22 244.12
  L 698.62 244.12
  A 0.39 0.39 0.0 0 0 699.01 243.73
  L 699.00 235.03
  A 0.39 0.39 0.0 0 0 698.61 234.64
  L 665.34 234.63
  A 0.39 0.39 0.0 0 0 664.95 235.02
  L 664.94 282.20
  A 0.39 0.39 0.0 0 0 665.33 282.59
  L 699.01 282.51
  A 0.39 0.39 0.0 0 0 699.40 282.12
  L 699.31 273.47
  A 0.39 0.39 0.0 0 0 698.92 273.08
  L 675.28 273.17
  A 0.39 0.39 0.0 0 1 674.89 272.78
  L 674.78 263.60
  Z
  M 764.95 262.91
  C 764.80 277.42 745.84 276.96 745.77 262.65
  Q 745.71 249.50 745.76 235.25
  A 0.65 0.64 90.0 0 0 745.12 234.60
  L 736.29 234.59
  Q 735.73 234.59 735.73 235.15
  Q 735.73 247.87 735.72 261.96
  C 735.71 271.17 739.07 279.91 748.82 282.50
  C 755.38 284.25 763.63 283.42 768.86 278.74
  C 773.19 274.87 774.95 268.60 775.01 262.94
  Q 775.15 249.47 775.06 235.35
  Q 775.05 234.63 774.33 234.63
  L 765.67 234.61
  Q 764.96 234.61 764.97 235.32
  Q 765.09 248.99 764.95 262.91
  Z
  M 804.93 268.15
  C 812.31 268.35 819.49 268.55 824.81 263.77
  Q 829.52 259.53 829.82 252.65
  C 830.36 239.99 822.28 234.35 810.85 234.61
  Q 802.72 234.80 794.95 234.52
  A 0.67 0.67 0.0 0 0 794.26 235.19
  L 794.24 282.17
  A 0.43 0.42 0.7 0 0 794.67 282.60
  L 803.77 282.51
  A 0.53 0.53 0.0 0 0 804.29 281.98
  L 804.24 268.82
  Q 804.24 268.14 804.93 268.15
  Z"
/>
<path fill="#262022" d="
  M 857.0437 74.2799
  A 16.13 15.18 90.2 0 1 841.9201 58.0970
  A 16.13 15.18 90.2 0 1 857.1563 42.0201
  A 16.13 15.18 90.2 0 1 872.2799 58.2030
  A 16.13 15.18 90.2 0 1 857.0437 74.2799
  Z
  M 857.3474 71.5587
  A 13.42 12.62 89.2 0 0 869.7788 57.9638
  A 13.42 12.62 89.2 0 0 856.9726 44.7213
  A 13.42 12.62 89.2 0 0 844.5412 58.3162
  A 13.42 12.62 89.2 0 0 857.3474 71.5587
  Z"
/>
<path fill="#262022" d="
  M 737.26 207.57
  A 0.39 0.31 6.5 0 1 736.94 207.25
  L 736.90 157.16
  Q 736.90 156.63 737.40 156.45
  Q 740.80 155.21 742.13 158.30
  Q 749.80 176.21 756.82 192.14
  A 4.39 4.38 -84.3 0 0 758.30 193.95
  Q 778.63 208.35 803.08 203.51
  C 815.12 201.13 825.68 193.23 828.87 181.12
  Q 831.79 170.01 828.87 159.97
  C 825.74 149.25 814.90 143.68 804.87 140.83
  Q 791.05 136.89 776.05 133.01
  Q 763.78 129.83 757.47 126.13
  C 743.57 117.97 736.77 103.73 737.23 87.50
  C 737.95 61.69 753.50 41.78 781.28 42.39
  Q 798.93 42.78 811.15 48.56
  Q 811.68 48.81 812.22 48.56
  Q 817.66 45.96 823.44 43.14
  C 825.11 42.33 826.98 42.10 828.78 42.29
  A 0.70 0.70 0.0 0 1 829.41 42.99
  L 829.42 82.89
  Q 829.42 83.69 828.61 83.69
  L 826.04 83.71
  Q 825.22 83.72 824.88 82.97
  L 812.29 55.51
  A 2.87 2.84 0.8 0 0 810.91 54.11
  C 793.33 45.92 766.02 42.58 752.58 60.03
  Q 743.69 71.56 748.17 87.58
  C 750.85 97.15 761.99 102.48 771.16 105.08
  Q 791.56 110.87 809.86 116.24
  C 827.83 121.52 836.10 134.00 837.98 151.72
  C 839.65 167.41 838.13 184.54 826.38 196.42
  Q 814.48 208.44 798.04 209.66
  Q 775.64 211.32 757.51 199.42
  A 1.24 1.23 -42.0 0 0 756.27 199.36
  Q 749.23 203.07 742.56 206.93
  Q 740.37 208.19 737.26 207.57
  Z"
/>
<path fill="#262022" d="
  M 324.79 42.44
  C 363.58 41.53 389.60 70.98 395.34 107.53
  C 399.49 133.92 395.20 163.20 378.89 184.05
  C 366.27 200.18 350.34 208.85 330.45 209.79
  Q 317.41 210.41 306.62 207.24
  C 279.42 199.26 262.17 173.70 257.48 146.54
  Q 254.37 128.57 256.76 110.00
  C 261.46 73.52 286.68 43.32 324.79 42.44
  Z
  M 372.23 97.57
  C 369.24 67.67 347.74 40.57 314.53 49.10
  C 296.15 53.82 284.31 72.93 280.81 90.51
  Q 278.93 99.99 278.82 108.63
  Q 278.57 127.66 278.89 144.71
  C 279.19 160.88 283.16 176.97 293.42 189.21
  Q 308.47 207.16 332.44 204.28
  C 356.52 201.39 370.10 177.55 372.28 155.23
  C 372.74 150.52 373.24 145.66 373.25 140.92
  Q 373.27 127.09 373.23 112.86
  C 373.22 107.76 372.73 102.65 372.23 97.57
  Z"
/>
<path fill="#ffffff" d="
  M 857.3474 71.5587
  A 13.42 12.62 89.2 0 1 844.5412 58.3162
  A 13.42 12.62 89.2 0 1 856.9726 44.7213
  A 13.42 12.62 89.2 0 1 869.7788 57.9638
  A 13.42 12.62 89.2 0 1 857.3474 71.5587
  Z
  M 859.59 59.07
  C 864.51 57.97 864.31 50.35 858.93 49.84
  Q 855.03 49.46 850.85 49.54
  A 0.50 0.50 0.0 0 0 850.36 50.04
  L 850.43 66.21
  A 1.02 1.02 0.0 0 0 851.46 67.23
  L 852.04 67.23
  Q 853.30 67.22 853.27 65.96
  L 853.14 60.43
  Q 853.12 59.81 853.73 59.71
  C 857.23 59.15 858.97 63.20 860.19 65.73
  A 2.54 2.52 79.4 0 0 862.25 67.15
  L 863.17 67.23
  Q 864.32 67.33 863.79 66.30
  Q 861.86 62.61 859.36 59.75
  Q 858.90 59.22 859.59 59.07
  Z"
/>
<path fill="#262022" d="
  M 144.98 197.84
  L 144.98 54.43
  A 0.55 0.55 0.0 0 0 144.52 53.89
  L 128.73 51.22
  A 0.55 0.55 0.0 0 1 128.28 50.69
  L 128.17 47.08
  A 0.55 0.55 0.0 0 1 128.72 46.51
  L 182.93 46.51
  A 0.55 0.55 0.0 0 1 183.48 47.06
  L 183.46 50.59
  A 0.55 0.55 0.0 0 1 183.00 51.13
  L 166.50 53.95
  A 0.55 0.55 0.0 0 0 166.04 54.49
  L 166.05 199.99
  A 0.55 0.55 0.0 0 0 166.60 200.54
  L 221.11 200.54
  A 0.55 0.55 0.0 0 0 221.63 200.17
  L 236.56 157.18
  A 0.55 0.55 0.0 0 1 237.10 156.81
  L 241.73 156.98
  A 0.55 0.55 0.0 0 1 242.26 157.53
  L 242.24 205.20
  A 0.55 0.55 0.0 0 1 241.69 205.75
  L 128.70 205.76
  A 0.55 0.55 0.0 0 1 128.15 205.20
  L 128.21 201.55
  A 0.55 0.55 0.0 0 1 128.67 201.02
  L 144.52 198.39
  A 0.55 0.55 0.0 0 0 144.98 197.84
  Z"
/>
<path fill="#262022" d="
  M 451.41 200.52
  L 505.75 200.56
  A 0.66 0.66 0.0 0 0 506.37 200.12
  L 521.25 157.32
  A 0.66 0.66 0.0 0 1 521.87 156.87
  L 526.13 156.90
  A 0.66 0.66 0.0 0 1 526.79 157.56
  L 526.75 205.09
  A 0.66 0.66 0.0 0 1 526.09 205.75
  L 413.33 205.75
  A 0.66 0.66 0.0 0 1 412.67 205.09
  L 412.67 201.69
  A 0.66 0.66 0.0 0 1 413.22 201.04
  L 429.27 198.41
  A 0.66 0.66 0.0 0 0 429.82 197.76
  L 429.79 54.57
  A 0.66 0.66 0.0 0 0 429.24 53.92
  L 413.29 51.17
  A 0.66 0.66 0.0 0 1 412.74 50.54
  L 412.66 47.18
  A 0.66 0.66 0.0 0 1 413.32 46.51
  L 467.36 46.50
  A 0.66 0.66 0.0 0 1 468.02 47.16
  L 467.99 50.57
  A 0.66 0.66 0.0 0 1 467.44 51.21
  L 451.30 53.93
  A 0.66 0.66 0.0 0 0 450.75 54.58
  L 450.75 199.86
  A 0.66 0.66 0.0 0 0 451.41 200.52
  Z"
/>
<path fill="#262022" d="
  M 575.80 54.51
  L 575.81 200.01
  A 0.55 0.55 0.0 0 0 576.36 200.56
  L 631.07 200.51
  A 0.55 0.55 0.0 0 0 631.59 200.14
  L 646.49 157.33
  A 0.55 0.55 0.0 0 1 647.01 156.96
  L 651.68 156.99
  A 0.55 0.55 0.0 0 1 652.23 157.54
  L 652.23 205.20
  A 0.55 0.55 0.0 0 1 651.68 205.75
  L 538.54 205.75
  A 0.55 0.55 0.0 0 1 537.99 205.19
  L 538.07 201.60
  A 0.55 0.55 0.0 0 1 538.53 201.07
  L 554.42 198.39
  A 0.55 0.55 0.0 0 0 554.88 197.85
  L 554.88 54.43
  A 0.55 0.55 0.0 0 0 554.42 53.89
  L 538.58 51.19
  A 0.55 0.55 0.0 0 1 538.13 50.66
  L 538.03 47.08
  A 0.55 0.55 0.0 0 1 538.58 46.51
  L 592.73 46.51
  A 0.55 0.55 0.0 0 1 593.28 47.06
  L 593.28 50.59
  A 0.55 0.55 0.0 0 1 592.82 51.13
  L 576.26 53.97
  A 0.55 0.55 0.0 0 0 575.80 54.51
  Z"
/>
<path fill="#262022" d="
  M 679.75 53.92
  L 663.80 51.16
  A 0.64 0.64 0.0 0 1 663.27 50.53
  L 663.24 47.15
  A 0.64 0.64 0.0 0 1 663.88 46.51
  L 717.93 46.51
  A 0.64 0.64 0.0 0 1 718.57 47.16
  L 718.52 50.55
  A 0.64 0.64 0.0 0 1 717.98 51.17
  L 701.80 53.89
  A 0.64 0.64 0.0 0 0 701.27 54.52
  L 701.31 197.73
  A 0.64 0.64 0.0 0 0 701.84 198.36
  L 718.03 201.10
  A 0.64 0.64 0.0 0 1 718.56 201.73
  L 718.58 205.11
  A 0.64 0.64 0.0 0 1 717.94 205.75
  L 663.81 205.75
  A 0.64 0.64 0.0 0 1 663.17 205.10
  L 663.22 201.67
  A 0.64 0.64 0.0 0 1 663.76 201.05
  L 679.73 198.42
  A 0.64 0.64 0.0 0 0 680.27 197.79
  L 680.28 54.55
  A 0.64 0.64 0.0 0 0 679.75 53.92
  Z"
/>
<path fill="#ffffff" d="
  M 314.53 49.10
  C 347.74 40.57 369.24 67.67 372.23 97.57
  C 372.73 102.65 373.22 107.76 373.23 112.86
  Q 373.27 127.09 373.25 140.92
  C 373.24 145.66 372.74 150.52 372.28 155.23
  C 370.10 177.55 356.52 201.39 332.44 204.28
  Q 308.47 207.16 293.42 189.21
  C 283.16 176.97 279.19 160.88 278.89 144.71
  Q 278.57 127.66 278.82 108.63
  Q 278.93 99.99 280.81 90.51
  C 284.31 72.93 296.15 53.82 314.53 49.10
  Z"
/>
<path fill="#262022" d="
  M 859.36 59.75
  Q 861.86 62.61 863.79 66.30
  Q 864.32 67.33 863.17 67.23
  L 862.25 67.15
  A 2.54 2.52 79.4 0 1 860.19 65.73
  C 858.97 63.20 857.23 59.15 853.73 59.71
  Q 853.12 59.81 853.14 60.43
  L 853.27 65.96
  Q 853.30 67.22 852.04 67.23
  L 851.46 67.23
  A 1.02 1.02 0.0 0 1 850.43 66.21
  L 850.36 50.04
  A 0.50 0.50 0.0 0 1 850.85 49.54
  Q 855.03 49.46 858.93 49.84
  C 864.31 50.35 864.51 57.97 859.59 59.07
  Q 858.90 59.22 859.36 59.75
  Z
  M 853.19 52.63
  L 853.19 56.81
  A 0.47 0.47 0.0 0 0 853.66 57.28
  L 856.92 57.29
  A 3.33 2.37 0.1 0 0 860.25 54.93
  L 860.25 54.55
  A 3.33 2.37 0.1 0 0 856.92 52.17
  L 853.66 52.16
  A 0.47 0.47 0.0 0 0 853.19 52.63
  Z"
/>
<path fill="#ffffff" d="
  M 853.19 52.63
  A 0.47 0.47 0.0 0 1 853.66 52.16
  L 856.92 52.17
  A 3.33 2.37 0.1 0 1 860.25 54.55
  L 860.25 54.93
  A 3.33 2.37 0.1 0 1 856.92 57.29
  L 853.66 57.28
  A 0.47 0.47 0.0 0 1 853.19 56.81
  L 853.19 52.63
  Z"
/>
<path fill="#262022" d="
  M 252.88 272.03
  L 249.00 282.30
  A 0.33 0.33 0.0 0 1 248.69 282.51
  L 239.07 282.62
  A 0.33 0.33 0.0 0 1 238.76 282.17
  L 257.88 234.47
  A 0.33 0.33 0.0 0 1 258.18 234.26
  L 266.94 234.26
  A 0.33 0.33 0.0 0 1 267.24 234.47
  L 286.36 282.15
  A 0.33 0.33 0.0 0 1 286.05 282.60
  L 276.20 282.59
  A 0.33 0.33 0.0 0 1 275.89 282.38
  L 271.97 271.99
  A 0.33 0.33 0.0 0 0 271.66 271.78
  L 253.19 271.82
  A 0.33 0.33 0.0 0 0 252.88 272.03
  Z
  M 256.69 261.99
  A 0.33 0.33 0.0 0 0 257.00 262.44
  L 267.86 262.44
  A 0.33 0.33 0.0 0 0 268.17 261.99
  L 262.74 247.97
  A 0.33 0.33 0.0 0 0 262.12 247.97
  L 256.69 261.99
  Z"
/>
<path fill="#262022" d="
  M 554.92 282.53
  L 545.64 282.59
  A 0.50 0.50 0.0 0 1 545.18 281.90
  L 564.15 234.59
  A 0.50 0.50 0.0 0 1 564.62 234.28
  L 573.19 234.26
  A 0.50 0.50 0.0 0 1 573.66 234.57
  L 592.64 281.89
  A 0.50 0.50 0.0 0 1 592.17 282.57
  L 582.70 282.62
  A 0.50 0.50 0.0 0 1 582.23 282.29
  L 578.39 272.09
  A 0.50 0.50 0.0 0 0 577.92 271.77
  L 559.66 271.80
  A 0.50 0.50 0.0 0 0 559.20 272.12
  L 555.38 282.21
  A 0.50 0.50 0.0 0 1 554.92 282.53
  Z
  M 563.08 261.99
  A 0.33 0.33 0.0 0 0 563.39 262.44
  L 574.20 262.46
  A 0.33 0.33 0.0 0 0 574.50 262.01
  L 569.12 247.97
  A 0.33 0.33 0.0 0 0 568.51 247.97
  L 563.08 261.99
  Z"
/>
<path fill="#262022" d="
  M 165.24 257.78
  Q 172.45 260.65 172.95 267.80
  C 173.62 277.62 166.70 282.47 157.76 282.51
  Q 146.67 282.56 135.05 282.56
  Q 134.71 282.56 134.71 282.22
  L 134.72 235.04
  Q 134.72 234.59 135.17 234.60
  Q 144.18 234.75 153.51 234.63
  Q 160.41 234.54 163.84 236.22
  C 171.99 240.20 173.26 252.19 165.19 257.15
  A 0.35 0.35 0.0 0 0 165.24 257.78
  Z
  M 144.48 244.24
  L 144.46 253.60
  A 0.33 0.33 0.0 0 0 144.79 253.93
  L 154.49 253.94
  A 6.13 4.77 0.1 0 0 160.63 249.18
  L 160.63 248.70
  A 6.13 4.77 0.1 0 0 154.51 243.92
  L 144.81 243.91
  A 0.33 0.33 0.0 0 0 144.48 244.24
  Z
  M 144.48 263.21
  L 144.48 272.81
  A 0.43 0.43 0.0 0 0 144.91 273.24
  L 156.72 273.24
  A 6.42 4.84 -0.0 0 0 163.14 268.40
  L 163.14 267.62
  A 6.42 4.84 0.0 0 0 156.72 262.78
  L 144.91 262.78
  A 0.43 0.43 0.0 0 0 144.48 263.21
  Z"
/>
<path fill="#262022" d="
  M 200.25 263.64
  L 200.26 272.76
  A 0.45 0.45 0.0 0 0 200.71 273.21
  L 224.19 273.11
  A 0.45 0.45 0.0 0 1 224.64 273.56
  L 224.68 282.09
  A 0.45 0.45 0.0 0 1 224.23 282.54
  L 190.69 282.58
  A 0.45 0.45 0.0 0 1 190.24 282.13
  L 190.26 235.11
  A 0.45 0.45 0.0 0 1 190.71 234.66
  L 223.93 234.63
  A 0.45 0.45 0.0 0 1 224.38 235.08
  L 224.36 243.73
  A 0.45 0.45 0.0 0 1 223.91 244.18
  L 200.70 244.04
  A 0.45 0.45 0.0 0 0 200.25 244.49
  L 200.23 253.25
  A 0.45 0.45 0.0 0 0 200.68 253.70
  L 221.04 253.65
  A 0.45 0.45 0.0 0 1 221.49 254.10
  L 221.48 262.78
  A 0.45 0.45 0.0 0 1 221.03 263.23
  L 200.70 263.19
  A 0.45 0.45 0.0 0 0 200.25 263.64
  Z"
/>
<path fill="#262022" d="
  M 310.25 262.81
  C 310.27 268.86 313.60 273.74 320.28 273.47
  C 326.84 273.20 329.41 268.12 329.43 262.28
  Q 329.47 248.70 329.44 235.19
  A 0.63 0.63 0.0 0 1 330.07 234.56
  L 338.74 234.55
  Q 339.48 234.55 339.48 235.29
  Q 339.48 249.11 339.48 262.35
  C 339.48 271.63 335.47 280.36 325.78 282.58
  C 312.28 285.67 300.33 278.90 300.21 264.01
  Q 300.11 251.72 300.23 235.16
  Q 300.23 234.61 300.78 234.61
  L 309.62 234.60
  Q 310.19 234.60 310.19 235.16
  Q 310.19 249.03 310.25 262.81
  Z"
/>
<path fill="#262022" d="
  M 379.10 244.85
  L 379.19 282.22
  A 0.36 0.36 0.0 0 1 378.83 282.58
  L 369.50 282.65
  A 0.36 0.36 0.0 0 1 369.14 282.29
  L 369.25 244.84
  A 0.36 0.36 0.0 0 0 368.89 244.48
  L 355.79 244.49
  A 0.36 0.36 0.0 0 1 355.43 244.13
  L 355.43 235.02
  A 0.36 0.36 0.0 0 1 355.79 234.66
  L 392.39 234.62
  A 0.36 0.36 0.0 0 1 392.75 234.98
  L 392.77 244.13
  A 0.36 0.36 0.0 0 1 392.41 244.49
  L 379.46 244.49
  A 0.36 0.36 0.0 0 0 379.10 244.85
  Z"
/>
<path fill="#262022" d="
  M 427.55 253.30
  L 437.90 234.75
  A 0.42 0.42 0.0 0 1 438.27 234.54
  L 448.88 234.51
  A 0.42 0.42 0.0 0 1 449.24 235.15
  L 432.22 263.18
  A 0.42 0.42 0.0 0 0 432.16 263.40
  L 432.18 282.10
  A 0.42 0.42 0.0 0 1 431.77 282.52
  L 422.58 282.64
  A 0.42 0.42 0.0 0 1 422.15 282.22
  L 422.27 263.91
  A 0.42 0.42 0.0 0 0 422.21 263.69
  L 405.10 235.28
  A 0.42 0.42 0.0 0 1 405.46 234.65
  L 416.27 234.58
  A 0.42 0.42 0.0 0 1 416.64 234.80
  L 426.81 253.30
  A 0.42 0.42 0.0 0 0 427.55 253.30
  Z"
/>
<path fill="#262022" d="
  M 493.44 282.57
  L 484.18 282.64
  A 0.32 0.32 0.0 0 1 483.86 282.32
  L 483.88 234.95
  A 0.32 0.32 0.0 0 1 484.20 234.63
  L 494.54 234.60
  A 0.32 0.32 0.0 0 1 494.81 234.76
  L 506.19 254.37
  A 0.32 0.32 0.0 0 0 506.75 254.37
  L 518.15 234.77
  A 0.32 0.32 0.0 0 1 518.42 234.61
  L 528.67 234.57
  A 0.32 0.32 0.0 0 1 528.99 234.89
  L 529.01 282.19
  A 0.32 0.32 0.0 0 1 528.69 282.51
  L 519.38 282.59
  A 0.32 0.32 0.0 0 1 519.06 282.27
  L 519.19 252.37
  A 0.32 0.32 0.0 0 0 518.59 252.20
  L 506.62 271.69
  A 0.32 0.32 0.0 0 1 506.08 271.69
  L 494.29 252.56
  A 0.32 0.32 0.0 0 0 493.70 252.72
  L 493.76 282.25
  A 0.32 0.32 0.0 0 1 493.44 282.57
  Z"
/>
<path fill="#262022" d="
  M 619.48 254.70
  L 636.87 234.70
  A 0.40 0.40 0.0 0 1 637.17 234.56
  L 648.47 234.51
  A 0.40 0.40 0.0 0 1 648.77 235.18
  L 630.97 254.75
  A 0.40 0.40 0.0 0 0 630.93 255.25
  L 649.65 281.97
  A 0.40 0.40 0.0 0 1 649.32 282.60
  L 638.13 282.64
  A 0.40 0.40 0.0 0 1 637.80 282.46
  L 624.25 262.60
  A 0.40 0.40 0.0 0 0 623.62 262.56
  L 618.84 267.99
  A 0.40 0.40 0.0 0 0 618.74 268.25
  L 618.82 282.09
  A 0.40 0.40 0.0 0 1 618.42 282.50
  L 609.19 282.61
  A 0.40 0.40 0.0 0 1 608.78 282.21
  L 608.80 234.99
  A 0.40 0.40 0.0 0 1 609.20 234.59
  L 618.44 234.61
  A 0.40 0.40 0.0 0 1 618.84 235.01
  L 618.77 254.44
  A 0.40 0.40 0.0 0 0 619.48 254.70
  Z"
/>
<path fill="#262022" d="
  M 674.78 263.60
  L 674.89 272.78
  A 0.39 0.39 0.0 0 0 675.28 273.17
  L 698.92 273.08
  A 0.39 0.39 0.0 0 1 699.31 273.47
  L 699.40 282.12
  A 0.39 0.39 0.0 0 1 699.01 282.51
  L 665.33 282.59
  A 0.39 0.39 0.0 0 1 664.94 282.20
  L 664.95 235.02
  A 0.39 0.39 0.0 0 1 665.34 234.63
  L 698.61 234.64
  A 0.39 0.39 0.0 0 1 699.00 235.03
  L 699.01 243.73
  A 0.39 0.39 0.0 0 1 698.62 244.12
  L 675.22 244.12
  A 0.39 0.39 0.0 0 0 674.83 244.51
  L 674.86 253.31
  A 0.39 0.39 0.0 0 0 675.25 253.70
  L 695.82 253.66
  A 0.39 0.39 0.0 0 1 696.21 254.05
  L 696.17 262.85
  A 0.39 0.39 0.0 0 1 695.78 263.24
  L 675.17 263.21
  A 0.39 0.39 0.0 0 0 674.78 263.60
  Z"
/>
<path fill="#262022" d="
  M 745.77 262.65
  C 745.84 276.96 764.80 277.42 764.95 262.91
  Q 765.09 248.99 764.97 235.32
  Q 764.96 234.61 765.67 234.61
  L 774.33 234.63
  Q 775.05 234.63 775.06 235.35
  Q 775.15 249.47 775.01 262.94
  C 774.95 268.60 773.19 274.87 768.86 278.74
  C 763.63 283.42 755.38 284.25 748.82 282.50
  C 739.07 279.91 735.71 271.17 735.72 261.96
  Q 735.73 247.87 735.73 235.15
  Q 735.73 234.59 736.29 234.59
  L 745.12 234.60
  A 0.65 0.64 -90.0 0 1 745.76 235.25
  Q 745.71 249.50 745.77 262.65
  Z"
/>
<path fill="#262022" d="
  M 804.24 268.82
  L 804.29 281.98
  A 0.53 0.53 0.0 0 1 803.77 282.51
  L 794.67 282.60
  A 0.43 0.42 0.7 0 1 794.24 282.17
  L 794.26 235.19
  A 0.67 0.67 0.0 0 1 794.95 234.52
  Q 802.72 234.80 810.85 234.61
  C 822.28 234.35 830.36 239.99 829.82 252.65
  Q 829.52 259.53 824.81 263.77
  C 819.49 268.55 812.31 268.35 804.93 268.15
  Q 804.24 268.14 804.24 268.82
  Z
  M 804.26 244.71
  L 804.24 258.21
  A 0.49 0.49 0.0 0 0 804.73 258.70
  L 812.46 258.71
  A 7.28 6.80 0.1 0 0 819.75 251.92
  L 819.75 251.04
  A 7.28 6.80 0.1 0 0 812.48 244.23
  L 804.75 244.22
  A 0.49 0.49 0.0 0 0 804.26 244.71
  Z"
/>
<path fill="#ffffff" d="
  M 144.48 244.24
  A 0.33 0.33 0.0 0 1 144.81 243.91
  L 154.51 243.92
  A 6.13 4.77 0.1 0 1 160.63 248.70
  L 160.63 249.18
  A 6.13 4.77 0.1 0 1 154.49 253.94
  L 144.79 253.93
  A 0.33 0.33 0.0 0 1 144.46 253.60
  L 144.48 244.24
  Z"
/>
<path fill="#ffffff" d="
  M 804.26 244.71
  A 0.49 0.49 0.0 0 1 804.75 244.22
  L 812.48 244.23
  A 7.28 6.80 0.1 0 1 819.75 251.04
  L 819.75 251.92
  A 7.28 6.80 0.1 0 1 812.46 258.71
  L 804.73 258.70
  A 0.49 0.49 0.0 0 1 804.24 258.21
  L 804.26 244.71
  Z"
/>
<path fill="#ffffff" d="
  M 256.69 261.99
  L 262.12 247.97
  A 0.33 0.33 0.0 0 1 262.74 247.97
  L 268.17 261.99
  A 0.33 0.33 0.0 0 1 267.86 262.44
  L 257.00 262.44
  A 0.33 0.33 0.0 0 1 256.69 261.99
  Z"
/>
<path fill="#ffffff" d="
  M 563.08 261.99
  L 568.51 247.97
  A 0.33 0.33 0.0 0 1 569.12 247.97
  L 574.50 262.01
  A 0.33 0.33 0.0 0 1 574.20 262.46
  L 563.39 262.44
  A 0.33 0.33 0.0 0 1 563.08 261.99
  Z"
/>
<path fill="#ffffff" d="
  M 144.48 263.21
  A 0.43 0.43 0.0 0 1 144.91 262.78
  L 156.72 262.78
  A 6.42 4.84 0.0 0 1 163.14 267.62
  L 163.14 268.40
  A 6.42 4.84 -0.0 0 1 156.72 273.24
  L 144.91 273.24
  A 0.43 0.43 0.0 0 1 144.48 272.81
  L 144.48 263.21
  Z"
/>
</svg>
