<?xml version="1.0" encoding="UTF-8" standalone="no"?>
<!DOCTYPE svg PUBLIC "-//W3C//DTD SVG 1.1//EN" "http://www.w3.org/Graphics/SVG/1.1/DTD/svg11.dtd">
<svg xmlns="http://www.w3.org/2000/svg" version="1.1" viewBox="0.00 0.00 1000.00 333.00">
<g stroke-width="2.00" fill="none" stroke-linecap="butt">
<path stroke="#808080" vector-effect="non-scaling-stroke" d="
  M 150.66 127.30
  A 0.38 0.38 0.0 0 1 150.28 126.92
  L 150.19 82.52
  A 0.38 0.38 0.0 0 1 150.57 82.14
  L 246.94 82.22
  A 0.38 0.38 0.0 0 0 247.32 81.84
  L 247.33 73.41
  A 0.38 0.38 0.0 0 0 246.95 73.03
  L 128.14 73.03
  A 0.38 0.38 0.0 0 0 127.76 73.41
  L 127.75 196.34
  A 0.38 0.38 0.0 0 0 128.13 196.72
  L 248.49 196.82
  A 0.38 0.38 0.0 0 0 248.87 196.44
  L 248.87 188.10
  A 0.38 0.38 0.0 0 0 248.49 187.72
  L 150.64 187.89
  A 0.38 0.38 0.0 0 1 150.26 187.51
  L 150.26 135.82
  A 0.38 0.38 0.0 0 1 150.64 135.44
  L 241.12 135.45
  A 0.38 0.38 0.0 0 0 241.50 135.07
  L 241.50 127.61
  A 0.38 0.38 0.0 0 0 241.12 127.23
  L 150.66 127.30"
/>
<path stroke="#808080" vector-effect="non-scaling-stroke" d="
  M 324.01 150.58
  A 0.31 0.31 0.0 0 1 323.47 150.58
  L 279.17 73.34
  A 0.31 0.31 0.0 0 0 278.90 73.18
  L 260.55 73.14
  A 0.31 0.31 0.0 0 0 260.28 73.60
  L 312.73 165.86
  A 0.31 0.31 0.0 0 0 313.00 166.02
  L 325.68 165.77
  A 0.31 0.31 0.0 0 0 325.95 165.62
  L 378.20 73.50
  A 0.31 0.31 0.0 0 0 377.93 73.04
  L 368.41 73.14
  A 0.31 0.31 0.0 0 0 368.14 73.29
  L 324.01 150.58"
/>
<path stroke="#808080" vector-effect="non-scaling-stroke" d="
  M 417.13 119.81
  A 0.31 0.31 0.0 0 1 417.44 119.50
  L 465.19 119.58
  A 0.31 0.31 0.0 0 0 465.50 119.27
  L 465.51 114.02
  A 0.31 0.31 0.0 0 0 465.20 113.71
  L 417.44 113.71
  A 0.31 0.31 0.0 0 1 417.13 113.40
  L 417.10 80.45
  A 0.31 0.31 0.0 0 1 417.41 80.14
  L 468.68 80.15
  A 0.31 0.31 0.0 0 0 468.99 79.84
  L 469.02 73.39
  A 0.31 0.31 0.0 0 0 468.71 73.08
  L 401.50 73.21
  A 0.31 0.31 0.0 0 0 401.19 73.52
  L 401.19 165.50
  A 0.31 0.31 0.0 0 0 401.50 165.81
  L 468.70 165.80
  A 0.31 0.31 0.0 0 0 469.01 165.49
  L 469.02 159.51
  A 0.31 0.31 0.0 0 0 468.71 159.20
  L 417.45 159.20
  A 0.31 0.31 0.0 0 1 417.14 158.89
  L 417.13 119.81"
/>
<path stroke="#808080" vector-effect="non-scaling-stroke" d="
  M 515.90 159.19
  A 0.40 0.40 0.0 0 1 515.50 158.79
  L 515.50 73.43
  A 0.40 0.40 0.0 0 0 515.10 73.03
  L 499.92 73.03
  A 0.40 0.40 0.0 0 0 499.52 73.43
  L 499.53 165.41
  A 0.40 0.40 0.0 0 0 499.93 165.81
  L 569.13 165.80
  A 0.40 0.40 0.0 0 0 569.53 165.40
  L 569.56 159.67
  A 0.40 0.40 0.0 0 0 569.16 159.27
  L 515.90 159.19"
/>
<path stroke="#808080" vector-effect="non-scaling-stroke" d="
  M 614.93 73.47
  A 0.44 0.44 0.0 0 0 614.49 73.03
  L 599.25 73.03
  A 0.44 0.44 0.0 0 0 598.81 73.47
  L 598.81 165.37
  A 0.44 0.44 0.0 0 0 599.25 165.81
  L 614.49 165.81
  A 0.44 0.44 0.0 0 0 614.93 165.37
  L 614.93 73.47"
/>
<path stroke="#808080" vector-effect="non-scaling-stroke" d="
  M 664.83 94.95
  Q 664.83 94.55 665.15 94.79
  Q 712.24 129.90 759.70 165.30
  C 760.87 166.17 762.23 165.79 763.60 165.86
  Q 764.25 165.89 764.25 165.23
  L 764.25 73.46
  Q 764.25 73.16 763.96 73.16
  L 754.63 73.14
  A 0.29 0.29 0.0 0 0 754.34 73.43
  L 754.36 142.61
  A 0.18 0.18 0.0 0 1 754.07 142.76
  Q 708.16 108.55 661.87 74.08
  C 659.85 72.57 657.68 72.99 655.34 73.06
  A 0.29 0.28 -1.1 0 0 655.06 73.34
  L 654.86 164.96
  A 0.85 0.85 0.0 0 0 655.71 165.81
  L 664.33 165.80
  Q 664.95 165.80 664.95 165.17
  L 664.83 94.95"
/>
<path stroke="#808080" vector-effect="non-scaling-stroke" d="
  M 819.90 159.21
  A 0.39 0.39 0.0 0 1 819.51 158.82
  L 819.42 120.06
  A 0.39 0.39 0.0 0 1 819.81 119.67
  L 867.60 119.67
  A 0.39 0.39 0.0 0 0 867.99 119.28
  L 867.98 113.95
  A 0.39 0.39 0.0 0 0 867.59 113.56
  L 819.83 113.76
  A 0.39 0.39 0.0 0 1 819.44 113.37
  L 819.44 80.53
  A 0.39 0.39 0.0 0 1 819.83 80.14
  L 871.05 80.16
  A 0.39 0.39 0.0 0 0 871.44 79.77
  L 871.46 73.56
  A 0.39 0.39 0.0 0 0 871.07 73.17
  L 803.87 73.17
  A 0.39 0.39 0.0 0 0 803.48 73.56
  L 803.48 165.60
  A 0.39 0.39 0.0 0 0 803.87 165.99
  L 871.06 165.99
  A 0.39 0.39 0.0 0 0 871.45 165.60
  L 871.47 159.58
  A 0.39 0.39 0.0 0 0 871.08 159.19
  L 819.90 159.21"
/>
<path stroke="#808080" vector-effect="non-scaling-stroke" d="
  M 871.69 188.13
  A 0.30 0.30 0.0 0 0 871.39 187.83
  L 280.29 187.83
  A 0.30 0.30 0.0 0 0 279.99 188.13
  L 279.99 196.45
  A 0.30 0.30 0.0 0 0 280.29 196.75
  L 871.39 196.75
  A 0.30 0.30 0.0 0 0 871.69 196.45
  L 871.69 188.13"
/>
<path stroke="#808080" vector-effect="non-scaling-stroke" d="
  M 135.69 228.73
  L 156.01 228.73
  Q 156.55 228.73 156.55 229.26
  L 156.52 236.00
  Q 156.51 236.23 156.75 236.23
  L 164.45 236.22
  Q 164.63 236.22 164.65 236.03
  Q 165.11 229.98 164.15 226.16
  Q 163.04 221.73 157.88 221.61
  Q 147.92 221.36 133.93 221.60
  C 127.28 221.71 126.81 226.68 126.93 232.12
  Q 127.17 243.24 127.02 253.35
  Q 126.91 260.85 134.28 260.89
  Q 146.82 260.96 156.50 260.94
  C 160.03 260.94 163.63 260.07 164.26 256.15
  Q 165.04 251.27 164.67 245.19
  Q 164.66 245.00 164.47 245.00
  L 156.80 245.01
  A 0.29 0.29 0.0 0 0 156.51 245.30
  L 156.56 253.08
  A 0.40 0.40 0.0 0 1 156.16 253.48
  L 135.55 253.48
  Q 135.11 253.48 135.11 253.05
  L 135.11 229.31
  Q 135.11 228.73 135.69 228.73"
/>
<path stroke="#808080" vector-effect="non-scaling-stroke" d="
  M 261.68 228.12
  A 6.59 6.59 0.0 0 0 255.09 221.53
  L 225.79 221.53
  A 6.59 6.59 0.0 0 0 219.20 228.12
  L 219.20 254.36
  A 6.59 6.59 0.0 0 0 225.79 260.95
  L 255.09 260.95
  A 6.59 6.59 0.0 0 0 261.68 254.36
  L 261.68 228.12"
/>
<path stroke="#808080" vector-effect="non-scaling-stroke" d="
  M 325.04 228.50
  L 346.51 228.50
  Q 347.27 228.50 347.22 229.26
  L 347.06 231.88
  Q 346.99 233.01 348.13 233.01
  L 353.32 233.01
  Q 354.33 233.01 354.35 232.00
  C 354.46 226.08 353.79 221.70 346.49 221.58
  Q 330.04 221.31 324.08 221.60
  Q 318.32 221.88 317.74 227.44
  Q 317.24 232.30 317.61 237.82
  Q 318.05 244.45 324.30 244.51
  Q 334.88 244.61 347.06 244.52
  A 0.47 0.47 0.0 0 1 347.54 244.99
  L 347.54 252.97
  Q 347.54 253.48 347.03 253.48
  L 323.73 253.48
  Q 323.22 253.48 323.23 252.98
  L 323.29 249.80
  Q 323.30 248.80 322.30 248.79
  L 317.00 248.72
  Q 315.83 248.70 315.98 249.86
  C 316.67 255.32 315.48 260.86 323.36 260.91
  Q 335.39 260.99 346.77 260.95
  C 350.17 260.93 353.71 259.94 354.30 256.06
  Q 355.10 250.70 354.57 243.30
  C 354.20 238.19 350.93 236.83 346.22 236.81
  Q 335.45 236.74 324.92 236.76
  A 0.33 0.33 0.0 0 1 324.59 236.43
  L 324.59 228.96
  Q 324.59 228.50 325.04 228.50"
/>
<path stroke="#808080" vector-effect="non-scaling-stroke" d="
  M 416.95 234.16
  Q 423.41 244.82 431.17 256.09
  Q 431.68 256.83 432.76 256.19
  A 1.38 1.36 -87.7 0 0 433.22 255.76
  Q 439.44 246.54 445.12 237.70
  Q 446.09 236.19 446.85 234.61
  Q 447.56 233.15 447.55 234.77
  L 447.49 260.48
  A 0.49 0.48 0.6 0 0 447.98 260.97
  L 454.74 260.97
  Q 455.08 260.97 455.08 260.63
  L 455.08 222.17
  Q 455.08 221.51 454.42 221.51
  L 449.20 221.50
  Q 448.47 221.50 448.06 222.11
  L 433.04 244.73
  A 0.44 0.44 0.0 0 1 432.32 244.73
  L 416.81 222.03
  Q 416.45 221.50 415.81 221.50
  L 410.53 221.51
  Q 409.82 221.51 409.82 222.22
  L 409.83 260.53
  A 0.45 0.45 0.0 0 0 410.28 260.98
  L 416.16 260.96
  A 0.37 0.37 0.0 0 0 416.53 260.59
  L 416.46 234.30
  Q 416.46 233.36 416.95 234.16"
/>
<path stroke="#808080" vector-effect="non-scaling-stroke" d="
  M 518.66 244.08
  A 0.33 0.33 0.0 0 1 518.99 243.75
  L 534.18 243.76
  A 0.33 0.33 0.0 0 0 534.51 243.43
  L 534.50 237.37
  A 0.33 0.33 0.0 0 0 534.17 237.04
  L 518.99 237.11
  A 0.33 0.33 0.0 0 1 518.66 236.78
  L 518.61 228.74
  A 0.33 0.33 0.0 0 1 518.94 228.41
  L 545.64 228.42
  A 0.33 0.33 0.0 0 0 545.97 228.09
  L 545.98 221.84
  A 0.33 0.33 0.0 0 0 545.65 221.51
  L 510.85 221.51
  A 0.33 0.33 0.0 0 0 510.52 221.84
  L 510.53 260.63
  A 0.33 0.33 0.0 0 0 510.86 260.96
  L 545.91 260.97
  A 0.33 0.33 0.0 0 0 546.24 260.64
  L 546.24 253.81
  A 0.33 0.33 0.0 0 0 545.91 253.48
  L 518.94 253.48
  A 0.33 0.33 0.0 0 1 518.61 253.15
  L 518.66 244.08"
/>
<path stroke="#808080" vector-effect="non-scaling-stroke" d="
  M 615.77 229.09
  A 0.36 0.36 0.0 0 1 616.13 228.73
  L 631.36 228.73
  A 0.36 0.36 0.0 0 0 631.72 228.37
  L 631.72 221.87
  A 0.36 0.36 0.0 0 0 631.36 221.51
  L 592.18 221.51
  A 0.36 0.36 0.0 0 0 591.82 221.87
  L 591.83 228.37
  A 0.36 0.36 0.0 0 0 592.19 228.73
  L 607.27 228.73
  A 0.36 0.36 0.0 0 1 607.63 229.09
  L 607.60 260.62
  A 0.36 0.36 0.0 0 0 607.96 260.98
  L 615.43 260.96
  A 0.36 0.36 0.0 0 0 615.79 260.60
  L 615.77 229.09"
/>
<path stroke="#808080" vector-effect="non-scaling-stroke" d="
  M 688.29 221.87
  A 0.35 0.35 0.0 0 0 687.94 221.52
  L 680.50 221.52
  A 0.35 0.35 0.0 0 0 680.15 221.87
  L 680.15 260.61
  A 0.35 0.35 0.0 0 0 680.50 260.96
  L 687.94 260.96
  A 0.35 0.35 0.0 0 0 688.29 260.61
  L 688.29 221.87"
/>
<path stroke="#808080" vector-effect="non-scaling-stroke" d="
  M 752.42 228.73
  L 772.99 228.73
  Q 773.50 228.73 773.50 229.24
  L 773.48 235.98
  Q 773.48 236.23 773.73 236.23
  L 781.22 236.22
  Q 781.42 236.22 781.43 236.02
  Q 781.91 229.32 780.94 225.80
  Q 779.80 221.63 774.16 221.57
  Q 761.97 221.42 751.13 221.56
  Q 743.96 221.65 743.84 228.81
  Q 743.65 239.88 743.83 253.71
  C 743.90 258.76 746.60 260.85 751.34 260.92
  Q 764.65 261.12 774.62 260.85
  Q 780.92 260.68 781.35 254.80
  Q 781.69 250.00 781.48 245.28
  Q 781.47 245.01 781.21 245.01
  L 773.74 245.00
  A 0.26 0.25 -1.1 0 0 773.48 245.26
  L 773.50 252.99
  A 0.49 0.49 0.0 0 1 773.01 253.48
  L 752.16 253.48
  A 0.34 0.34 0.0 0 1 751.82 253.14
  L 751.82 229.33
  Q 751.82 228.73 752.42 228.73"
/>
<path stroke="#808080" vector-effect="non-scaling-stroke" d="
  M 843.29 228.50
  L 864.86 228.50
  A 0.58 0.58 0.0 0 1 865.44 229.12
  L 865.27 231.97
  Q 865.21 232.99 866.23 233.00
  L 872.00 233.07
  Q 872.44 233.07 872.48 232.64
  C 872.92 227.47 872.38 221.64 865.61 221.56
  Q 854.99 221.45 843.29 221.54
  Q 836.51 221.60 835.96 227.78
  Q 835.52 232.72 835.93 238.07
  C 836.35 243.46 839.70 244.65 844.25 244.60
  Q 854.58 244.50 865.34 244.57
  Q 865.77 244.57 865.77 245.01
  L 865.81 252.96
  Q 865.81 253.48 865.29 253.48
  L 842.27 253.48
  A 0.68 0.67 1.6 0 1 841.59 252.77
  L 841.72 249.80
  Q 841.77 248.84 840.80 248.82
  L 835.46 248.74
  Q 834.38 248.72 834.38 249.81
  C 834.41 255.15 834.24 260.71 841.29 260.86
  Q 853.75 261.12 866.14 260.87
  Q 872.60 260.73 872.86 254.24
  Q 873.09 248.31 872.85 243.22
  C 872.58 237.56 868.22 236.80 863.64 236.78
  Q 853.07 236.75 843.21 236.77
  Q 842.83 236.77 842.83 236.39
  L 842.83 228.96
  A 0.46 0.46 0.0 0 1 843.29 228.50"
/>
<path stroke="#808080" vector-effect="non-scaling-stroke" d="
  M 253.62 229.00
  A 0.28 0.28 0.0 0 0 253.34 228.72
  L 227.60 228.72
  A 0.28 0.28 0.0 0 0 227.32 229.00
  L 227.32 253.20
  A 0.28 0.28 0.0 0 0 227.60 253.48
  L 253.34 253.48
  A 0.28 0.28 0.0 0 0 253.62 253.20
  L 253.62 229.00"
/>
</g>
<path fill="#ffffff" d="
  M 0.00 0.00
  L 1000.00 0.00
  L 1000.00 333.00
  L 0.00 333.00
  L 0.00 0.00
  Z
  M 150.66 127.30
  A 0.38 0.38 0.0 0 1 150.28 126.92
  L 150.19 82.52
  A 0.38 0.38 0.0 0 1 150.57 82.14
  L 246.94 82.22
  A 0.38 0.38 0.0 0 0 247.32 81.84
  L 247.33 73.41
  A 0.38 0.38 0.0 0 0 246.95 73.03
  L 128.14 73.03
  A 0.38 0.38 0.0 0 0 127.76 73.41
  L 127.75 196.34
  A 0.38 0.38 0.0 0 0 128.13 196.72
  L 248.49 196.82
  A 0.38 0.38 0.0 0 0 248.87 196.44
  L 248.87 188.10
  A 0.38 0.38 0.0 0 0 248.49 187.72
  L 150.64 187.89
  A 0.38 0.38 0.0 0 1 150.26 187.51
  L 150.26 135.82
  A 0.38 0.38 0.0 0 1 150.64 135.44
  L 241.12 135.45
  A 0.38 0.38 0.0 0 0 241.50 135.07
  L 241.50 127.61
  A 0.38 0.38 0.0 0 0 241.12 127.23
  L 150.66 127.30
  Z
  M 324.01 150.58
  A 0.31 0.31 0.0 0 1 323.47 150.58
  L 279.17 73.34
  A 0.31 0.31 0.0 0 0 278.90 73.18
  L 260.55 73.14
  A 0.31 0.31 0.0 0 0 260.28 73.60
  L 312.73 165.86
  A 0.31 0.31 0.0 0 0 313.00 166.02
  L 325.68 165.77
  A 0.31 0.31 0.0 0 0 325.95 165.62
  L 378.20 73.50
  A 0.31 0.31 0.0 0 0 377.93 73.04
  L 368.41 73.14
  A 0.31 0.31 0.0 0 0 368.14 73.29
  L 324.01 150.58
  Z
  M 417.13 119.81
  A 0.31 0.31 0.0 0 1 417.44 119.50
  L 465.19 119.58
  A 0.31 0.31 0.0 0 0 465.50 119.27
  L 465.51 114.02
  A 0.31 0.31 0.0 0 0 465.20 113.71
  L 417.44 113.71
  A 0.31 0.31 0.0 0 1 417.13 113.40
  L 417.10 80.45
  A 0.31 0.31 0.0 0 1 417.41 80.14
  L 468.68 80.15
  A 0.31 0.31 0.0 0 0 468.99 79.84
  L 469.02 73.39
  A 0.31 0.31 0.0 0 0 468.71 73.08
  L 401.50 73.21
  A 0.31 0.31 0.0 0 0 401.19 73.52
  L 401.19 165.50
  A 0.31 0.31 0.0 0 0 401.50 165.81
  L 468.70 165.80
  A 0.31 0.31 0.0 0 0 469.01 165.49
  L 469.02 159.51
  A 0.31 0.31 0.0 0 0 468.71 159.20
  L 417.45 159.20
  A 0.31 0.31 0.0 0 1 417.14 158.89
  L 417.13 119.81
  Z
  M 515.90 159.19
  A 0.40 0.40 0.0 0 1 515.50 158.79
  L 515.50 73.43
  A 0.40 0.40 0.0 0 0 515.10 73.03
  L 499.92 73.03
  A 0.40 0.40 0.0 0 0 499.52 73.43
  L 499.53 165.41
  A 0.40 0.40 0.0 0 0 499.93 165.81
  L 569.13 165.80
  A 0.40 0.40 0.0 0 0 569.53 165.40
  L 569.56 159.67
  A 0.40 0.40 0.0 0 0 569.16 159.27
  L 515.90 159.19
  Z
  M 614.93 73.47
  A 0.44 0.44 0.0 0 0 614.49 73.03
  L 599.25 73.03
  A 0.44 0.44 0.0 0 0 598.81 73.47
  L 598.81 165.37
  A 0.44 0.44 0.0 0 0 599.25 165.81
  L 614.49 165.81
  A 0.44 0.44 0.0 0 0 614.93 165.37
  L 614.93 73.47
  Z
  M 664.83 94.95
  Q 664.83 94.55 665.15 94.79
  Q 712.24 129.90 759.70 165.30
  C 760.87 166.17 762.23 165.79 763.60 165.86
  Q 764.25 165.89 764.25 165.23
  L 764.25 73.46
  Q 764.25 73.16 763.96 73.16
  L 754.63 73.14
  A 0.29 0.29 0.0 0 0 754.34 73.43
  L 754.36 142.61
  A 0.18 0.18 0.0 0 1 754.07 142.76
  Q 708.16 108.55 661.87 74.08
  C 659.85 72.57 657.68 72.99 655.34 73.06
  A 0.29 0.28 -1.1 0 0 655.06 73.34
  L 654.86 164.96
  A 0.85 0.85 0.0 0 0 655.71 165.81
  L 664.33 165.80
  Q 664.95 165.80 664.95 165.17
  L 664.83 94.95
  Z
  M 819.90 159.21
  A 0.39 0.39 0.0 0 1 819.51 158.82
  L 819.42 120.06
  A 0.39 0.39 0.0 0 1 819.81 119.67
  L 867.60 119.67
  A 0.39 0.39 0.0 0 0 867.99 119.28
  L 867.98 113.95
  A 0.39 0.39 0.0 0 0 867.59 113.56
  L 819.83 113.76
  A 0.39 0.39 0.0 0 1 819.44 113.37
  L 819.44 80.53
  A 0.39 0.39 0.0 0 1 819.83 80.14
  L 871.05 80.16
  A 0.39 0.39 0.0 0 0 871.44 79.77
  L 871.46 73.56
  A 0.39 0.39 0.0 0 0 871.07 73.17
  L 803.87 73.17
  A 0.39 0.39 0.0 0 0 803.48 73.56
  L 803.48 165.60
  A 0.39 0.39 0.0 0 0 803.87 165.99
  L 871.06 165.99
  A 0.39 0.39 0.0 0 0 871.45 165.60
  L 871.47 159.58
  A 0.39 0.39 0.0 0 0 871.08 159.19
  L 819.90 159.21
  Z
  M 871.69 188.13
  A 0.30 0.30 0.0 0 0 871.39 187.83
  L 280.29 187.83
  A 0.30 0.30 0.0 0 0 279.99 188.13
  L 279.99 196.45
  A 0.30 0.30 0.0 0 0 280.29 196.75
  L 871.39 196.75
  A 0.30 0.30 0.0 0 0 871.69 196.45
  L 871.69 188.13
  Z
  M 135.69 228.73
  L 156.01 228.73
  Q 156.55 228.73 156.55 229.26
  L 156.52 236.00
  Q 156.51 236.23 156.75 236.23
  L 164.45 236.22
  Q 164.63 236.22 164.65 236.03
  Q 165.11 229.98 164.15 226.16
  Q 163.04 221.73 157.88 221.61
  Q 147.92 221.36 133.93 221.60
  C 127.28 221.71 126.81 226.68 126.93 232.12
  Q 127.17 243.24 127.02 253.35
  Q 126.91 260.85 134.28 260.89
  Q 146.82 260.96 156.50 260.94
  C 160.03 260.94 163.63 260.07 164.26 256.15
  Q 165.04 251.27 164.67 245.19
  Q 164.66 245.00 164.47 245.00
  L 156.80 245.01
  A 0.29 0.29 0.0 0 0 156.51 245.30
  L 156.56 253.08
  A 0.40 0.40 0.0 0 1 156.16 253.48
  L 135.55 253.48
  Q 135.11 253.48 135.11 253.05
  L 135.11 229.31
  Q 135.11 228.73 135.69 228.73
  Z
  M 261.68 228.12
  A 6.59 6.59 0.0 0 0 255.09 221.53
  L 225.79 221.53
  A 6.59 6.59 0.0 0 0 219.20 228.12
  L 219.20 254.36
  A 6.59 6.59 0.0 0 0 225.79 260.95
  L 255.09 260.95
  A 6.59 6.59 0.0 0 0 261.68 254.36
  L 261.68 228.12
  Z
  M 325.04 228.50
  L 346.51 228.50
  Q 347.27 228.50 347.22 229.26
  L 347.06 231.88
  Q 346.99 233.01 348.13 233.01
  L 353.32 233.01
  Q 354.33 233.01 354.35 232.00
  C 354.46 226.08 353.79 221.70 346.49 221.58
  Q 330.04 221.31 324.08 221.60
  Q 318.32 221.88 317.74 227.44
  Q 317.24 232.30 317.61 237.82
  Q 318.05 244.45 324.30 244.51
  Q 334.88 244.61 347.06 244.52
  A 0.47 0.47 0.0 0 1 347.54 244.99
  L 347.54 252.97
  Q 347.54 253.48 347.03 253.48
  L 323.73 253.48
  Q 323.22 253.48 323.23 252.98
  L 323.29 249.80
  Q 323.30 248.80 322.30 248.79
  L 317.00 248.72
  Q 315.83 248.70 315.98 249.86
  C 316.67 255.32 315.48 260.86 323.36 260.91
  Q 335.39 260.99 346.77 260.95
  C 350.17 260.93 353.71 259.94 354.30 256.06
  Q 355.10 250.70 354.57 243.30
  C 354.20 238.19 350.93 236.83 346.22 236.81
  Q 335.45 236.74 324.92 236.76
  A 0.33 0.33 0.0 0 1 324.59 236.43
  L 324.59 228.96
  Q 324.59 228.50 325.04 228.50
  Z
  M 416.95 234.16
  Q 423.41 244.82 431.17 256.09
  Q 431.68 256.83 432.76 256.19
  A 1.38 1.36 -87.7 0 0 433.22 255.76
  Q 439.44 246.54 445.12 237.70
  Q 446.09 236.19 446.85 234.61
  Q 447.56 233.15 447.55 234.77
  L 447.49 260.48
  A 0.49 0.48 0.6 0 0 447.98 260.97
  L 454.74 260.97
  Q 455.08 260.97 455.08 260.63
  L 455.08 222.17
  Q 455.08 221.51 454.42 221.51
  L 449.20 221.50
  Q 448.47 221.50 448.06 222.11
  L 433.04 244.73
  A 0.44 0.44 0.0 0 1 432.32 244.73
  L 416.81 222.03
  Q 416.45 221.50 415.81 221.50
  L 410.53 221.51
  Q 409.82 221.51 409.82 222.22
  L 409.83 260.53
  A 0.45 0.45 0.0 0 0 410.28 260.98
  L 416.16 260.96
  A 0.37 0.37 0.0 0 0 416.53 260.59
  L 416.46 234.30
  Q 416.46 233.36 416.95 234.16
  Z
  M 518.66 244.08
  A 0.33 0.33 0.0 0 1 518.99 243.75
  L 534.18 243.76
  A 0.33 0.33 0.0 0 0 534.51 243.43
  L 534.50 237.37
  A 0.33 0.33 0.0 0 0 534.17 237.04
  L 518.99 237.11
  A 0.33 0.33 0.0 0 1 518.66 236.78
  L 518.61 228.74
  A 0.33 0.33 0.0 0 1 518.94 228.41
  L 545.64 228.42
  A 0.33 0.33 0.0 0 0 545.97 228.09
  L 545.98 221.84
  A 0.33 0.33 0.0 0 0 545.65 221.51
  L 510.85 221.51
  A 0.33 0.33 0.0 0 0 510.52 221.84
  L 510.53 260.63
  A 0.33 0.33 0.0 0 0 510.86 260.96
  L 545.91 260.97
  A 0.33 0.33 0.0 0 0 546.24 260.64
  L 546.24 253.81
  A 0.33 0.33 0.0 0 0 545.91 253.48
  L 518.94 253.48
  A 0.33 0.33 0.0 0 1 518.61 253.15
  L 518.66 244.08
  Z
  M 615.77 229.09
  A 0.36 0.36 0.0 0 1 616.13 228.73
  L 631.36 228.73
  A 0.36 0.36 0.0 0 0 631.72 228.37
  L 631.72 221.87
  A 0.36 0.36 0.0 0 0 631.36 221.51
  L 592.18 221.51
  A 0.36 0.36 0.0 0 0 591.82 221.87
  L 591.83 228.37
  A 0.36 0.36 0.0 0 0 592.19 228.73
  L 607.27 228.73
  A 0.36 0.36 0.0 0 1 607.63 229.09
  L 607.60 260.62
  A 0.36 0.36 0.0 0 0 607.96 260.98
  L 615.43 260.96
  A 0.36 0.36 0.0 0 0 615.79 260.60
  L 615.77 229.09
  Z
  M 688.29 221.87
  A 0.35 0.35 0.0 0 0 687.94 221.52
  L 680.50 221.52
  A 0.35 0.35 0.0 0 0 680.15 221.87
  L 680.15 260.61
  A 0.35 0.35 0.0 0 0 680.50 260.96
  L 687.94 260.96
  A 0.35 0.35 0.0 0 0 688.29 260.61
  L 688.29 221.87
  Z
  M 752.42 228.73
  L 772.99 228.73
  Q 773.50 228.73 773.50 229.24
  L 773.48 235.98
  Q 773.48 236.23 773.73 236.23
  L 781.22 236.22
  Q 781.42 236.22 781.43 236.02
  Q 781.91 229.32 780.94 225.80
  Q 779.80 221.63 774.16 221.57
  Q 761.97 221.42 751.13 221.56
  Q 743.96 221.65 743.84 228.81
  Q 743.65 239.88 743.83 253.71
  C 743.90 258.76 746.60 260.85 751.34 260.92
  Q 764.65 261.12 774.62 260.85
  Q 780.92 260.68 781.35 254.80
  Q 781.69 250.00 781.48 245.28
  Q 781.47 245.01 781.21 245.01
  L 773.74 245.00
  A 0.26 0.25 -1.1 0 0 773.48 245.26
  L 773.50 252.99
  A 0.49 0.49 0.0 0 1 773.01 253.48
  L 752.16 253.48
  A 0.34 0.34 0.0 0 1 751.82 253.14
  L 751.82 229.33
  Q 751.82 228.73 752.42 228.73
  Z
  M 843.29 228.50
  L 864.86 228.50
  A 0.58 0.58 0.0 0 1 865.44 229.12
  L 865.27 231.97
  Q 865.21 232.99 866.23 233.00
  L 872.00 233.07
  Q 872.44 233.07 872.48 232.64
  C 872.92 227.47 872.38 221.64 865.61 221.56
  Q 854.99 221.45 843.29 221.54
  Q 836.51 221.60 835.96 227.78
  Q 835.52 232.72 835.93 238.07
  C 836.35 243.46 839.70 244.65 844.25 244.60
  Q 854.58 244.50 865.34 244.57
  Q 865.77 244.57 865.77 245.01
  L 865.81 252.96
  Q 865.81 253.48 865.29 253.48
  L 842.27 253.48
  A 0.68 0.67 1.6 0 1 841.59 252.77
  L 841.72 249.80
  Q 841.77 248.84 840.80 248.82
  L 835.46 248.74
  Q 834.38 248.72 834.38 249.81
  C 834.41 255.15 834.24 260.71 841.29 260.86
  Q 853.75 261.12 866.14 260.87
  Q 872.60 260.73 872.86 254.24
  Q 873.09 248.31 872.85 243.22
  C 872.58 237.56 868.22 236.80 863.64 236.78
  Q 853.07 236.75 843.21 236.77
  Q 842.83 236.77 842.83 236.39
  L 842.83 228.96
  A 0.46 0.46 0.0 0 1 843.29 228.50
  Z"
/>
<path fill="#000000" d="
  M 150.66 127.30
  L 241.12 127.23
  A 0.38 0.38 0.0 0 1 241.50 127.61
  L 241.50 135.07
  A 0.38 0.38 0.0 0 1 241.12 135.45
  L 150.64 135.44
  A 0.38 0.38 0.0 0 0 150.26 135.82
  L 150.26 187.51
  A 0.38 0.38 0.0 0 0 150.64 187.89
  L 248.49 187.72
  A 0.38 0.38 0.0 0 1 248.87 188.10
  L 248.87 196.44
  A 0.38 0.38 0.0 0 1 248.49 196.82
  L 128.13 196.72
  A 0.38 0.38 0.0 0 1 127.75 196.34
  L 127.76 73.41
  A 0.38 0.38 0.0 0 1 128.14 73.03
  L 246.95 73.03
  A 0.38 0.38 0.0 0 1 247.33 73.41
  L 247.32 81.84
  A 0.38 0.38 0.0 0 1 246.94 82.22
  L 150.57 82.14
  A 0.38 0.38 0.0 0 0 150.19 82.52
  L 150.28 126.92
  A 0.38 0.38 0.0 0 0 150.66 127.30
  Z"
/>
<path fill="#000000" d="
  M 324.01 150.58
  L 368.14 73.29
  A 0.31 0.31 0.0 0 1 368.41 73.14
  L 377.93 73.04
  A 0.31 0.31 0.0 0 1 378.20 73.50
  L 325.95 165.62
  A 0.31 0.31 0.0 0 1 325.68 165.77
  L 313.00 166.02
  A 0.31 0.31 0.0 0 1 312.73 165.86
  L 260.28 73.60
  A 0.31 0.31 0.0 0 1 260.55 73.14
  L 278.90 73.18
  A 0.31 0.31 0.0 0 1 279.17 73.34
  L 323.47 150.58
  A 0.31 0.31 0.0 0 0 324.01 150.58
  Z"
/>
<path fill="#000000" d="
  M 417.13 119.81
  L 417.14 158.89
  A 0.31 0.31 0.0 0 0 417.45 159.20
  L 468.71 159.20
  A 0.31 0.31 0.0 0 1 469.02 159.51
  L 469.01 165.49
  A 0.31 0.31 0.0 0 1 468.70 165.80
  L 401.50 165.81
  A 0.31 0.31 0.0 0 1 401.19 165.50
  L 401.19 73.52
  A 0.31 0.31 0.0 0 1 401.50 73.21
  L 468.71 73.08
  A 0.31 0.31 0.0 0 1 469.02 73.39
  L 468.99 79.84
  A 0.31 0.31 0.0 0 1 468.68 80.15
  L 417.41 80.14
  A 0.31 0.31 0.0 0 0 417.10 80.45
  L 417.13 113.40
  A 0.31 0.31 0.0 0 0 417.44 113.71
  L 465.20 113.71
  A 0.31 0.31 0.0 0 1 465.51 114.02
  L 465.50 119.27
  A 0.31 0.31 0.0 0 1 465.19 119.58
  L 417.44 119.50
  A 0.31 0.31 0.0 0 0 417.13 119.81
  Z"
/>
<path fill="#000000" d="
  M 515.90 159.19
  L 569.16 159.27
  A 0.40 0.40 0.0 0 1 569.56 159.67
  L 569.53 165.40
  A 0.40 0.40 0.0 0 1 569.13 165.80
  L 499.93 165.81
  A 0.40 0.40 0.0 0 1 499.53 165.41
  L 499.52 73.43
  A 0.40 0.40 0.0 0 1 499.92 73.03
  L 515.10 73.03
  A 0.40 0.40 0.0 0 1 515.50 73.43
  L 515.50 158.79
  A 0.40 0.40 0.0 0 0 515.90 159.19
  Z"
/>
<rect fill="#000000" x="598.81" y="73.03" width="16.12" height="92.78" rx="0.44"/>
<path fill="#000000" d="
  M 664.83 94.95
  L 664.95 165.17
  Q 664.95 165.80 664.33 165.80
  L 655.71 165.81
  A 0.85 0.85 0.0 0 1 654.86 164.96
  L 655.06 73.34
  A 0.29 0.28 -1.1 0 1 655.34 73.06
  C 657.68 72.99 659.85 72.57 661.87 74.08
  Q 708.16 108.55 754.07 142.76
  A 0.18 0.18 0.0 0 0 754.36 142.61
  L 754.34 73.43
  A 0.29 0.29 0.0 0 1 754.63 73.14
  L 763.96 73.16
  Q 764.25 73.16 764.25 73.46
  L 764.25 165.23
  Q 764.25 165.89 763.60 165.86
  C 762.23 165.79 760.87 166.17 759.70 165.30
  Q 712.24 129.90 665.15 94.79
  Q 664.83 94.55 664.83 94.95
  Z"
/>
<path fill="#000000" d="
  M 819.90 159.21
  L 871.08 159.19
  A 0.39 0.39 0.0 0 1 871.47 159.58
  L 871.45 165.60
  A 0.39 0.39 0.0 0 1 871.06 165.99
  L 803.87 165.99
  A 0.39 0.39 0.0 0 1 803.48 165.60
  L 803.48 73.56
  A 0.39 0.39 0.0 0 1 803.87 73.17
  L 871.07 73.17
  A 0.39 0.39 0.0 0 1 871.46 73.56
  L 871.44 79.77
  A 0.39 0.39 0.0 0 1 871.05 80.16
  L 819.83 80.14
  A 0.39 0.39 0.0 0 0 819.44 80.53
  L 819.44 113.37
  A 0.39 0.39 0.0 0 0 819.83 113.76
  L 867.59 113.56
  A 0.39 0.39 0.0 0 1 867.98 113.95
  L 867.99 119.28
  A 0.39 0.39 0.0 0 1 867.60 119.67
  L 819.81 119.67
  A 0.39 0.39 0.0 0 0 819.42 120.06
  L 819.51 158.82
  A 0.39 0.39 0.0 0 0 819.90 159.21
  Z"
/>
<rect fill="#000000" x="279.99" y="187.83" width="591.70" height="8.92" rx="0.30"/>
<path fill="#000000" d="
  M 135.11 229.31
  L 135.11 253.05
  Q 135.11 253.48 135.55 253.48
  L 156.16 253.48
  A 0.40 0.40 0.0 0 0 156.56 253.08
  L 156.51 245.30
  A 0.29 0.29 0.0 0 1 156.80 245.01
  L 164.47 245.00
  Q 164.66 245.00 164.67 245.19
  Q 165.04 251.27 164.26 256.15
  C 163.63 260.07 160.03 260.94 156.50 260.94
  Q 146.82 260.96 134.28 260.89
  Q 126.91 260.85 127.02 253.35
  Q 127.17 243.24 126.93 232.12
  C 126.81 226.68 127.28 221.71 133.93 221.60
  Q 147.92 221.36 157.88 221.61
  Q 163.04 221.73 164.15 226.16
  Q 165.11 229.98 164.65 236.03
  Q 164.63 236.22 164.45 236.22
  L 156.75 236.23
  Q 156.51 236.23 156.52 236.00
  L 156.55 229.26
  Q 156.55 228.73 156.01 228.73
  L 135.69 228.73
  Q 135.11 228.73 135.11 229.31
  Z"
/>
<path fill="#000000" d="
  M 261.68 254.36
  A 6.59 6.59 0.0 0 1 255.09 260.95
  L 225.79 260.95
  A 6.59 6.59 0.0 0 1 219.20 254.36
  L 219.20 228.12
  A 6.59 6.59 0.0 0 1 225.79 221.53
  L 255.09 221.53
  A 6.59 6.59 0.0 0 1 261.68 228.12
  L 261.68 254.36
  Z
  M 253.62 229.00
  A 0.28 0.28 0.0 0 0 253.34 228.72
  L 227.60 228.72
  A 0.28 0.28 0.0 0 0 227.32 229.00
  L 227.32 253.20
  A 0.28 0.28 0.0 0 0 227.60 253.48
  L 253.34 253.48
  A 0.28 0.28 0.0 0 0 253.62 253.20
  L 253.62 229.00
  Z"
/>
<path fill="#000000" d="
  M 325.04 228.50
  Q 324.59 228.50 324.59 228.96
  L 324.59 236.43
  A 0.33 0.33 0.0 0 0 324.92 236.76
  Q 335.45 236.74 346.22 236.81
  C 350.93 236.83 354.20 238.19 354.57 243.30
  Q 355.10 250.70 354.30 256.06
  C 353.71 259.94 350.17 260.93 346.77 260.95
  Q 335.39 260.99 323.36 260.91
  C 315.48 260.86 316.67 255.32 315.98 249.86
  Q 315.83 248.70 317.00 248.72
  L 322.30 248.79
  Q 323.30 248.80 323.29 249.80
  L 323.23 252.98
  Q 323.22 253.48 323.73 253.48
  L 347.03 253.48
  Q 347.54 253.48 347.54 252.97
  L 347.54 244.99
  A 0.47 0.47 0.0 0 0 347.06 244.52
  Q 334.88 244.61 324.30 244.51
  Q 318.05 244.45 317.61 237.82
  Q 317.24 232.30 317.74 227.44
  Q 318.32 221.88 324.08 221.60
  Q 330.04 221.31 346.49 221.58
  C 353.79 221.70 354.46 226.08 354.35 232.00
  Q 354.33 233.01 353.32 233.01
  L 348.13 233.01
  Q 346.99 233.01 347.06 231.88
  L 347.22 229.26
  Q 347.27 228.50 346.51 228.50
  L 325.04 228.50
  Z"
/>
<path fill="#000000" d="
  M 416.46 234.30
  L 416.53 260.59
  A 0.37 0.37 0.0 0 1 416.16 260.96
  L 410.28 260.98
  A 0.45 0.45 0.0 0 1 409.83 260.53
  L 409.82 222.22
  Q 409.82 221.51 410.53 221.51
  L 415.81 221.50
  Q 416.45 221.50 416.81 222.03
  L 432.32 244.73
  A 0.44 0.44 0.0 0 0 433.04 244.73
  L 448.06 222.11
  Q 448.47 221.50 449.20 221.50
  L 454.42 221.51
  Q 455.08 221.51 455.08 222.17
  L 455.08 260.63
  Q 455.08 260.97 454.74 260.97
  L 447.98 260.97
  A 0.49 0.48 0.6 0 1 447.49 260.48
  L 447.55 234.77
  Q 447.56 233.15 446.85 234.61
  Q 446.09 236.19 445.12 237.70
  Q 439.44 246.54 433.22 255.76
  A 1.38 1.36 -87.7 0 1 432.76 256.19
  Q 431.68 256.83 431.17 256.09
  Q 423.41 244.82 416.95 234.16
  Q 416.46 233.36 416.46 234.30
  Z"
/>
<path fill="#000000" d="
  M 518.66 244.08
  L 518.61 253.15
  A 0.33 0.33 0.0 0 0 518.94 253.48
  L 545.91 253.48
  A 0.33 0.33 0.0 0 1 546.24 253.81
  L 546.24 260.64
  A 0.33 0.33 0.0 0 1 545.91 260.97
  L 510.86 260.96
  A 0.33 0.33 0.0 0 1 510.53 260.63
  L 510.52 221.84
  A 0.33 0.33 0.0 0 1 510.85 221.51
  L 545.65 221.51
  A 0.33 0.33 0.0 0 1 545.98 221.84
  L 545.97 228.09
  A 0.33 0.33 0.0 0 1 545.64 228.42
  L 518.94 228.41
  A 0.33 0.33 0.0 0 0 518.61 228.74
  L 518.66 236.78
  A 0.33 0.33 0.0 0 0 518.99 237.11
  L 534.17 237.04
  A 0.33 0.33 0.0 0 1 534.50 237.37
  L 534.51 243.43
  A 0.33 0.33 0.0 0 1 534.18 243.76
  L 518.99 243.75
  A 0.33 0.33 0.0 0 0 518.66 244.08
  Z"
/>
<path fill="#000000" d="
  M 615.77 229.09
  L 615.79 260.60
  A 0.36 0.36 0.0 0 1 615.43 260.96
  L 607.96 260.98
  A 0.36 0.36 0.0 0 1 607.60 260.62
  L 607.63 229.09
  A 0.36 0.36 0.0 0 0 607.27 228.73
  L 592.19 228.73
  A 0.36 0.36 0.0 0 1 591.83 228.37
  L 591.82 221.87
  A 0.36 0.36 0.0 0 1 592.18 221.51
  L 631.36 221.51
  A 0.36 0.36 0.0 0 1 631.72 221.87
  L 631.72 228.37
  A 0.36 0.36 0.0 0 1 631.36 228.73
  L 616.13 228.73
  A 0.36 0.36 0.0 0 0 615.77 229.09
  Z"
/>
<rect fill="#000000" x="680.15" y="221.52" width="8.14" height="39.44" rx="0.35"/>
<path fill="#000000" d="
  M 751.82 229.33
  L 751.82 253.14
  A 0.34 0.34 0.0 0 0 752.16 253.48
  L 773.01 253.48
  A 0.49 0.49 0.0 0 0 773.50 252.99
  L 773.48 245.26
  A 0.26 0.25 -1.1 0 1 773.74 245.00
  L 781.21 245.01
  Q 781.47 245.01 781.48 245.28
  Q 781.69 250.00 781.35 254.80
  Q 780.92 260.68 774.62 260.85
  Q 764.65 261.12 751.34 260.92
  C 746.60 260.85 743.90 258.76 743.83 253.71
  Q 743.65 239.88 743.84 228.81
  Q 743.96 221.65 751.13 221.56
  Q 761.97 221.42 774.16 221.57
  Q 779.80 221.63 780.94 225.80
  Q 781.91 229.32 781.43 236.02
  Q 781.42 236.22 781.22 236.22
  L 773.73 236.23
  Q 773.48 236.23 773.48 235.98
  L 773.50 229.24
  Q 773.50 228.73 772.99 228.73
  L 752.42 228.73
  Q 751.82 228.73 751.82 229.33
  Z"
/>
<path fill="#000000" d="
  M 843.29 228.50
  A 0.46 0.46 0.0 0 0 842.83 228.96
  L 842.83 236.39
  Q 842.83 236.77 843.21 236.77
  Q 853.07 236.75 863.64 236.78
  C 868.22 236.80 872.58 237.56 872.85 243.22
  Q 873.09 248.31 872.86 254.24
  Q 872.60 260.73 866.14 260.87
  Q 853.75 261.12 841.29 260.86
  C 834.24 260.71 834.41 255.15 834.38 249.81
  Q 834.38 248.72 835.46 248.74
  L 840.80 248.82
  Q 841.77 248.84 841.72 249.80
  L 841.59 252.77
  A 0.68 0.67 1.6 0 0 842.27 253.48
  L 865.29 253.48
  Q 865.81 253.48 865.81 252.96
  L 865.77 245.01
  Q 865.77 244.57 865.34 244.57
  Q 854.58 244.50 844.25 244.60
  C 839.70 244.65 836.35 243.46 835.93 238.07
  Q 835.52 232.72 835.96 227.78
  Q 836.51 221.60 843.29 221.54
  Q 854.99 221.45 865.61 221.56
  C 872.38 221.64 872.92 227.47 872.48 232.64
  Q 872.44 233.07 872.00 233.07
  L 866.23 233.00
  Q 865.21 232.99 865.27 231.97
  L 865.44 229.12
  A 0.58 0.58 0.0 0 0 864.86 228.50
  L 843.29 228.50
  Z"
/>
<rect fill="#ffffff" x="227.32" y="228.72" width="26.30" height="24.76" rx="0.28"/>
</svg>
