<?xml version="1.0" encoding="UTF-8" standalone="no"?>
<!DOCTYPE svg PUBLIC "-//W3C//DTD SVG 1.1//EN" "http://www.w3.org/Graphics/SVG/1.1/DTD/svg11.dtd">
<svg xmlns="http://www.w3.org/2000/svg" version="1.1" viewBox="0.00 0.00 1000.00 333.00">
<g stroke-width="2.00" fill="none" stroke-linecap="butt">
<path stroke="#808080" vector-effect="non-scaling-stroke" d="
  M 243.16 35.21
  C 237.46 34.38 232.82 36.16 228.32 39.55
  Q 227.36 40.28 228.56 40.15
  Q 232.56 39.73 236.48 41.28
  C 242.24 43.55 248.36 44.87 254.51 45.11
  C 258.09 45.26 261.01 46.65 264.02 48.29
  A 0.64 0.64 0.0 0 0 264.96 47.60
  Q 264.18 43.74 260.55 41.50
  Q 252.56 36.59 243.16 35.21"
/>
<path stroke="#808080" vector-effect="non-scaling-stroke" d="
  M 161.94 104.68
  Q 153.74 105.70 148.71 101.00
  Q 146.24 98.69 147.29 101.90
  C 149.90 109.89 162.21 110.46 169.25 108.99
  Q 170.93 108.64 171.25 106.75
  Q 172.65 98.71 173.76 90.93
  C 174.13 88.34 174.99 86.86 177.47 86.07
  Q 183.93 84.00 190.62 82.47
  C 192.55 82.03 194.01 80.68 194.88 78.92
  C 196.89 74.84 198.98 70.84 200.28 66.46
  C 203.86 54.45 208.39 43.12 221.71 39.73
  Q 225.30 38.82 229.09 37.67
  Q 229.98 37.39 230.10 36.47
  L 230.14 36.16
  A 0.49 0.49 0.0 0 0 229.61 35.61
  Q 215.64 36.91 199.95 40.01
  C 191.91 41.60 193.12 53.29 192.93 59.11
  C 192.66 67.33 188.24 72.27 181.00 75.77
  Q 174.46 78.92 168.00 83.20
  C 165.25 85.03 164.17 87.67 164.48 90.91
  Q 164.97 96.15 164.58 101.70
  C 164.46 103.29 163.58 104.48 161.94 104.68"
/>
<path stroke="#bdbdbd" vector-effect="non-scaling-stroke" d="
  M 282.75 71.32
  Q 281.42 70.66 280.51 70.80"
/>
<path stroke="#808080" vector-effect="non-scaling-stroke" d="
  M 280.51 70.80
  Q 273.86 65.05 266.37 61.31
  Q 265.15 60.70 265.68 61.96
  Q 268.07 67.66 272.23 72.84"
/>
<path stroke="#bdbdbd" vector-effect="non-scaling-stroke" d="
  M 272.23 72.84
  Q 275.24 74.98 277.46 78.97"
/>
<path stroke="#808080" vector-effect="non-scaling-stroke" d="
  M 277.46 78.97
  Q 274.43 80.95 271.85 80.09
  Q 268.53 78.98 270.22 82.04
  Q 271.96 85.17 274.33 88.04"
/>
<path stroke="#bdbdbd" vector-effect="non-scaling-stroke" d="
  M 274.33 88.04
  Q 269.37 90.92 267.74 96.71
  Q 267.61 97.19 268.05 96.96
  Q 270.05 95.94 271.35 96.24"
/>
<path stroke="#808080" vector-effect="non-scaling-stroke" d="
  M 271.35 96.24
  Q 267.13 105.51 262.73 114.01
  C 258.45 122.29 262.57 128.26 270.99 130.08
  C 276.37 131.24 282.04 132.10 286.50 135.80
  A 1.94 1.93 -51.2 0 1 286.79 138.49
  Q 283.92 142.18 280.78 145.76
  Q 273.72 153.80 280.63 161.67
  C 285.59 167.33 289.30 171.03 288.36 179.50
  C 287.93 183.48 285.73 187.14 283.66 190.44
  Q 282.48 192.31 284.54 191.51
  Q 286.68 190.68 288.23 188.65
  C 295.16 179.50 296.38 164.82 288.74 155.31
  Q 288.43 154.93 288.76 154.57
  Q 293.20 149.66 297.80 143.20
  C 304.23 134.18 303.55 124.78 292.54 120.37
  C 288.86 118.90 282.14 115.63 280.50 112.20
  Q 278.77 108.60 281.04 104.86
  C 282.22 102.93 284.88 102.58 286.98 102.15"
/>
<path stroke="#bdbdbd" vector-effect="non-scaling-stroke" d="
  M 286.98 102.15
  Q 287.81 107.52 292.00 110.82
  Q 292.68 111.36 292.59 110.50
  L 292.48 109.35
  A 1.27 1.26 60.0 0 1 292.71 108.48
  L 296.90 102.61"
/>
<path stroke="#808080" vector-effect="non-scaling-stroke" d="
  M 296.90 102.61
  Q 298.95 103.97 299.16 106.17
  Q 299.21 106.71 299.69 106.97
  L 300.34 107.32
  Q 300.79 107.56 300.89 108.06
  Q 302.22 114.74 303.68 121.26
  C 304.00 122.67 304.11 124.19 304.15 125.65
  C 304.25 129.06 307.02 130.89 310.32 130.39
  C 315.35 129.62 320.74 127.89 325.91 128.61
  Q 328.52 128.98 328.05 131.49
  Q 327.11 136.51 325.95 141.61
  Q 325.51 143.52 327.28 144.39
  Q 331.32 146.38 335.38 148.62
  C 342.43 152.53 345.71 159.30 344.34 167.46
  Q 344.24 168.05 344.81 167.84
  Q 345.04 167.76 345.15 167.53
  C 350.75 156.33 343.88 147.97 336.32 140.41
  A 2.49 2.48 33.0 0 1 335.75 137.77
  C 338.63 130.12 338.41 120.79 330.19 116.68
  Q 324.51 113.84 317.83 115.13
  C 315.56 115.57 313.38 114.44 312.39 112.34
  Q 310.68 108.69 307.49 100.11"
/>
<path stroke="#bdbdbd" vector-effect="non-scaling-stroke" d="
  M 307.49 100.11
  Q 312.23 100.39 316.61 98.67
  A 0.55 0.54 42.4 0 0 316.56 97.64
  L 315.47 97.32
  A 1.39 1.36 -8.4 0 1 314.74 96.79
  L 311.90 92.82"
/>
<path stroke="#808080" vector-effect="non-scaling-stroke" d="
  M 311.90 92.82
  C 313.24 90.34 317.15 90.69 319.22 91.63
  Q 319.61 91.81 319.75 92.20
  Q 322.04 98.65 323.04 104.50
  C 323.27 105.85 324.15 106.78 325.52 106.99
  C 332.02 108.00 338.87 107.31 343.96 103.05
  Q 345.15 102.06 344.35 100.73
  Q 343.41 99.18 341.85 100.02
  Q 336.28 103.06 330.56 101.20
  A 1.28 1.27 -75.2 0 1 329.71 99.73
  C 332.12 88.35 328.52 81.92 317.64 78.13"
/>
<path stroke="#bdbdbd" vector-effect="non-scaling-stroke" d="
  M 317.64 78.13
  Q 317.67 76.31 318.58 75.11
  Q 319.87 73.41 317.80 73.95
  C 315.22 74.63 312.80 73.93 310.19 73.52"
/>
<path stroke="#808080" vector-effect="non-scaling-stroke" d="
  M 310.19 73.52
  Q 310.03 70.37 312.30 69.13
  Q 315.09 67.61 311.96 67.02
  Q 307.06 66.09 301.10 67.86"
/>
<path stroke="#bdbdbd" vector-effect="non-scaling-stroke" d="
  M 301.10 67.86
  L 298.17 62.11"
/>
<path stroke="#808080" vector-effect="non-scaling-stroke" d="
  M 298.17 62.11
  Q 295.97 51.44 292.48 41.44
  Q 292.23 40.72 291.47 40.74
  Q 279.85 41.05 264.19 38.59
  Q 263.11 38.43 262.16 38.61
  Q 259.44 39.14 262.04 40.10
  Q 265.56 41.42 268.60 43.79
  C 275.42 49.11 281.51 55.28 286.57 62.24
  Q 287.15 63.04 286.36 63.62
  L 286.04 63.86
  A 0.79 0.78 -36.0 0 1 284.94 63.69
  Q 281.32 58.67 276.71 53.13
  Q 272.78 48.41 266.04 48.47
  A 0.58 0.58 0.0 0 0 265.56 49.37
  Q 268.81 54.36 272.43 59.54
  C 274.27 62.17 279.43 68.17 283.08 66.88
  Q 284.59 66.35 283.76 67.71
  Q 282.87 69.16 282.75 71.32"
/>
<path stroke="#3d3d3d" vector-effect="non-scaling-stroke" d="
  M 298.17 62.11
  L 296.88 60.86
  Q 296.34 60.35 296.23 61.08
  Q 295.77 64.11 293.07 66.14
  Q 292.48 66.58 292.88 67.20
  L 295.78 71.59
  Q 296.30 72.37 296.89 71.63
  Q 298.63 69.43 301.10 67.86"
/>
<path stroke="#3d3d3d" vector-effect="non-scaling-stroke" d="
  M 310.19 73.52
  Q 309.79 76.91 307.89 78.67
  Q 306.76 79.72 308.25 80.14
  Q 310.54 80.79 312.64 81.91
  Q 313.91 82.59 314.84 81.48
  L 317.64 78.13"
/>
<path stroke="#3d3d3d" vector-effect="non-scaling-stroke" d="
  M 311.90 92.82
  L 305.17 93.10
  Q 304.59 93.12 304.70 93.69
  Q 305.12 95.95 305.07 98.16
  Q 305.06 98.72 305.51 99.07
  Q 306.49 99.81 307.49 100.11"
/>
<path stroke="#3d3d3d" vector-effect="non-scaling-stroke" d="
  M 296.90 102.61
  L 292.43 98.26
  Q 292.05 97.88 291.75 98.33
  Q 289.97 100.96 286.98 102.15"
/>
<path stroke="#3d3d3d" vector-effect="non-scaling-stroke" d="
  M 271.35 96.24
  L 277.34 97.64
  Q 277.57 97.70 277.67 97.49
  L 280.75 91.41
  Q 280.82 91.26 280.67 91.24
  Q 277.15 90.70 274.33 88.04"
/>
<path stroke="#3d3d3d" vector-effect="non-scaling-stroke" d="
  M 277.46 78.97
  L 282.48 77.92
  Q 282.96 77.82 282.94 77.34
  L 282.75 71.32"
/>
<path stroke="#3d3d3d" vector-effect="non-scaling-stroke" d="
  M 280.51 70.80
  Q 276.14 70.16 272.23 72.84"
/>
<path stroke="#808080" vector-effect="non-scaling-stroke" d="
  M 178.09 118.89
  Q 177.85 120.89 178.07 122.72
  A 0.71 0.71 0.0 0 0 179.12 123.26
  Q 179.88 122.84 180.15 122.00
  Q 181.88 116.74 183.06 111.60
  C 184.23 106.49 187.48 103.16 192.79 102.59
  Q 195.44 102.31 197.99 102.06
  C 209.77 100.91 215.32 93.86 218.72 83.21
  Q 223.15 69.36 227.31 58.45
  Q 231.17 48.32 240.58 47.31
  Q 242.20 47.14 240.79 46.32
  C 232.29 41.32 219.36 40.00 212.42 48.10
  Q 209.04 52.03 207.02 60.17
  Q 205.04 68.10 202.60 76.70
  C 200.54 83.93 195.57 89.82 188.69 92.91
  C 185.43 94.38 181.14 96.67 180.57 100.56
  Q 179.26 109.38 178.09 118.89"
/>
<path stroke="#808080" vector-effect="non-scaling-stroke" d="
  M 179.55 134.59
  C 178.83 135.06 177.94 135.10 177.39 135.79
  A 0.37 0.36 -67.3 0 0 177.63 136.38
  C 185.88 137.36 187.93 130.94 190.72 125.01
  Q 192.85 120.45 196.23 115.70
  A 2.55 2.54 28.5 0 1 199.26 114.81
  Q 206.04 117.54 212.92 117.73
  C 222.99 118.02 227.55 111.08 231.16 102.94
  Q 235.09 94.09 238.54 84.84
  C 241.78 76.17 245.31 70.36 253.02 66.29
  C 258.88 63.20 264.56 60.30 263.98 52.34
  A 2.19 2.18 -78.5 0 0 262.81 50.56
  C 254.76 46.40 243.60 44.86 237.18 52.70
  Q 232.34 58.61 229.90 65.78
  Q 225.85 77.65 221.49 88.49
  Q 218.97 94.76 215.90 98.98
  C 210.51 106.37 202.69 107.07 194.39 108.40
  C 191.61 108.85 188.48 110.70 187.90 113.35
  Q 186.48 119.85 184.67 126.74
  Q 183.22 132.24 179.55 134.59"
/>
<path stroke="#808080" vector-effect="non-scaling-stroke" d="
  M 249.78 87.10
  Q 253.86 85.40 261.93 83.73
  Q 262.60 83.59 262.98 83.09
  A 0.46 0.46 0.0 0 0 262.65 82.35
  C 256.76 81.86 247.44 81.86 245.52 88.53
  Q 244.94 90.53 246.52 89.18
  Q 248.16 87.77 249.78 87.10"
/>
<path stroke="#808080" vector-effect="non-scaling-stroke" d="
  M 246.54 98.76
  C 253.88 101.29 261.34 97.97 264.61 90.97
  A 0.44 0.43 -80.7 0 0 264.17 90.35
  Q 258.20 91.04 251.66 92.20
  Q 247.03 93.02 245.74 97.19
  A 1.27 1.27 0.0 0 0 246.54 98.76"
/>
<path stroke="#808080" vector-effect="non-scaling-stroke" d="
  M 381.13 126.78
  Q 381.45 126.99 381.69 127.30
  Q 397.51 147.05 413.89 167.25
  Q 416.56 170.55 419.21 167.22
  L 451.54 126.56
  Q 452.00 125.98 452.00 126.72
  L 452.00 211.40
  A 0.65 0.64 0.0 0 0 452.65 212.04
  L 467.45 212.04
  Q 468.18 212.04 468.18 211.31
  L 468.18 101.46
  Q 468.17 100.74 467.46 100.74
  L 454.28 100.74
  A 2.41 2.40 19.4 0 0 452.41 101.63
  L 417.06 145.52
  A 0.71 0.71 0.0 0 1 415.96 145.52
  L 380.84 101.97
  Q 379.85 100.74 378.27 100.74
  L 365.02 100.74
  A 0.49 0.48 -90.0 0 0 364.54 101.23
  L 364.52 211.53
  A 0.52 0.51 90.0 0 0 365.03 212.05
  L 380.22 212.04
  A 0.51 0.50 -90.0 0 0 380.72 211.53
  L 380.72 127.00
  Q 380.72 126.50 381.13 126.78"
/>
<path stroke="#808080" vector-effect="non-scaling-stroke" d="
  M 515.01 101.26
  A 0.52 0.52 0.0 0 0 514.49 100.74
  L 499.27 100.74
  A 0.52 0.52 0.0 0 0 498.75 101.26
  L 498.75 211.52
  A 0.52 0.52 0.0 0 0 499.27 212.04
  L 514.49 212.04
  A 0.52 0.52 0.0 0 0 515.01 211.52
  L 515.01 101.26"
/>
<path stroke="#808080" vector-effect="non-scaling-stroke" d="
  M 562.00 163.71
  A 0.47 0.47 0.0 0 1 562.47 163.24
  L 607.10 163.24
  A 0.47 0.47 0.0 0 0 607.57 162.77
  L 607.57 149.24
  A 0.47 0.47 0.0 0 0 607.10 148.77
  L 562.47 148.80
  A 0.47 0.47 0.0 0 1 562.00 148.33
  L 562.00 115.49
  A 0.47 0.47 0.0 0 1 562.47 115.02
  L 608.53 115.02
  A 0.47 0.47 0.0 0 0 609.00 114.55
  L 609.00 101.21
  A 0.47 0.47 0.0 0 0 608.53 100.74
  L 546.47 100.74
  A 0.47 0.47 0.0 0 0 546.00 101.21
  L 546.00 211.53
  A 0.47 0.47 0.0 0 0 546.47 212.00
  L 610.08 212.00
  A 0.47 0.47 0.0 0 0 610.55 211.53
  L 610.55 197.96
  A 0.47 0.47 0.0 0 0 610.08 197.49
  L 562.47 197.50
  A 0.47 0.47 0.0 0 1 562.00 197.03
  L 562.00 163.71"
/>
<path stroke="#808080" vector-effect="non-scaling-stroke" d="
  M 650.52 197.37
  A 0.49 0.49 0.0 0 1 650.03 196.88
  L 650.03 101.23
  A 0.49 0.49 0.0 0 0 649.54 100.74
  L 634.37 100.74
  A 0.49 0.49 0.0 0 0 633.88 101.23
  L 633.88 211.55
  A 0.49 0.49 0.0 0 0 634.37 212.04
  L 699.51 212.05
  A 0.49 0.49 0.0 0 0 700.00 211.56
  L 700.00 197.87
  A 0.49 0.49 0.0 0 0 699.51 197.38
  L 650.52 197.37"
/>
<path stroke="#808080" vector-effect="non-scaling-stroke" d="
  M 736.82 197.37
  A 0.53 0.53 0.0 0 1 736.29 196.84
  L 736.29 101.27
  A 0.53 0.53 0.0 0 0 735.76 100.74
  L 720.53 100.74
  A 0.53 0.53 0.0 0 0 720.00 101.27
  L 720.00 211.51
  A 0.53 0.53 0.0 0 0 720.53 212.04
  L 785.72 212.04
  A 0.53 0.53 0.0 0 0 786.25 211.51
  L 786.26 197.90
  A 0.53 0.53 0.0 0 0 785.73 197.37
  L 736.82 197.37"
/>
<path stroke="#808080" vector-effect="non-scaling-stroke" d="
  M 822.98 115.63
  A 0.61 0.61 0.0 0 1 823.59 115.02
  L 871.84 115.02
  A 0.61 0.61 0.0 0 0 872.45 114.41
  L 872.46 101.35
  A 0.61 0.61 0.0 0 0 871.85 100.74
  L 807.14 100.74
  A 0.61 0.61 0.0 0 0 806.53 101.35
  L 806.53 211.39
  A 0.61 0.61 0.0 0 0 807.14 212.00
  L 872.15 212.00
  A 0.61 0.61 0.0 0 0 872.76 211.39
  L 872.76 198.11
  A 0.61 0.61 0.0 0 0 872.15 197.50
  L 823.61 197.49
  A 0.61 0.61 0.0 0 1 823.00 196.88
  L 822.99 163.86
  A 0.61 0.61 0.0 0 1 823.60 163.25
  L 870.39 163.24
  A 0.61 0.61 0.0 0 0 871.00 162.63
  L 871.00 149.40
  A 0.61 0.61 0.0 0 0 870.39 148.79
  L 823.61 148.79
  A 0.61 0.61 0.0 0 1 823.00 148.18
  L 822.98 115.63"
/>
<path stroke="#808080" vector-effect="non-scaling-stroke" d="
  M 142.51 144.93
  Q 147.11 143.69 151.21 140.91
  Q 152.62 139.96 152.62 138.39
  C 152.67 127.96 161.14 119.25 169.44 113.40
  Q 169.87 113.11 169.67 112.62
  Q 169.47 112.12 168.96 112.31
  Q 160.30 115.67 151.00 117.89
  A 1.14 1.14 0.0 0 0 150.15 118.74
  Q 148.85 124.48 149.03 129.25
  C 149.16 132.86 147.67 136.17 144.65 138.25
  Q 140.80 140.91 137.08 143.55
  A 4.52 4.49 -19.0 0 0 135.19 147.40
  Q 135.35 151.26 135.00 155.40
  Q 134.80 157.81 132.36 157.52
  Q 130.01 157.23 127.63 157.20
  A 0.62 0.62 0.0 0 0 127.05 157.60
  Q 126.90 158.02 127.04 158.44
  Q 127.17 158.80 127.53 158.94
  Q 133.30 161.04 138.69 159.11
  Q 140.27 158.53 140.43 156.77
  Q 140.86 152.07 140.99 146.88
  A 2.07 2.06 -7.2 0 1 142.51 144.93"
/>
<path stroke="#808080" vector-effect="non-scaling-stroke" d="
  M 240.18 116.88
  Q 237.67 117.25 234.42 116.48
  Q 234.14 116.41 234.00 116.66
  L 233.85 116.90
  Q 233.42 117.62 234.22 117.88
  C 236.63 118.65 239.66 119.42 241.69 117.45
  Q 242.09 117.05 241.94 116.52
  Q 241.83 116.14 241.43 116.22
  Q 241.24 116.26 241.10 116.41
  Q 240.72 116.81 240.18 116.88"
/>
<path stroke="#808080" vector-effect="non-scaling-stroke" d="
  M 179.53 158.72
  C 177.51 159.74 172.05 162.12 171.59 164.73
  C 171.00 168.11 172.32 172.66 173.67 175.64
  A 0.31 0.31 0.0 0 0 174.27 175.52
  Q 174.34 171.73 173.95 167.89
  Q 173.71 165.41 176.01 164.46
  Q 179.90 162.85 183.80 161.08
  A 3.01 3.00 -16.8 0 0 185.53 157.87
  L 184.56 151.69
  A 1.82 1.82 0.0 0 1 186.83 149.65
  L 195.03 151.87
  A 3.13 3.13 0.0 0 0 198.88 149.62
  Q 201.30 140.17 203.80 131.53
  Q 205.34 126.23 210.69 123.08
  Q 210.91 122.95 210.96 122.69
  Q 210.98 122.56 210.97 122.42
  Q 210.94 122.02 210.55 122.11
  Q 205.27 123.36 199.76 125.59
  C 197.04 126.68 193.77 128.22 194.31 131.77
  C 194.81 135.00 196.93 138.81 193.00 141.04
  Q 192.01 141.61 190.92 141.65
  Q 186.87 141.82 182.80 142.23
  C 180.05 142.51 178.60 144.97 178.63 147.58
  Q 178.69 152.74 179.85 158.06
  A 0.60 0.59 -19.7 0 1 179.53 158.72"
/>
<path stroke="#808080" vector-effect="non-scaling-stroke" d="
  M 239.66 126.55
  C 241.90 126.26 243.97 127.03 245.94 125.55
  A 0.78 0.78 0.0 0 0 245.79 124.21
  C 240.76 121.96 233.95 121.33 229.84 125.78
  A 0.61 0.60 -69.0 0 0 230.29 126.80
  L 233.21 126.77
  Q 234.86 126.75 233.56 127.76
  L 232.29 128.76
  A 0.43 0.43 0.0 0 0 232.41 129.50
  Q 238.22 131.59 242.14 129.27
  Q 244.17 128.08 241.84 127.73
  Q 240.68 127.55 239.59 127.12
  Q 238.52 126.70 239.66 126.55"
/>
<path stroke="#808080" vector-effect="non-scaling-stroke" d="
  M 199.65 208.07
  C 193.62 200.46 186.26 189.48 198.63 183.09
  Q 206.19 179.18 214.51 175.35
  Q 222.92 171.48 225.44 163.76
  Q 227.82 156.42 226.79 150.65
  Q 224.45 137.58 221.64 123.96
  A 0.45 0.44 -25.7 0 0 220.92 123.71
  C 212.10 131.17 203.71 136.38 203.70 149.35
  C 203.69 156.99 204.00 165.83 200.00 172.30
  C 196.91 177.30 192.88 177.94 188.03 180.03
  Q 178.56 184.14 180.25 193.24
  C 180.74 195.84 182.63 199.01 184.53 200.73
  C 192.45 207.89 200.93 214.52 194.37 226.44
  Q 191.04 232.51 187.44 238.42
  C 184.97 242.45 183.68 249.66 187.28 253.51
  Q 187.87 254.16 188.00 253.29
  Q 189.55 242.93 195.53 236.35
  Q 198.77 232.78 201.44 229.15
  C 206.62 222.12 204.92 214.72 199.65 208.07"
/>
<path stroke="#808080" vector-effect="non-scaling-stroke" d="
  M 148.58 172.05
  C 154.19 171.44 159.52 171.43 164.97 169.84
  A 2.68 2.67 -13.1 0 0 166.86 166.82
  Q 165.77 160.40 165.10 154.14
  Q 164.54 148.94 166.12 141.38
  C 166.93 137.51 168.76 134.19 171.73 131.69
  Q 173.39 130.30 171.27 130.73
  C 164.40 132.13 158.85 135.18 155.10 141.41
  C 153.03 144.84 153.79 148.34 156.23 151.29
  C 160.23 156.10 157.11 160.03 151.96 161.03
  Q 147.89 161.83 144.11 162.80
  Q 140.49 163.73 140.05 167.52
  C 139.38 173.37 141.42 178.04 143.95 183.07
  A 0.99 0.99 0.0 0 1 143.71 184.26
  C 137.92 189.20 133.61 200.19 140.36 206.23
  Q 142.35 208.00 141.16 205.62
  C 137.06 197.42 143.81 191.98 149.72 185.98
  C 151.68 183.99 151.78 180.45 149.90 178.20
  C 148.65 176.71 147.54 174.89 147.77 172.86
  A 0.92 0.92 0.0 0 1 148.58 172.05"
/>
<path stroke="#808080" vector-effect="non-scaling-stroke" d="
  M 326.37 163.71
  A 1.10 1.10 0.0 0 1 327.26 165.03
  L 325.91 171.20
  Q 325.57 172.76 326.96 173.54
  C 328.16 174.21 329.53 174.52 330.66 175.41
  Q 334.96 178.77 334.93 185.01
  Q 334.93 185.20 335.04 185.35
  L 335.24 185.62
  Q 335.62 186.14 335.78 185.52
  Q 337.93 176.84 331.70 171.60
  A 1.56 1.55 -58.8 0 1 331.27 169.81
  C 332.37 167.14 334.66 157.70 329.98 156.90
  Q 326.30 156.27 322.20 155.35
  Q 319.11 154.66 320.18 151.73
  C 321.00 149.49 322.73 146.93 321.33 144.55
  C 318.80 140.26 313.05 137.43 308.35 136.38
  Q 307.96 136.30 307.68 136.58
  A 0.50 0.50 0.0 0 0 307.84 137.39
  C 311.78 139.07 313.73 144.79 314.01 148.48
  Q 314.54 155.16 314.65 160.90
  Q 314.74 165.03 318.87 164.06
  Q 322.81 163.13 326.37 163.71"
/>
<path stroke="#808080" vector-effect="non-scaling-stroke" d="
  M 308.61 183.08
  C 319.75 172.67 308.48 159.08 297.43 155.66
  Q 295.30 155.01 296.74 156.71
  Q 302.14 163.09 301.72 170.92
  Q 301.31 178.36 299.36 188.95
  C 298.41 194.10 300.02 199.19 306.06 199.62
  Q 311.13 199.98 315.69 201.54
  A 1.74 1.74 0.0 0 1 316.62 204.08
  L 312.00 211.79
  A 3.59 3.59 0.0 0 0 312.72 216.33
  Q 316.43 219.58 319.75 223.54
  Q 322.57 226.92 321.71 230.86
  Q 320.74 235.31 319.24 238.88
  Q 318.53 240.55 320.10 239.64
  Q 320.68 239.31 321.07 238.77
  Q 327.96 229.16 323.17 219.02
  Q 321.81 216.14 319.94 213.82
  A 0.93 0.92 49.7 0 1 320.04 212.56
  C 332.88 200.85 318.34 189.79 308.72 184.04
  Q 308.03 183.63 308.61 183.08"
/>
<path stroke="#808080" vector-effect="non-scaling-stroke" d="
  M 218.75 270.12
  A 1.77 1.76 -42.7 0 1 218.66 272.24
  C 212.52 279.82 214.33 289.99 221.02 296.88
  Q 222.13 298.02 223.65 298.05
  A 0.66 0.66 0.0 0 0 224.24 297.07
  C 220.44 290.33 220.92 285.04 224.70 278.80
  Q 226.92 275.13 228.78 270.99
  C 230.90 266.29 229.21 261.39 224.78 258.79
  C 222.59 257.51 215.83 253.65 218.67 250.28
  C 221.54 246.86 226.73 244.50 231.05 243.11
  C 236.92 241.22 241.57 236.38 239.47 229.80
  Q 238.47 226.66 237.23 224.98
  Q 232.96 219.21 228.55 213.45
  C 222.21 205.15 220.71 195.23 223.91 185.26
  Q 225.37 180.70 227.22 176.30
  Q 227.44 175.76 227.35 175.19
  A 0.39 0.39 0.0 0 0 226.77 174.92
  Q 218.49 179.65 211.52 184.74
  Q 208.48 186.96 206.11 189.97
  C 201.07 196.35 203.72 204.11 209.33 208.92
  Q 214.08 212.99 218.13 217.05
  Q 220.65 219.60 221.71 223.30
  C 223.05 228.01 217.14 233.73 213.99 236.37
  C 208.78 240.73 205.09 247.43 207.54 254.10
  Q 209.09 258.31 212.56 262.18
  Q 215.68 265.66 218.75 270.12"
/>
<path stroke="#808080" vector-effect="non-scaling-stroke" d="
  M 160.27 210.84
  A 0.29 0.29 0.0 0 1 160.48 210.40
  Q 165.96 209.55 170.56 209.74
  A 2.43 2.43 0.0 0 0 173.09 207.22
  Q 172.81 199.72 173.15 192.20
  Q 173.46 185.37 177.70 180.41
  Q 179.00 178.90 177.10 179.50
  C 172.03 181.10 166.58 184.19 164.40 189.18
  C 163.34 191.61 165.23 194.41 166.59 196.43
  C 167.68 198.05 167.36 199.96 165.38 200.65
  C 160.09 202.52 152.52 203.76 154.96 211.60
  Q 156.19 215.56 157.91 219.08
  A 0.78 0.78 0.0 0 1 157.55 220.12
  Q 152.87 222.41 152.69 227.85
  C 152.60 230.51 153.28 233.99 155.80 235.29
  Q 157.02 235.92 156.32 234.73
  C 154.71 232.00 153.70 227.95 156.75 225.94
  C 160.46 223.51 164.26 219.63 162.25 214.71
  Q 161.41 212.66 160.27 210.84"
/>
<path stroke="#808080" vector-effect="non-scaling-stroke" d="
  M 290.39 259.42
  C 296.16 256.58 300.30 250.17 299.00 243.68
  C 297.86 237.94 292.76 232.25 288.93 227.98
  A 0.62 0.62 0.0 0 1 289.07 227.03
  C 298.16 221.57 296.27 209.72 290.87 202.40
  Q 288.03 198.54 283.14 195.72
  Q 281.59 194.83 282.50 196.36
  C 285.98 202.21 286.29 208.99 283.76 215.29
  C 280.94 222.30 277.87 229.51 275.26 236.39
  A 3.06 3.06 0.0 0 0 277.20 240.40
  Q 283.07 242.25 287.84 244.43
  C 289.85 245.36 291.98 247.87 290.11 250.02
  C 285.98 254.77 280.64 256.67 284.51 264.20
  Q 286.56 268.19 288.30 272.42
  C 289.57 275.51 289.33 279.34 286.49 281.33
  Q 285.25 282.20 284.42 283.29
  Q 283.26 284.81 285.00 284.04
  C 294.19 279.96 295.07 268.11 290.12 260.39
  Q 289.72 259.75 290.39 259.42"
/>
<path stroke="#808080" vector-effect="non-scaling-stroke" d="
  M 290.07 81.38
  C 291.21 80.12 291.85 80.29 293.28 79.74
  Q 293.76 79.56 293.94 79.07
  C 295.57 74.61 294.79 70.84 291.26 67.93
  Q 289.18 66.23 288.16 63.63
  A 0.35 0.35 0.0 0 0 287.55 63.56
  Q 285.96 65.87 284.71 69.03
  Q 283.72 71.56 284.41 73.87
  Q 285.94 78.93 289.19 81.46
  A 0.65 0.65 0.0 0 0 290.07 81.38"
/>
<path stroke="#808080" vector-effect="non-scaling-stroke" d="
  M 300.08 81.87
  C 304.66 80.16 308.56 78.78 308.83 73.10
  Q 308.95 70.52 310.94 68.65
  Q 311.44 68.17 310.76 68.10
  Q 298.95 66.88 296.16 78.44
  Q 295.91 79.48 296.78 80.11
  L 299.04 81.73
  A 1.11 1.10 -37.1 0 0 300.08 81.87"
/>
<path stroke="#808080" vector-effect="non-scaling-stroke" d="
  M 276.13 80.96
  Q 274.07 81.90 271.82 81.56
  Q 271.06 81.44 271.44 82.11
  Q 277.11 92.24 287.55 87.68
  A 0.75 0.73 -12.6 0 0 288.00 86.99
  L 287.99 83.98
  A 1.64 1.63 20.7 0 0 287.43 82.75
  Q 282.19 78.18 276.13 80.96"
/>
<path stroke="#808080" vector-effect="non-scaling-stroke" d="
  M 317.66 89.32
  C 314.31 82.86 307.81 80.69 301.18 83.60
  A 1.90 1.90 0.0 0 0 300.30 86.29
  Q 303.13 91.16 307.80 91.22
  C 310.57 91.25 312.51 90.25 315.05 89.63
  Q 316.20 89.35 317.33 89.72
  Q 317.98 89.93 317.66 89.32"
/>
<path stroke="#808080" vector-effect="non-scaling-stroke" d="
  M 287.70 89.41
  C 283.85 91.00 280.88 91.96 279.78 96.58
  Q 279.03 99.71 277.04 101.58
  Q 276.39 102.20 277.28 102.29
  Q 288.52 103.40 291.77 93.18
  C 292.48 90.93 289.82 88.53 287.70 89.41"
/>
<path stroke="#808080" vector-effect="non-scaling-stroke" d="
  M 300.32 105.29
  A 0.22 0.22 0.0 0 0 300.72 105.33
  C 302.28 102.68 304.20 99.42 303.58 96.23
  Q 302.80 92.13 299.91 89.45
  A 1.00 1.00 0.0 0 0 298.56 89.44
  Q 296.97 90.87 294.95 91.12
  A 1.16 1.16 0.0 0 0 293.99 91.91
  Q 292.94 95.10 294.30 97.83
  C 295.87 100.99 299.17 101.73 300.32 105.29"
/>
<path stroke="#808080" vector-effect="non-scaling-stroke" d="
  M 291.94 78.45
  C 292.27 76.26 291.13 74.05 289.36 72.80
  Q 287.24 71.30 288.89 73.31
  Q 290.85 75.70 291.01 78.50
  Q 291.04 78.99 291.52 78.89
  Q 291.88 78.82 291.94 78.45"
/>
<path stroke="#808080" vector-effect="non-scaling-stroke" d="
  M 303.37 74.67
  Q 303.98 72.72 302.88 74.44
  Q 301.05 77.28 298.69 78.63
  Q 298.22 78.90 298.41 79.41
  Q 298.54 79.76 298.90 79.68
  Q 302.03 78.97 303.37 74.67"
/>
<path stroke="#808080" vector-effect="non-scaling-stroke" d="
  M 280.48 84.45
  L 286.84 85.37
  A 0.13 0.13 0.0 0 0 286.98 85.26
  L 286.99 85.22
  A 3.23 1.37 8.2 0 0 283.99 83.40
  L 283.77 83.37
  A 3.23 1.37 8.2 0 0 280.38 84.27
  L 280.37 84.31
  A 0.13 0.13 0.0 0 0 280.48 84.45"
/>
<path stroke="#808080" vector-effect="non-scaling-stroke" d="
  M 304.46 85.12
  Q 304.02 84.94 303.56 84.89
  A 0.55 0.55 0.0 0 0 303.13 85.84
  Q 305.49 88.11 308.82 86.35
  Q 309.65 85.91 308.70 85.91
  Q 306.38 85.93 304.46 85.12"
/>
<path stroke="#808080" vector-effect="non-scaling-stroke" d="
  M 289.46 90.81
  C 286.42 91.47 284.93 93.99 284.59 96.90
  Q 284.47 97.86 284.98 97.03
  Q 285.74 95.77 286.49 94.32
  Q 286.75 93.82 287.21 93.49
  Q 288.55 92.55 289.71 91.24
  Q 290.24 90.64 289.46 90.81"
/>
<path stroke="#808080" vector-effect="non-scaling-stroke" d="
  M 300.78 97.00
  L 297.33 91.62
  A 0.10 0.10 0.0 0 0 297.19 91.59
  L 297.14 91.62
  A 3.18 1.18 57.3 0 0 297.86 94.93
  L 297.99 95.13
  A 3.18 1.18 57.3 0 0 300.70 97.17
  L 300.75 97.14
  A 0.10 0.10 0.0 0 0 300.78 97.00"
/>
</g>
<path fill="#ffffff" d="
  M 0.00 0.00
  L 1000.00 0.00
  L 1000.00 333.00
  L 0.00 333.00
  L 0.00 0.00
  Z
  M 243.16 35.21
  C 237.46 34.38 232.82 36.16 228.32 39.55
  Q 227.36 40.28 228.56 40.15
  Q 232.56 39.73 236.48 41.28
  C 242.24 43.55 248.36 44.87 254.51 45.11
  C 258.09 45.26 261.01 46.65 264.02 48.29
  A 0.64 0.64 0.0 0 0 264.96 47.60
  Q 264.18 43.74 260.55 41.50
  Q 252.56 36.59 243.16 35.21
  Z
  M 161.94 104.68
  Q 153.74 105.70 148.71 101.00
  Q 146.24 98.69 147.29 101.90
  C 149.90 109.89 162.21 110.46 169.25 108.99
  Q 170.93 108.64 171.25 106.75
  Q 172.65 98.71 173.76 90.93
  C 174.13 88.34 174.99 86.86 177.47 86.07
  Q 183.93 84.00 190.62 82.47
  C 192.55 82.03 194.01 80.68 194.88 78.92
  C 196.89 74.84 198.98 70.84 200.28 66.46
  C 203.86 54.45 208.39 43.12 221.71 39.73
  Q 225.30 38.82 229.09 37.67
  Q 229.98 37.39 230.10 36.47
  L 230.14 36.16
  A 0.49 0.49 0.0 0 0 229.61 35.61
  Q 215.64 36.91 199.95 40.01
  C 191.91 41.60 193.12 53.29 192.93 59.11
  C 192.66 67.33 188.24 72.27 181.00 75.77
  Q 174.46 78.92 168.00 83.20
  C 165.25 85.03 164.17 87.67 164.48 90.91
  Q 164.97 96.15 164.58 101.70
  C 164.46 103.29 163.58 104.48 161.94 104.68
  Z
  M 282.75 71.32
  Q 281.42 70.66 280.51 70.80
  Q 273.86 65.05 266.37 61.31
  Q 265.15 60.70 265.68 61.96
  Q 268.07 67.66 272.23 72.84
  Q 275.24 74.98 277.46 78.97
  Q 274.43 80.95 271.85 80.09
  Q 268.53 78.98 270.22 82.04
  Q 271.96 85.17 274.33 88.04
  Q 269.37 90.92 267.74 96.71
  Q 267.61 97.19 268.05 96.96
  Q 270.05 95.94 271.35 96.24
  Q 267.13 105.51 262.73 114.01
  C 258.45 122.29 262.57 128.26 270.99 130.08
  C 276.37 131.24 282.04 132.10 286.50 135.80
  A 1.94 1.93 -51.2 0 1 286.79 138.49
  Q 283.92 142.18 280.78 145.76
  Q 273.72 153.80 280.63 161.67
  C 285.59 167.33 289.30 171.03 288.36 179.50
  C 287.93 183.48 285.73 187.14 283.66 190.44
  Q 282.48 192.31 284.54 191.51
  Q 286.68 190.68 288.23 188.65
  C 295.16 179.50 296.38 164.82 288.74 155.31
  Q 288.43 154.93 288.76 154.57
  Q 293.20 149.66 297.80 143.20
  C 304.23 134.18 303.55 124.78 292.54 120.37
  C 288.86 118.90 282.14 115.63 280.50 112.20
  Q 278.77 108.60 281.04 104.86
  C 282.22 102.93 284.88 102.58 286.98 102.15
  Q 287.81 107.52 292.00 110.82
  Q 292.68 111.36 292.59 110.50
  L 292.48 109.35
  A 1.27 1.26 60.0 0 1 292.71 108.48
  L 296.90 102.61
  Q 298.95 103.97 299.16 106.17
  Q 299.21 106.71 299.69 106.97
  L 300.34 107.32
  Q 300.79 107.56 300.89 108.06
  Q 302.22 114.74 303.68 121.26
  C 304.00 122.67 304.11 124.19 304.15 125.65
  C 304.25 129.06 307.02 130.89 310.32 130.39
  C 315.35 129.62 320.74 127.89 325.91 128.61
  Q 328.52 128.98 328.05 131.49
  Q 327.11 136.51 325.95 141.61
  Q 325.51 143.52 327.28 144.39
  Q 331.32 146.38 335.38 148.62
  C 342.43 152.53 345.71 159.30 344.34 167.46
  Q 344.24 168.05 344.81 167.84
  Q 345.04 167.76 345.15 167.53
  C 350.75 156.33 343.88 147.97 336.32 140.41
  A 2.49 2.48 33.0 0 1 335.75 137.77
  C 338.63 130.12 338.41 120.79 330.19 116.68
  Q 324.51 113.84 317.83 115.13
  C 315.56 115.57 313.38 114.44 312.39 112.34
  Q 310.68 108.69 307.49 100.11
  Q 312.23 100.39 316.61 98.67
  A 0.55 0.54 42.4 0 0 316.56 97.64
  L 315.47 97.32
  A 1.39 1.36 -8.4 0 1 314.74 96.79
  L 311.90 92.82
  C 313.24 90.34 317.15 90.69 319.22 91.63
  Q 319.61 91.81 319.75 92.20
  Q 322.04 98.65 323.04 104.50
  C 323.27 105.85 324.15 106.78 325.52 106.99
  C 332.02 108.00 338.87 107.31 343.96 103.05
  Q 345.15 102.06 344.35 100.73
  Q 343.41 99.18 341.85 100.02
  Q 336.28 103.06 330.56 101.20
  A 1.28 1.27 -75.2 0 1 329.71 99.73
  C 332.12 88.35 328.52 81.92 317.64 78.13
  Q 317.67 76.31 318.58 75.11
  Q 319.87 73.41 317.80 73.95
  C 315.22 74.63 312.80 73.93 310.19 73.52
  Q 310.03 70.37 312.30 69.13
  Q 315.09 67.61 311.96 67.02
  Q 307.06 66.09 301.10 67.86
  L 298.17 62.11
  Q 295.97 51.44 292.48 41.44
  Q 292.23 40.72 291.47 40.74
  Q 279.85 41.05 264.19 38.59
  Q 263.11 38.43 262.16 38.61
  Q 259.44 39.14 262.04 40.10
  Q 265.56 41.42 268.60 43.79
  C 275.42 49.11 281.51 55.28 286.57 62.24
  Q 287.15 63.04 286.36 63.62
  L 286.04 63.86
  A 0.79 0.78 -36.0 0 1 284.94 63.69
  Q 281.32 58.67 276.71 53.13
  Q 272.78 48.41 266.04 48.47
  A 0.58 0.58 0.0 0 0 265.56 49.37
  Q 268.81 54.36 272.43 59.54
  C 274.27 62.17 279.43 68.17 283.08 66.88
  Q 284.59 66.35 283.76 67.71
  Q 282.87 69.16 282.75 71.32
  Z
  M 178.09 118.89
  Q 177.85 120.89 178.07 122.72
  A 0.71 0.71 0.0 0 0 179.12 123.26
  Q 179.88 122.84 180.15 122.00
  Q 181.88 116.74 183.06 111.60
  C 184.23 106.49 187.48 103.16 192.79 102.59
  Q 195.44 102.31 197.99 102.06
  C 209.77 100.91 215.32 93.86 218.72 83.21
  Q 223.15 69.36 227.31 58.45
  Q 231.17 48.32 240.58 47.31
  Q 242.20 47.14 240.79 46.32
  C 232.29 41.32 219.36 40.00 212.42 48.10
  Q 209.04 52.03 207.02 60.17
  Q 205.04 68.10 202.60 76.70
  C 200.54 83.93 195.57 89.82 188.69 92.91
  C 185.43 94.38 181.14 96.67 180.57 100.56
  Q 179.26 109.38 178.09 118.89
  Z
  M 179.55 134.59
  C 178.83 135.06 177.94 135.10 177.39 135.79
  A 0.37 0.36 -67.3 0 0 177.63 136.38
  C 185.88 137.36 187.93 130.94 190.72 125.01
  Q 192.85 120.45 196.23 115.70
  A 2.55 2.54 28.5 0 1 199.26 114.81
  Q 206.04 117.54 212.92 117.73
  C 222.99 118.02 227.55 111.08 231.16 102.94
  Q 235.09 94.09 238.54 84.84
  C 241.78 76.17 245.31 70.36 253.02 66.29
  C 258.88 63.20 264.56 60.30 263.98 52.34
  A 2.19 2.18 -78.5 0 0 262.81 50.56
  C 254.76 46.40 243.60 44.86 237.18 52.70
  Q 232.34 58.61 229.90 65.78
  Q 225.85 77.65 221.49 88.49
  Q 218.97 94.76 215.90 98.98
  C 210.51 106.37 202.69 107.07 194.39 108.40
  C 191.61 108.85 188.48 110.70 187.90 113.35
  Q 186.48 119.85 184.67 126.74
  Q 183.22 132.24 179.55 134.59
  Z
  M 249.78 87.10
  Q 253.86 85.40 261.93 83.73
  Q 262.60 83.59 262.98 83.09
  A 0.46 0.46 0.0 0 0 262.65 82.35
  C 256.76 81.86 247.44 81.86 245.52 88.53
  Q 244.94 90.53 246.52 89.18
  Q 248.16 87.77 249.78 87.10
  Z
  M 246.54 98.76
  C 253.88 101.29 261.34 97.97 264.61 90.97
  A 0.44 0.43 -80.7 0 0 264.17 90.35
  Q 258.20 91.04 251.66 92.20
  Q 247.03 93.02 245.74 97.19
  A 1.27 1.27 0.0 0 0 246.54 98.76
  Z
  M 381.13 126.78
  Q 381.45 126.99 381.69 127.30
  Q 397.51 147.05 413.89 167.25
  Q 416.56 170.55 419.21 167.22
  L 451.54 126.56
  Q 452.00 125.98 452.00 126.72
  L 452.00 211.40
  A 0.65 0.64 0.0 0 0 452.65 212.04
  L 467.45 212.04
  Q 468.18 212.04 468.18 211.31
  L 468.18 101.46
  Q 468.17 100.74 467.46 100.74
  L 454.28 100.74
  A 2.41 2.40 19.4 0 0 452.41 101.63
  L 417.06 145.52
  A 0.71 0.71 0.0 0 1 415.96 145.52
  L 380.84 101.97
  Q 379.85 100.74 378.27 100.74
  L 365.02 100.74
  A 0.49 0.48 -90.0 0 0 364.54 101.23
  L 364.52 211.53
  A 0.52 0.51 90.0 0 0 365.03 212.05
  L 380.22 212.04
  A 0.51 0.50 -90.0 0 0 380.72 211.53
  L 380.72 127.00
  Q 380.72 126.50 381.13 126.78
  Z
  M 515.01 101.26
  A 0.52 0.52 0.0 0 0 514.49 100.74
  L 499.27 100.74
  A 0.52 0.52 0.0 0 0 498.75 101.26
  L 498.75 211.52
  A 0.52 0.52 0.0 0 0 499.27 212.04
  L 514.49 212.04
  A 0.52 0.52 0.0 0 0 515.01 211.52
  L 515.01 101.26
  Z
  M 562.00 163.71
  A 0.47 0.47 0.0 0 1 562.47 163.24
  L 607.10 163.24
  A 0.47 0.47 0.0 0 0 607.57 162.77
  L 607.57 149.24
  A 0.47 0.47 0.0 0 0 607.10 148.77
  L 562.47 148.80
  A 0.47 0.47 0.0 0 1 562.00 148.33
  L 562.00 115.49
  A 0.47 0.47 0.0 0 1 562.47 115.02
  L 608.53 115.02
  A 0.47 0.47 0.0 0 0 609.00 114.55
  L 609.00 101.21
  A 0.47 0.47 0.0 0 0 608.53 100.74
  L 546.47 100.74
  A 0.47 0.47 0.0 0 0 546.00 101.21
  L 546.00 211.53
  A 0.47 0.47 0.0 0 0 546.47 212.00
  L 610.08 212.00
  A 0.47 0.47 0.0 0 0 610.55 211.53
  L 610.55 197.96
  A 0.47 0.47 0.0 0 0 610.08 197.49
  L 562.47 197.50
  A 0.47 0.47 0.0 0 1 562.00 197.03
  L 562.00 163.71
  Z
  M 650.52 197.37
  A 0.49 0.49 0.0 0 1 650.03 196.88
  L 650.03 101.23
  A 0.49 0.49 0.0 0 0 649.54 100.74
  L 634.37 100.74
  A 0.49 0.49 0.0 0 0 633.88 101.23
  L 633.88 211.55
  A 0.49 0.49 0.0 0 0 634.37 212.04
  L 699.51 212.05
  A 0.49 0.49 0.0 0 0 700.00 211.56
  L 700.00 197.87
  A 0.49 0.49 0.0 0 0 699.51 197.38
  L 650.52 197.37
  Z
  M 736.82 197.37
  A 0.53 0.53 0.0 0 1 736.29 196.84
  L 736.29 101.27
  A 0.53 0.53 0.0 0 0 735.76 100.74
  L 720.53 100.74
  A 0.53 0.53 0.0 0 0 720.00 101.27
  L 720.00 211.51
  A 0.53 0.53 0.0 0 0 720.53 212.04
  L 785.72 212.04
  A 0.53 0.53 0.0 0 0 786.25 211.51
  L 786.26 197.90
  A 0.53 0.53 0.0 0 0 785.73 197.37
  L 736.82 197.37
  Z
  M 822.98 115.63
  A 0.61 0.61 0.0 0 1 823.59 115.02
  L 871.84 115.02
  A 0.61 0.61 0.0 0 0 872.45 114.41
  L 872.46 101.35
  A 0.61 0.61 0.0 0 0 871.85 100.74
  L 807.14 100.74
  A 0.61 0.61 0.0 0 0 806.53 101.35
  L 806.53 211.39
  A 0.61 0.61 0.0 0 0 807.14 212.00
  L 872.15 212.00
  A 0.61 0.61 0.0 0 0 872.76 211.39
  L 872.76 198.11
  A 0.61 0.61 0.0 0 0 872.15 197.50
  L 823.61 197.49
  A 0.61 0.61 0.0 0 1 823.00 196.88
  L 822.99 163.86
  A 0.61 0.61 0.0 0 1 823.60 163.25
  L 870.39 163.24
  A 0.61 0.61 0.0 0 0 871.00 162.63
  L 871.00 149.40
  A 0.61 0.61 0.0 0 0 870.39 148.79
  L 823.61 148.79
  A 0.61 0.61 0.0 0 1 823.00 148.18
  L 822.98 115.63
  Z
  M 142.51 144.93
  Q 147.11 143.69 151.21 140.91
  Q 152.62 139.96 152.62 138.39
  C 152.67 127.96 161.14 119.25 169.44 113.40
  Q 169.87 113.11 169.67 112.62
  Q 169.47 112.12 168.96 112.31
  Q 160.30 115.67 151.00 117.89
  A 1.14 1.14 0.0 0 0 150.15 118.74
  Q 148.85 124.48 149.03 129.25
  C 149.16 132.86 147.67 136.17 144.65 138.25
  Q 140.80 140.91 137.08 143.55
  A 4.52 4.49 -19.0 0 0 135.19 147.40
  Q 135.35 151.26 135.00 155.40
  Q 134.80 157.81 132.36 157.52
  Q 130.01 157.23 127.63 157.20
  A 0.62 0.62 0.0 0 0 127.05 157.60
  Q 126.90 158.02 127.04 158.44
  Q 127.17 158.80 127.53 158.94
  Q 133.30 161.04 138.69 159.11
  Q 140.27 158.53 140.43 156.77
  Q 140.86 152.07 140.99 146.88
  A 2.07 2.06 -7.2 0 1 142.51 144.93
  Z
  M 240.18 116.88
  Q 237.67 117.25 234.42 116.48
  Q 234.14 116.41 234.00 116.66
  L 233.85 116.90
  Q 233.42 117.62 234.22 117.88
  C 236.63 118.65 239.66 119.42 241.69 117.45
  Q 242.09 117.05 241.94 116.52
  Q 241.83 116.14 241.43 116.22
  Q 241.24 116.26 241.10 116.41
  Q 240.72 116.81 240.18 116.88
  Z
  M 179.53 158.72
  C 177.51 159.74 172.05 162.12 171.59 164.73
  C 171.00 168.11 172.32 172.66 173.67 175.64
  A 0.31 0.31 0.0 0 0 174.27 175.52
  Q 174.34 171.73 173.95 167.89
  Q 173.71 165.41 176.01 164.46
  Q 179.90 162.85 183.80 161.08
  A 3.01 3.00 -16.8 0 0 185.53 157.87
  L 184.56 151.69
  A 1.82 1.82 0.0 0 1 186.83 149.65
  L 195.03 151.87
  A 3.13 3.13 0.0 0 0 198.88 149.62
  Q 201.30 140.17 203.80 131.53
  Q 205.34 126.23 210.69 123.08
  Q 210.91 122.95 210.96 122.69
  Q 210.98 122.56 210.97 122.42
  Q 210.94 122.02 210.55 122.11
  Q 205.27 123.36 199.76 125.59
  C 197.04 126.68 193.77 128.22 194.31 131.77
  C 194.81 135.00 196.93 138.81 193.00 141.04
  Q 192.01 141.61 190.92 141.65
  Q 186.87 141.82 182.80 142.23
  C 180.05 142.51 178.60 144.97 178.63 147.58
  Q 178.69 152.74 179.85 158.06
  A 0.60 0.59 -19.7 0 1 179.53 158.72
  Z
  M 239.66 126.55
  C 241.90 126.26 243.97 127.03 245.94 125.55
  A 0.78 0.78 0.0 0 0 245.79 124.21
  C 240.76 121.96 233.95 121.33 229.84 125.78
  A 0.61 0.60 -69.0 0 0 230.29 126.80
  L 233.21 126.77
  Q 234.86 126.75 233.56 127.76
  L 232.29 128.76
  A 0.43 0.43 0.0 0 0 232.41 129.50
  Q 238.22 131.59 242.14 129.27
  Q 244.17 128.08 241.84 127.73
  Q 240.68 127.55 239.59 127.12
  Q 238.52 126.70 239.66 126.55
  Z
  M 199.65 208.07
  C 193.62 200.46 186.26 189.48 198.63 183.09
  Q 206.19 179.18 214.51 175.35
  Q 222.92 171.48 225.44 163.76
  Q 227.82 156.42 226.79 150.65
  Q 224.45 137.58 221.64 123.96
  A 0.45 0.44 -25.7 0 0 220.92 123.71
  C 212.10 131.17 203.71 136.38 203.70 149.35
  C 203.69 156.99 204.00 165.83 200.00 172.30
  C 196.91 177.30 192.88 177.94 188.03 180.03
  Q 178.56 184.14 180.25 193.24
  C 180.74 195.84 182.63 199.01 184.53 200.73
  C 192.45 207.89 200.93 214.52 194.37 226.44
  Q 191.04 232.51 187.44 238.42
  C 184.97 242.45 183.68 249.66 187.28 253.51
  Q 187.87 254.16 188.00 253.29
  Q 189.55 242.93 195.53 236.35
  Q 198.77 232.78 201.44 229.15
  C 206.62 222.12 204.92 214.72 199.65 208.07
  Z
  M 148.58 172.05
  C 154.19 171.44 159.52 171.43 164.97 169.84
  A 2.68 2.67 -13.1 0 0 166.86 166.82
  Q 165.77 160.40 165.10 154.14
  Q 164.54 148.94 166.12 141.38
  C 166.93 137.51 168.76 134.19 171.73 131.69
  Q 173.39 130.30 171.27 130.73
  C 164.40 132.13 158.85 135.18 155.10 141.41
  C 153.03 144.84 153.79 148.34 156.23 151.29
  C 160.23 156.10 157.11 160.03 151.96 161.03
  Q 147.89 161.83 144.11 162.80
  Q 140.49 163.73 140.05 167.52
  C 139.38 173.37 141.42 178.04 143.95 183.07
  A 0.99 0.99 0.0 0 1 143.71 184.26
  C 137.92 189.20 133.61 200.19 140.36 206.23
  Q 142.35 208.00 141.16 205.62
  C 137.06 197.42 143.81 191.98 149.72 185.98
  C 151.68 183.99 151.78 180.45 149.90 178.20
  C 148.65 176.71 147.54 174.89 147.77 172.86
  A 0.92 0.92 0.0 0 1 148.58 172.05
  Z
  M 326.37 163.71
  A 1.10 1.10 0.0 0 1 327.26 165.03
  L 325.91 171.20
  Q 325.57 172.76 326.96 173.54
  C 328.16 174.21 329.53 174.52 330.66 175.41
  Q 334.96 178.77 334.93 185.01
  Q 334.93 185.20 335.04 185.35
  L 335.24 185.62
  Q 335.62 186.14 335.78 185.52
  Q 337.93 176.84 331.70 171.60
  A 1.56 1.55 -58.8 0 1 331.27 169.81
  C 332.37 167.14 334.66 157.70 329.98 156.90
  Q 326.30 156.27 322.20 155.35
  Q 319.11 154.66 320.18 151.73
  C 321.00 149.49 322.73 146.93 321.33 144.55
  C 318.80 140.26 313.05 137.43 308.35 136.38
  Q 307.96 136.30 307.68 136.58
  A 0.50 0.50 0.0 0 0 307.84 137.39
  C 311.78 139.07 313.73 144.79 314.01 148.48
  Q 314.54 155.16 314.65 160.90
  Q 314.74 165.03 318.87 164.06
  Q 322.81 163.13 326.37 163.71
  Z
  M 308.61 183.08
  C 319.75 172.67 308.48 159.08 297.43 155.66
  Q 295.30 155.01 296.74 156.71
  Q 302.14 163.09 301.72 170.92
  Q 301.31 178.36 299.36 188.95
  C 298.41 194.10 300.02 199.19 306.06 199.62
  Q 311.13 199.98 315.69 201.54
  A 1.74 1.74 0.0 0 1 316.62 204.08
  L 312.00 211.79
  A 3.59 3.59 0.0 0 0 312.72 216.33
  Q 316.43 219.58 319.75 223.54
  Q 322.57 226.92 321.71 230.86
  Q 320.74 235.31 319.24 238.88
  Q 318.53 240.55 320.10 239.64
  Q 320.68 239.31 321.07 238.77
  Q 327.96 229.16 323.17 219.02
  Q 321.81 216.14 319.94 213.82
  A 0.93 0.92 49.7 0 1 320.04 212.56
  C 332.88 200.85 318.34 189.79 308.72 184.04
  Q 308.03 183.63 308.61 183.08
  Z
  M 218.75 270.12
  A 1.77 1.76 -42.7 0 1 218.66 272.24
  C 212.52 279.82 214.33 289.99 221.02 296.88
  Q 222.13 298.02 223.65 298.05
  A 0.66 0.66 0.0 0 0 224.24 297.07
  C 220.44 290.33 220.92 285.04 224.70 278.80
  Q 226.92 275.13 228.78 270.99
  C 230.90 266.29 229.21 261.39 224.78 258.79
  C 222.59 257.51 215.83 253.65 218.67 250.28
  C 221.54 246.86 226.73 244.50 231.05 243.11
  C 236.92 241.22 241.57 236.38 239.47 229.80
  Q 238.47 226.66 237.23 224.98
  Q 232.96 219.21 228.55 213.45
  C 222.21 205.15 220.71 195.23 223.91 185.26
  Q 225.37 180.70 227.22 176.30
  Q 227.44 175.76 227.35 175.19
  A 0.39 0.39 0.0 0 0 226.77 174.92
  Q 218.49 179.65 211.52 184.74
  Q 208.48 186.96 206.11 189.97
  C 201.07 196.35 203.72 204.11 209.33 208.92
  Q 214.08 212.99 218.13 217.05
  Q 220.65 219.60 221.71 223.30
  C 223.05 228.01 217.14 233.73 213.99 236.37
  C 208.78 240.73 205.09 247.43 207.54 254.10
  Q 209.09 258.31 212.56 262.18
  Q 215.68 265.66 218.75 270.12
  Z
  M 160.27 210.84
  A 0.29 0.29 0.0 0 1 160.48 210.40
  Q 165.96 209.55 170.56 209.74
  A 2.43 2.43 0.0 0 0 173.09 207.22
  Q 172.81 199.72 173.15 192.20
  Q 173.46 185.37 177.70 180.41
  Q 179.00 178.90 177.10 179.50
  C 172.03 181.10 166.58 184.19 164.40 189.18
  C 163.34 191.61 165.23 194.41 166.59 196.43
  C 167.68 198.05 167.36 199.96 165.38 200.65
  C 160.09 202.52 152.52 203.76 154.96 211.60
  Q 156.19 215.56 157.91 219.08
  A 0.78 0.78 0.0 0 1 157.55 220.12
  Q 152.87 222.41 152.69 227.85
  C 152.60 230.51 153.28 233.99 155.80 235.29
  Q 157.02 235.92 156.32 234.73
  C 154.71 232.00 153.70 227.95 156.75 225.94
  C 160.46 223.51 164.26 219.63 162.25 214.71
  Q 161.41 212.66 160.27 210.84
  Z
  M 290.39 259.42
  C 296.16 256.58 300.30 250.17 299.00 243.68
  C 297.86 237.94 292.76 232.25 288.93 227.98
  A 0.62 0.62 0.0 0 1 289.07 227.03
  C 298.16 221.57 296.27 209.72 290.87 202.40
  Q 288.03 198.54 283.14 195.72
  Q 281.59 194.83 282.50 196.36
  C 285.98 202.21 286.29 208.99 283.76 215.29
  C 280.94 222.30 277.87 229.51 275.26 236.39
  A 3.06 3.06 0.0 0 0 277.20 240.40
  Q 283.07 242.25 287.84 244.43
  C 289.85 245.36 291.98 247.87 290.11 250.02
  C 285.98 254.77 280.64 256.67 284.51 264.20
  Q 286.56 268.19 288.30 272.42
  C 289.57 275.51 289.33 279.34 286.49 281.33
  Q 285.25 282.20 284.42 283.29
  Q 283.26 284.81 285.00 284.04
  C 294.19 279.96 295.07 268.11 290.12 260.39
  Q 289.72 259.75 290.39 259.42
  Z"
/>
<path fill="#000000" d="
  M 228.32 39.55
  C 232.82 36.16 237.46 34.38 243.16 35.21
  Q 252.56 36.59 260.55 41.50
  Q 264.18 43.74 264.96 47.60
  A 0.64 0.64 0.0 0 1 264.02 48.29
  C 261.01 46.65 258.09 45.26 254.51 45.11
  C 248.36 44.87 242.24 43.55 236.48 41.28
  Q 232.56 39.73 228.56 40.15
  Q 227.36 40.28 228.32 39.55
  Z"
/>
<path fill="#000000" d="
  M 161.94 104.68
  C 163.58 104.48 164.46 103.29 164.58 101.70
  Q 164.97 96.15 164.48 90.91
  C 164.17 87.67 165.25 85.03 168.00 83.20
  Q 174.46 78.92 181.00 75.77
  C 188.24 72.27 192.66 67.33 192.93 59.11
  C 193.12 53.29 191.91 41.60 199.95 40.01
  Q 215.64 36.91 229.61 35.61
  A 0.49 0.49 0.0 0 1 230.14 36.16
  L 230.10 36.47
  Q 229.98 37.39 229.09 37.67
  Q 225.30 38.82 221.71 39.73
  C 208.39 43.12 203.86 54.45 200.28 66.46
  C 198.98 70.84 196.89 74.84 194.88 78.92
  C 194.01 80.68 192.55 82.03 190.62 82.47
  Q 183.93 84.00 177.47 86.07
  C 174.99 86.86 174.13 88.34 173.76 90.93
  Q 172.65 98.71 171.25 106.75
  Q 170.93 108.64 169.25 108.99
  C 162.21 110.46 149.90 109.89 147.29 101.90
  Q 146.24 98.69 148.71 101.00
  Q 153.74 105.70 161.94 104.68
  Z"
/>
<path fill="#000000" d="
  M 298.17 62.11
  L 296.88 60.86
  Q 296.34 60.35 296.23 61.08
  Q 295.77 64.11 293.07 66.14
  Q 292.48 66.58 292.88 67.20
  L 295.78 71.59
  Q 296.30 72.37 296.89 71.63
  Q 298.63 69.43 301.10 67.86
  Q 307.06 66.09 311.96 67.02
  Q 315.09 67.61 312.30 69.13
  Q 310.03 70.37 310.19 73.52
  Q 309.79 76.91 307.89 78.67
  Q 306.76 79.72 308.25 80.14
  Q 310.54 80.79 312.64 81.91
  Q 313.91 82.59 314.84 81.48
  L 317.64 78.13
  C 328.52 81.92 332.12 88.35 329.71 99.73
  A 1.28 1.27 -75.2 0 0 330.56 101.20
  Q 336.28 103.06 341.85 100.02
  Q 343.41 99.18 344.35 100.73
  Q 345.15 102.06 343.96 103.05
  C 338.87 107.31 332.02 108.00 325.52 106.99
  C 324.15 106.78 323.27 105.85 323.04 104.50
  Q 322.04 98.65 319.75 92.20
  Q 319.61 91.81 319.22 91.63
  C 317.15 90.69 313.24 90.34 311.90 92.82
  L 305.17 93.10
  Q 304.59 93.12 304.70 93.69
  Q 305.12 95.95 305.07 98.16
  Q 305.06 98.72 305.51 99.07
  Q 306.49 99.81 307.49 100.11
  Q 310.68 108.69 312.39 112.34
  C 313.38 114.44 315.56 115.57 317.83 115.13
  Q 324.51 113.84 330.19 116.68
  C 338.41 120.79 338.63 130.12 335.75 137.77
  A 2.49 2.48 33.0 0 0 336.32 140.41
  C 343.88 147.97 350.75 156.33 345.15 167.53
  Q 345.04 167.76 344.81 167.84
  Q 344.24 168.05 344.34 167.46
  C 345.71 159.30 342.43 152.53 335.38 148.62
  Q 331.32 146.38 327.28 144.39
  Q 325.51 143.52 325.95 141.61
  Q 327.11 136.51 328.05 131.49
  Q 328.52 128.98 325.91 128.61
  C 320.74 127.89 315.35 129.62 310.32 130.39
  C 307.02 130.89 304.25 129.06 304.15 125.65
  C 304.11 124.19 304.00 122.67 303.68 121.26
  Q 302.22 114.74 300.89 108.06
  Q 300.79 107.56 300.34 107.32
  L 299.69 106.97
  Q 299.21 106.71 299.16 106.17
  Q 298.95 103.97 296.90 102.61
  L 292.43 98.26
  Q 292.05 97.88 291.75 98.33
  Q 289.97 100.96 286.98 102.15
  C 284.88 102.58 282.22 102.93 281.04 104.86
  Q 278.77 108.60 280.50 112.20
  C 282.14 115.63 288.86 118.90 292.54 120.37
  C 303.55 124.78 304.23 134.18 297.80 143.20
  Q 293.20 149.66 288.76 154.57
  Q 288.43 154.93 288.74 155.31
  C 296.38 164.82 295.16 179.50 288.23 188.65
  Q 286.68 190.68 284.54 191.51
  Q 282.48 192.31 283.66 190.44
  C 285.73 187.14 287.93 183.48 288.36 179.50
  C 289.30 171.03 285.59 167.33 280.63 161.67
  Q 273.72 153.80 280.78 145.76
  Q 283.92 142.18 286.79 138.49
  A 1.94 1.93 -51.2 0 0 286.50 135.80
  C 282.04 132.10 276.37 131.24 270.99 130.08
  C 262.57 128.26 258.45 122.29 262.73 114.01
  Q 267.13 105.51 271.35 96.24
  L 277.34 97.64
  Q 277.57 97.70 277.67 97.49
  L 280.75 91.41
  Q 280.82 91.26 280.67 91.24
  Q 277.15 90.70 274.33 88.04
  Q 271.96 85.17 270.22 82.04
  Q 268.53 78.98 271.85 80.09
  Q 274.43 80.95 277.46 78.97
  L 282.48 77.92
  Q 282.96 77.82 282.94 77.34
  L 282.75 71.32
  Q 282.87 69.16 283.76 67.71
  Q 284.59 66.35 283.08 66.88
  C 279.43 68.17 274.27 62.17 272.43 59.54
  Q 268.81 54.36 265.56 49.37
  A 0.58 0.58 0.0 0 1 266.04 48.47
  Q 272.78 48.41 276.71 53.13
  Q 281.32 58.67 284.94 63.69
  A 0.79 0.78 -36.0 0 0 286.04 63.86
  L 286.36 63.62
  Q 287.15 63.04 286.57 62.24
  C 281.51 55.28 275.42 49.11 268.60 43.79
  Q 265.56 41.42 262.04 40.10
  Q 259.44 39.14 262.16 38.61
  Q 263.11 38.43 264.19 38.59
  Q 279.85 41.05 291.47 40.74
  Q 292.23 40.72 292.48 41.44
  Q 295.97 51.44 298.17 62.11
  Z
  M 290.07 81.38
  C 291.21 80.12 291.85 80.29 293.28 79.74
  Q 293.76 79.56 293.94 79.07
  C 295.57 74.61 294.79 70.84 291.26 67.93
  Q 289.18 66.23 288.16 63.63
  A 0.35 0.35 0.0 0 0 287.55 63.56
  Q 285.96 65.87 284.71 69.03
  Q 283.72 71.56 284.41 73.87
  Q 285.94 78.93 289.19 81.46
  A 0.65 0.65 0.0 0 0 290.07 81.38
  Z
  M 300.08 81.87
  C 304.66 80.16 308.56 78.78 308.83 73.10
  Q 308.95 70.52 310.94 68.65
  Q 311.44 68.17 310.76 68.10
  Q 298.95 66.88 296.16 78.44
  Q 295.91 79.48 296.78 80.11
  L 299.04 81.73
  A 1.11 1.10 -37.1 0 0 300.08 81.87
  Z
  M 276.13 80.96
  Q 274.07 81.90 271.82 81.56
  Q 271.06 81.44 271.44 82.11
  Q 277.11 92.24 287.55 87.68
  A 0.75 0.73 -12.6 0 0 288.00 86.99
  L 287.99 83.98
  A 1.64 1.63 20.7 0 0 287.43 82.75
  Q 282.19 78.18 276.13 80.96
  Z
  M 317.66 89.32
  C 314.31 82.86 307.81 80.69 301.18 83.60
  A 1.90 1.90 0.0 0 0 300.30 86.29
  Q 303.13 91.16 307.80 91.22
  C 310.57 91.25 312.51 90.25 315.05 89.63
  Q 316.20 89.35 317.33 89.72
  Q 317.98 89.93 317.66 89.32
  Z
  M 287.70 89.41
  C 283.85 91.00 280.88 91.96 279.78 96.58
  Q 279.03 99.71 277.04 101.58
  Q 276.39 102.20 277.28 102.29
  Q 288.52 103.40 291.77 93.18
  C 292.48 90.93 289.82 88.53 287.70 89.41
  Z
  M 300.32 105.29
  A 0.22 0.22 0.0 0 0 300.72 105.33
  C 302.28 102.68 304.20 99.42 303.58 96.23
  Q 302.80 92.13 299.91 89.45
  A 1.00 1.00 0.0 0 0 298.56 89.44
  Q 296.97 90.87 294.95 91.12
  A 1.16 1.16 0.0 0 0 293.99 91.91
  Q 292.94 95.10 294.30 97.83
  C 295.87 100.99 299.17 101.73 300.32 105.29
  Z"
/>
<path fill="#000000" d="
  M 178.09 118.89
  Q 179.26 109.38 180.57 100.56
  C 181.14 96.67 185.43 94.38 188.69 92.91
  C 195.57 89.82 200.54 83.93 202.60 76.70
  Q 205.04 68.10 207.02 60.17
  Q 209.04 52.03 212.42 48.10
  C 219.36 40.00 232.29 41.32 240.79 46.32
  Q 242.20 47.14 240.58 47.31
  Q 231.17 48.32 227.31 58.45
  Q 223.15 69.36 218.72 83.21
  C 215.32 93.86 209.77 100.91 197.99 102.06
  Q 195.44 102.31 192.79 102.59
  C 187.48 103.16 184.23 106.49 183.06 111.60
  Q 181.88 116.74 180.15 122.00
  Q 179.88 122.84 179.12 123.26
  A 0.71 0.71 0.0 0 1 178.07 122.72
  Q 177.85 120.89 178.09 118.89
  Z"
/>
<path fill="#000000" d="
  M 179.55 134.59
  Q 183.22 132.24 184.67 126.74
  Q 186.48 119.85 187.90 113.35
  C 188.48 110.70 191.61 108.85 194.39 108.40
  C 202.69 107.07 210.51 106.37 215.90 98.98
  Q 218.97 94.76 221.49 88.49
  Q 225.85 77.65 229.90 65.78
  Q 232.34 58.61 237.18 52.70
  C 243.60 44.86 254.76 46.40 262.81 50.56
  A 2.19 2.18 -78.5 0 1 263.98 52.34
  C 264.56 60.30 258.88 63.20 253.02 66.29
  C 245.31 70.36 241.78 76.17 238.54 84.84
  Q 235.09 94.09 231.16 102.94
  C 227.55 111.08 222.99 118.02 212.92 117.73
  Q 206.04 117.54 199.26 114.81
  A 2.55 2.54 28.5 0 0 196.23 115.70
  Q 192.85 120.45 190.72 125.01
  C 187.93 130.94 185.88 137.36 177.63 136.38
  A 0.37 0.36 -67.3 0 1 177.39 135.79
  C 177.94 135.10 178.83 135.06 179.55 134.59
  Z"
/>
<path fill="#7a7a7a" d="
  M 298.17 62.11
  L 301.10 67.86
  Q 298.63 69.43 296.89 71.63
  Q 296.30 72.37 295.78 71.59
  L 292.88 67.20
  Q 292.48 66.58 293.07 66.14
  Q 295.77 64.11 296.23 61.08
  Q 296.34 60.35 296.88 60.86
  L 298.17 62.11
  Z"
/>
<path fill="#000000" d="
  M 280.51 70.80
  Q 276.14 70.16 272.23 72.84
  Q 268.07 67.66 265.68 61.96
  Q 265.15 60.70 266.37 61.31
  Q 273.86 65.05 280.51 70.80
  Z"
/>
<path fill="#ffffff" d="
  M 293.28 79.74
  C 291.85 80.29 291.21 80.12 290.07 81.38
  A 0.65 0.65 0.0 0 1 289.19 81.46
  Q 285.94 78.93 284.41 73.87
  Q 283.72 71.56 284.71 69.03
  Q 285.96 65.87 287.55 63.56
  A 0.35 0.35 0.0 0 1 288.16 63.63
  Q 289.18 66.23 291.26 67.93
  C 294.79 70.84 295.57 74.61 293.94 79.07
  Q 293.76 79.56 293.28 79.74
  Z
  M 291.94 78.45
  C 292.27 76.26 291.13 74.05 289.36 72.80
  Q 287.24 71.30 288.89 73.31
  Q 290.85 75.70 291.01 78.50
  Q 291.04 78.99 291.52 78.89
  Q 291.88 78.82 291.94 78.45
  Z"
/>
<path fill="#ffffff" d="
  M 300.08 81.87
  A 1.11 1.10 -37.1 0 1 299.04 81.73
  L 296.78 80.11
  Q 295.91 79.48 296.16 78.44
  Q 298.95 66.88 310.76 68.10
  Q 311.44 68.17 310.94 68.65
  Q 308.95 70.52 308.83 73.10
  C 308.56 78.78 304.66 80.16 300.08 81.87
  Z
  M 303.37 74.67
  Q 303.98 72.72 302.88 74.44
  Q 301.05 77.28 298.69 78.63
  Q 298.22 78.90 298.41 79.41
  Q 298.54 79.76 298.90 79.68
  Q 302.03 78.97 303.37 74.67
  Z"
/>
<path fill="#7a7a7a" d="
  M 280.51 70.80
  Q 281.42 70.66 282.75 71.32
  L 282.94 77.34
  Q 282.96 77.82 282.48 77.92
  L 277.46 78.97
  Q 275.24 74.98 272.23 72.84
  Q 276.14 70.16 280.51 70.80
  Z"
/>
<path fill="#000000" d="
  M 289.36 72.80
  C 291.13 74.05 292.27 76.26 291.94 78.45
  Q 291.88 78.82 291.52 78.89
  Q 291.04 78.99 291.01 78.50
  Q 290.85 75.70 288.89 73.31
  Q 287.24 71.30 289.36 72.80
  Z"
/>
<path fill="#7a7a7a" d="
  M 310.19 73.52
  C 312.80 73.93 315.22 74.63 317.80 73.95
  Q 319.87 73.41 318.58 75.11
  Q 317.67 76.31 317.64 78.13
  L 314.84 81.48
  Q 313.91 82.59 312.64 81.91
  Q 310.54 80.79 308.25 80.14
  Q 306.76 79.72 307.89 78.67
  Q 309.79 76.91 310.19 73.52
  Z"
/>
<path fill="#000000" d="
  M 303.37 74.67
  Q 302.03 78.97 298.90 79.68
  Q 298.54 79.76 298.41 79.41
  Q 298.22 78.90 298.69 78.63
  Q 301.05 77.28 302.88 74.44
  Q 303.98 72.72 303.37 74.67
  Z"
/>
<path fill="#ffffff" d="
  M 276.13 80.96
  Q 282.19 78.18 287.43 82.75
  A 1.64 1.63 20.7 0 1 287.99 83.98
  L 288.00 86.99
  A 0.75 0.73 -12.6 0 1 287.55 87.68
  Q 277.11 92.24 271.44 82.11
  Q 271.06 81.44 271.82 81.56
  Q 274.07 81.90 276.13 80.96
  Z
  M 280.48 84.45
  L 286.84 85.37
  A 0.13 0.13 0.0 0 0 286.98 85.26
  L 286.99 85.22
  A 3.23 1.37 8.2 0 0 283.99 83.40
  L 283.77 83.37
  A 3.23 1.37 8.2 0 0 280.38 84.27
  L 280.37 84.31
  A 0.13 0.13 0.0 0 0 280.48 84.45
  Z"
/>
<path fill="#000000" d="
  M 249.78 87.10
  Q 248.16 87.77 246.52 89.18
  Q 244.94 90.53 245.52 88.53
  C 247.44 81.86 256.76 81.86 262.65 82.35
  A 0.46 0.46 0.0 0 1 262.98 83.09
  Q 262.60 83.59 261.93 83.73
  Q 253.86 85.40 249.78 87.10
  Z"
/>
<path fill="#ffffff" d="
  M 301.18 83.60
  C 307.81 80.69 314.31 82.86 317.66 89.32
  Q 317.98 89.93 317.33 89.72
  Q 316.20 89.35 315.05 89.63
  C 312.51 90.25 310.57 91.25 307.80 91.22
  Q 303.13 91.16 300.30 86.29
  A 1.90 1.90 0.0 0 1 301.18 83.60
  Z
  M 304.46 85.12
  Q 304.02 84.94 303.56 84.89
  A 0.55 0.55 0.0 0 0 303.13 85.84
  Q 305.49 88.11 308.82 86.35
  Q 309.65 85.91 308.70 85.91
  Q 306.38 85.93 304.46 85.12
  Z"
/>
<path fill="#000000" d="
  M 280.48 84.45
  A 0.13 0.13 0.0 0 1 280.37 84.31
  L 280.38 84.27
  A 3.23 1.37 8.2 0 1 283.77 83.37
  L 283.99 83.40
  A 3.23 1.37 8.2 0 1 286.99 85.22
  L 286.98 85.26
  A 0.13 0.13 0.0 0 1 286.84 85.37
  L 280.48 84.45
  Z"
/>
<path fill="#000000" d="
  M 304.46 85.12
  Q 306.38 85.93 308.70 85.91
  Q 309.65 85.91 308.82 86.35
  Q 305.49 88.11 303.13 85.84
  A 0.55 0.55 0.0 0 1 303.56 84.89
  Q 304.02 84.94 304.46 85.12
  Z"
/>
<path fill="#7a7a7a" d="
  M 274.33 88.04
  Q 277.15 90.70 280.67 91.24
  Q 280.82 91.26 280.75 91.41
  L 277.67 97.49
  Q 277.57 97.70 277.34 97.64
  L 271.35 96.24
  Q 270.05 95.94 268.05 96.96
  Q 267.61 97.19 267.74 96.71
  Q 269.37 90.92 274.33 88.04
  Z"
/>
<path fill="#ffffff" d="
  M 279.78 96.58
  C 280.88 91.96 283.85 91.00 287.70 89.41
  C 289.82 88.53 292.48 90.93 291.77 93.18
  Q 288.52 103.40 277.28 102.29
  Q 276.39 102.20 277.04 101.58
  Q 279.03 99.71 279.78 96.58
  Z
  M 289.46 90.81
  C 286.42 91.47 284.93 93.99 284.59 96.90
  Q 284.47 97.86 284.98 97.03
  Q 285.74 95.77 286.49 94.32
  Q 286.75 93.82 287.21 93.49
  Q 288.55 92.55 289.71 91.24
  Q 290.24 90.64 289.46 90.81
  Z"
/>
<path fill="#ffffff" d="
  M 300.32 105.29
  C 299.17 101.73 295.87 100.99 294.30 97.83
  Q 292.94 95.10 293.99 91.91
  A 1.16 1.16 0.0 0 1 294.95 91.12
  Q 296.97 90.87 298.56 89.44
  A 1.00 1.00 0.0 0 1 299.91 89.45
  Q 302.80 92.13 303.58 96.23
  C 304.20 99.42 302.28 102.68 300.72 105.33
  A 0.22 0.22 0.0 0 1 300.32 105.29
  Z
  M 300.78 97.00
  L 297.33 91.62
  A 0.10 0.10 0.0 0 0 297.19 91.59
  L 297.14 91.62
  A 3.18 1.18 57.3 0 0 297.86 94.93
  L 297.99 95.13
  A 3.18 1.18 57.3 0 0 300.70 97.17
  L 300.75 97.14
  A 0.10 0.10 0.0 0 0 300.78 97.00
  Z"
/>
<path fill="#000000" d="
  M 264.61 90.97
  C 261.34 97.97 253.88 101.29 246.54 98.76
  A 1.27 1.27 0.0 0 1 245.74 97.19
  Q 247.03 93.02 251.66 92.20
  Q 258.20 91.04 264.17 90.35
  A 0.44 0.43 -80.7 0 1 264.61 90.97
  Z"
/>
<path fill="#000000" d="
  M 284.59 96.90
  C 284.93 93.99 286.42 91.47 289.46 90.81
  Q 290.24 90.64 289.71 91.24
  Q 288.55 92.55 287.21 93.49
  Q 286.75 93.82 286.49 94.32
  Q 285.74 95.77 284.98 97.03
  Q 284.47 97.86 284.59 96.90
  Z"
/>
<path fill="#000000" d="
  M 300.78 97.00
  A 0.10 0.10 0.0 0 1 300.75 97.14
  L 300.70 97.17
  A 3.18 1.18 57.3 0 1 297.99 95.13
  L 297.86 94.93
  A 3.18 1.18 57.3 0 1 297.14 91.62
  L 297.19 91.59
  A 0.10 0.10 0.0 0 1 297.33 91.62
  L 300.78 97.00
  Z"
/>
<path fill="#7a7a7a" d="
  M 311.90 92.82
  L 314.74 96.79
  A 1.39 1.36 -8.4 0 0 315.47 97.32
  L 316.56 97.64
  A 0.55 0.54 42.4 0 1 316.61 98.67
  Q 312.23 100.39 307.49 100.11
  Q 306.49 99.81 305.51 99.07
  Q 305.06 98.72 305.07 98.16
  Q 305.12 95.95 304.70 93.69
  Q 304.59 93.12 305.17 93.10
  L 311.90 92.82
  Z"
/>
<path fill="#7a7a7a" d="
  M 296.90 102.61
  L 292.71 108.48
  A 1.27 1.26 60.0 0 0 292.48 109.35
  L 292.59 110.50
  Q 292.68 111.36 292.00 110.82
  Q 287.81 107.52 286.98 102.15
  Q 289.97 100.96 291.75 98.33
  Q 292.05 97.88 292.43 98.26
  L 296.90 102.61
  Z"
/>
<path fill="#000000" d="
  M 381.13 126.78
  Q 380.72 126.50 380.72 127.00
  L 380.72 211.53
  A 0.51 0.50 -90.0 0 1 380.22 212.04
  L 365.03 212.05
  A 0.52 0.51 90.0 0 1 364.52 211.53
  L 364.54 101.23
  A 0.49 0.48 -90.0 0 1 365.02 100.74
  L 378.27 100.74
  Q 379.85 100.74 380.84 101.97
  L 415.96 145.52
  A 0.71 0.71 0.0 0 0 417.06 145.52
  L 452.41 101.63
  A 2.41 2.40 19.4 0 1 454.28 100.74
  L 467.46 100.74
  Q 468.17 100.74 468.18 101.46
  L 468.18 211.31
  Q 468.18 212.04 467.45 212.04
  L 452.65 212.04
  A 0.65 0.64 -0.0 0 1 452.00 211.40
  L 452.00 126.72
  Q 452.00 125.98 451.54 126.56
  L 419.21 167.22
  Q 416.56 170.55 413.89 167.25
  Q 397.51 147.05 381.69 127.30
  Q 381.45 126.99 381.13 126.78
  Z"
/>
<rect fill="#000000" x="498.75" y="100.74" width="16.26" height="111.30" rx="0.52"/>
<path fill="#000000" d="
  M 562.00 163.71
  L 562.00 197.03
  A 0.47 0.47 0.0 0 0 562.47 197.50
  L 610.08 197.49
  A 0.47 0.47 0.0 0 1 610.55 197.96
  L 610.55 211.53
  A 0.47 0.47 0.0 0 1 610.08 212.00
  L 546.47 212.00
  A 0.47 0.47 0.0 0 1 546.00 211.53
  L 546.00 101.21
  A 0.47 0.47 0.0 0 1 546.47 100.74
  L 608.53 100.74
  A 0.47 0.47 0.0 0 1 609.00 101.21
  L 609.00 114.55
  A 0.47 0.47 0.0 0 1 608.53 115.02
  L 562.47 115.02
  A 0.47 0.47 0.0 0 0 562.00 115.49
  L 562.00 148.33
  A 0.47 0.47 0.0 0 0 562.47 148.80
  L 607.10 148.77
  A 0.47 0.47 0.0 0 1 607.57 149.24
  L 607.57 162.77
  A 0.47 0.47 0.0 0 1 607.10 163.24
  L 562.47 163.24
  A 0.47 0.47 0.0 0 0 562.00 163.71
  Z"
/>
<path fill="#000000" d="
  M 650.52 197.37
  L 699.51 197.38
  A 0.49 0.49 0.0 0 1 700.00 197.87
  L 700.00 211.56
  A 0.49 0.49 0.0 0 1 699.51 212.05
  L 634.37 212.04
  A 0.49 0.49 0.0 0 1 633.88 211.55
  L 633.88 101.23
  A 0.49 0.49 0.0 0 1 634.37 100.74
  L 649.54 100.74
  A 0.49 0.49 0.0 0 1 650.03 101.23
  L 650.03 196.88
  A 0.49 0.49 0.0 0 0 650.52 197.37
  Z"
/>
<path fill="#000000" d="
  M 736.82 197.37
  L 785.73 197.37
  A 0.53 0.53 0.0 0 1 786.26 197.90
  L 786.25 211.51
  A 0.53 0.53 0.0 0 1 785.72 212.04
  L 720.53 212.04
  A 0.53 0.53 0.0 0 1 720.00 211.51
  L 720.00 101.27
  A 0.53 0.53 0.0 0 1 720.53 100.74
  L 735.76 100.74
  A 0.53 0.53 0.0 0 1 736.29 101.27
  L 736.29 196.84
  A 0.53 0.53 0.0 0 0 736.82 197.37
  Z"
/>
<path fill="#000000" d="
  M 822.98 115.63
  L 823.00 148.18
  A 0.61 0.61 0.0 0 0 823.61 148.79
  L 870.39 148.79
  A 0.61 0.61 0.0 0 1 871.00 149.40
  L 871.00 162.63
  A 0.61 0.61 0.0 0 1 870.39 163.24
  L 823.60 163.25
  A 0.61 0.61 0.0 0 0 822.99 163.86
  L 823.00 196.88
  A 0.61 0.61 0.0 0 0 823.61 197.49
  L 872.15 197.50
  A 0.61 0.61 0.0 0 1 872.76 198.11
  L 872.76 211.39
  A 0.61 0.61 0.0 0 1 872.15 212.00
  L 807.14 212.00
  A 0.61 0.61 0.0 0 1 806.53 211.39
  L 806.53 101.35
  A 0.61 0.61 0.0 0 1 807.14 100.74
  L 871.85 100.74
  A 0.61 0.61 0.0 0 1 872.46 101.35
  L 872.45 114.41
  A 0.61 0.61 0.0 0 1 871.84 115.02
  L 823.59 115.02
  A 0.61 0.61 0.0 0 0 822.98 115.63
  Z"
/>
<path fill="#000000" d="
  M 142.51 144.93
  A 2.07 2.06 -7.2 0 0 140.99 146.88
  Q 140.86 152.07 140.43 156.77
  Q 140.27 158.53 138.69 159.11
  Q 133.30 161.04 127.53 158.94
  Q 127.17 158.80 127.04 158.44
  Q 126.90 158.02 127.05 157.60
  A 0.62 0.62 0.0 0 1 127.63 157.20
  Q 130.01 157.23 132.36 157.52
  Q 134.80 157.81 135.00 155.40
  Q 135.35 151.26 135.19 147.40
  A 4.52 4.49 -19.0 0 1 137.08 143.55
  Q 140.80 140.91 144.65 138.25
  C 147.67 136.17 149.16 132.86 149.03 129.25
  Q 148.85 124.48 150.15 118.74
  A 1.14 1.14 0.0 0 1 151.00 117.89
  Q 160.30 115.67 168.96 112.31
  Q 169.47 112.12 169.67 112.62
  Q 169.87 113.11 169.44 113.40
  C 161.14 119.25 152.67 127.96 152.62 138.39
  Q 152.62 139.96 151.21 140.91
  Q 147.11 143.69 142.51 144.93
  Z"
/>
<path fill="#000000" d="
  M 241.10 116.41
  Q 241.24 116.26 241.43 116.22
  Q 241.83 116.14 241.94 116.52
  Q 242.09 117.05 241.69 117.45
  C 239.66 119.42 236.63 118.65 234.22 117.88
  Q 233.42 117.62 233.85 116.90
  L 234.00 116.66
  Q 234.14 116.41 234.42 116.48
  Q 237.67 117.25 240.18 116.88
  Q 240.72 116.81 241.10 116.41
  Z"
/>
<path fill="#000000" d="
  M 179.53 158.72
  A 0.60 0.59 -19.7 0 0 179.85 158.06
  Q 178.69 152.74 178.63 147.58
  C 178.60 144.97 180.05 142.51 182.80 142.23
  Q 186.87 141.82 190.92 141.65
  Q 192.01 141.61 193.00 141.04
  C 196.93 138.81 194.81 135.00 194.31 131.77
  C 193.77 128.22 197.04 126.68 199.76 125.59
  Q 205.27 123.36 210.55 122.11
  Q 210.94 122.02 210.97 122.42
  Q 210.98 122.56 210.96 122.69
  Q 210.91 122.95 210.69 123.08
  Q 205.34 126.23 203.80 131.53
  Q 201.30 140.17 198.88 149.62
  A 3.13 3.13 0.0 0 1 195.03 151.87
  L 186.83 149.65
  A 1.82 1.82 0.0 0 0 184.56 151.69
  L 185.53 157.87
  A 3.01 3.00 -16.8 0 1 183.80 161.08
  Q 179.90 162.85 176.01 164.46
  Q 173.71 165.41 173.95 167.89
  Q 174.34 171.73 174.27 175.52
  A 0.31 0.31 0.0 0 1 173.67 175.64
  C 172.32 172.66 171.00 168.11 171.59 164.73
  C 172.05 162.12 177.51 159.74 179.53 158.72
  Z"
/>
<path fill="#000000" d="
  M 239.59 127.12
  Q 240.68 127.55 241.84 127.73
  Q 244.17 128.08 242.14 129.27
  Q 238.22 131.59 232.41 129.50
  A 0.43 0.43 0.0 0 1 232.29 128.76
  L 233.56 127.76
  Q 234.86 126.75 233.21 126.77
  L 230.29 126.80
  A 0.61 0.60 -69.0 0 1 229.84 125.78
  C 233.95 121.33 240.76 121.96 245.79 124.21
  A 0.78 0.78 0.0 0 1 245.94 125.55
  C 243.97 127.03 241.90 126.26 239.66 126.55
  Q 238.52 126.70 239.59 127.12
  Z"
/>
<path fill="#000000" d="
  M 198.63 183.09
  C 186.26 189.48 193.62 200.46 199.65 208.07
  C 204.92 214.72 206.62 222.12 201.44 229.15
  Q 198.77 232.78 195.53 236.35
  Q 189.55 242.93 188.00 253.29
  Q 187.87 254.16 187.28 253.51
  C 183.68 249.66 184.97 242.45 187.44 238.42
  Q 191.04 232.51 194.37 226.44
  C 200.93 214.52 192.45 207.89 184.53 200.73
  C 182.63 199.01 180.74 195.84 180.25 193.24
  Q 178.56 184.14 188.03 180.03
  C 192.88 177.94 196.91 177.30 200.00 172.30
  C 204.00 165.83 203.69 156.99 203.70 149.35
  C 203.71 136.38 212.10 131.17 220.92 123.71
  A 0.45 0.44 -25.7 0 1 221.64 123.96
  Q 224.45 137.58 226.79 150.65
  Q 227.82 156.42 225.44 163.76
  Q 222.92 171.48 214.51 175.35
  Q 206.19 179.18 198.63 183.09
  Z"
/>
<path fill="#000000" d="
  M 147.77 172.86
  C 147.54 174.89 148.65 176.71 149.90 178.20
  C 151.78 180.45 151.68 183.99 149.72 185.98
  C 143.81 191.98 137.06 197.42 141.16 205.62
  Q 142.35 208.00 140.36 206.23
  C 133.61 200.19 137.92 189.20 143.71 184.26
  A 0.99 0.99 0.0 0 0 143.95 183.07
  C 141.42 178.04 139.38 173.37 140.05 167.52
  Q 140.49 163.73 144.11 162.80
  Q 147.89 161.83 151.96 161.03
  C 157.11 160.03 160.23 156.10 156.23 151.29
  C 153.79 148.34 153.03 144.84 155.10 141.41
  C 158.85 135.18 164.40 132.13 171.27 130.73
  Q 173.39 130.30 171.73 131.69
  C 168.76 134.19 166.93 137.51 166.12 141.38
  Q 164.54 148.94 165.10 154.14
  Q 165.77 160.40 166.86 166.82
  A 2.68 2.67 -13.1 0 1 164.97 169.84
  C 159.52 171.43 154.19 171.44 148.58 172.05
  A 0.92 0.92 0.0 0 0 147.77 172.86
  Z"
/>
<path fill="#000000" d="
  M 326.37 163.71
  Q 322.81 163.13 318.87 164.06
  Q 314.74 165.03 314.65 160.90
  Q 314.54 155.16 314.01 148.48
  C 313.73 144.79 311.78 139.07 307.84 137.39
  A 0.50 0.50 0.0 0 1 307.68 136.58
  Q 307.96 136.30 308.35 136.38
  C 313.05 137.43 318.80 140.26 321.33 144.55
  C 322.73 146.93 321.00 149.49 320.18 151.73
  Q 319.11 154.66 322.20 155.35
  Q 326.30 156.27 329.98 156.90
  C 334.66 157.70 332.37 167.14 331.27 169.81
  A 1.56 1.55 -58.8 0 0 331.70 171.60
  Q 337.93 176.84 335.78 185.52
  Q 335.62 186.14 335.24 185.62
  L 335.04 185.35
  Q 334.93 185.20 334.93 185.01
  Q 334.96 178.77 330.66 175.41
  C 329.53 174.52 328.16 174.21 326.96 173.54
  Q 325.57 172.76 325.91 171.20
  L 327.26 165.03
  A 1.10 1.10 0.0 0 0 326.37 163.71
  Z"
/>
<path fill="#000000" d="
  M 308.72 184.04
  C 318.34 189.79 332.88 200.85 320.04 212.56
  A 0.93 0.92 49.7 0 0 319.94 213.82
  Q 321.81 216.14 323.17 219.02
  Q 327.96 229.16 321.07 238.77
  Q 320.68 239.31 320.10 239.64
  Q 318.53 240.55 319.24 238.88
  Q 320.74 235.31 321.71 230.86
  Q 322.57 226.92 319.75 223.54
  Q 316.43 219.58 312.72 216.33
  A 3.59 3.59 0.0 0 1 312.00 211.79
  L 316.62 204.08
  A 1.74 1.74 0.0 0 0 315.69 201.54
  Q 311.13 199.98 306.06 199.62
  C 300.02 199.19 298.41 194.10 299.36 188.95
  Q 301.31 178.36 301.72 170.92
  Q 302.14 163.09 296.74 156.71
  Q 295.30 155.01 297.43 155.66
  C 308.48 159.08 319.75 172.67 308.61 183.08
  Q 308.03 183.63 308.72 184.04
  Z"
/>
<path fill="#000000" d="
  M 218.75 270.12
  Q 215.68 265.66 212.56 262.18
  Q 209.09 258.31 207.54 254.10
  C 205.09 247.43 208.78 240.73 213.99 236.37
  C 217.14 233.73 223.05 228.01 221.71 223.30
  Q 220.65 219.60 218.13 217.05
  Q 214.08 212.99 209.33 208.92
  C 203.72 204.11 201.07 196.35 206.11 189.97
  Q 208.48 186.96 211.52 184.74
  Q 218.49 179.65 226.77 174.92
  A 0.39 0.39 0.0 0 1 227.35 175.19
  Q 227.44 175.76 227.22 176.30
  Q 225.37 180.70 223.91 185.26
  C 220.71 195.23 222.21 205.15 228.55 213.45
  Q 232.96 219.21 237.23 224.98
  Q 238.47 226.66 239.47 229.80
  C 241.57 236.38 236.92 241.22 231.05 243.11
  C 226.73 244.50 221.54 246.86 218.67 250.28
  C 215.83 253.65 222.59 257.51 224.78 258.79
  C 229.21 261.39 230.90 266.29 228.78 270.99
  Q 226.92 275.13 224.70 278.80
  C 220.92 285.04 220.44 290.33 224.24 297.07
  A 0.66 0.66 0.0 0 1 223.65 298.05
  Q 222.13 298.02 221.02 296.88
  C 214.33 289.99 212.52 279.82 218.66 272.24
  A 1.77 1.76 -42.7 0 0 218.75 270.12
  Z"
/>
<path fill="#000000" d="
  M 160.27 210.84
  Q 161.41 212.66 162.25 214.71
  C 164.26 219.63 160.46 223.51 156.75 225.94
  C 153.70 227.95 154.71 232.00 156.32 234.73
  Q 157.02 235.92 155.80 235.29
  C 153.28 233.99 152.60 230.51 152.69 227.85
  Q 152.87 222.41 157.55 220.12
  A 0.78 0.78 0.0 0 0 157.91 219.08
  Q 156.19 215.56 154.96 211.60
  C 152.52 203.76 160.09 202.52 165.38 200.65
  C 167.36 199.96 167.68 198.05 166.59 196.43
  C 165.23 194.41 163.34 191.61 164.40 189.18
  C 166.58 184.19 172.03 181.10 177.10 179.50
  Q 179.00 178.90 177.70 180.41
  Q 173.46 185.37 173.15 192.20
  Q 172.81 199.72 173.09 207.22
  A 2.43 2.43 0.0 0 1 170.56 209.74
  Q 165.96 209.55 160.48 210.40
  A 0.29 0.29 0.0 0 0 160.27 210.84
  Z"
/>
<path fill="#000000" d="
  M 290.12 260.39
  C 295.07 268.11 294.19 279.96 285.00 284.04
  Q 283.26 284.81 284.42 283.29
  Q 285.25 282.20 286.49 281.33
  C 289.33 279.34 289.57 275.51 288.30 272.42
  Q 286.56 268.19 284.51 264.20
  C 280.64 256.67 285.98 254.77 290.11 250.02
  C 291.98 247.87 289.85 245.36 287.84 244.43
  Q 283.07 242.25 277.20 240.40
  A 3.06 3.06 0.0 0 1 275.26 236.39
  C 277.87 229.51 280.94 222.30 283.76 215.29
  C 286.29 208.99 285.98 202.21 282.50 196.36
  Q 281.59 194.83 283.14 195.72
  Q 288.03 198.54 290.87 202.40
  C 296.27 209.72 298.16 221.57 289.07 227.03
  A 0.62 0.62 0.0 0 0 288.93 227.98
  C 292.76 232.25 297.86 237.94 299.00 243.68
  C 300.30 250.17 296.16 256.58 290.39 259.42
  Q 289.72 259.75 290.12 260.39
  Z"
/>
</svg>
