<?xml version="1.0" encoding="UTF-8" standalone="no"?>
<!DOCTYPE svg PUBLIC "-//W3C//DTD SVG 1.1//EN" "http://www.w3.org/Graphics/SVG/1.1/DTD/svg11.dtd">
<svg xmlns="http://www.w3.org/2000/svg" version="1.1" viewBox="0.00 0.00 1000.00 333.00">
<g stroke-width="2.00" fill="none" stroke-linecap="butt">
<path stroke="#808080" vector-effect="non-scaling-stroke" d="
  M 469.58 135.08
  Q 452.21 149.66 436.02 163.49
  C 433.88 165.32 434.43 168.68 437.06 169.81
  C 439.23 170.75 443.53 170.24 445.89 170.20
  A 3.02 3.01 24.2 0 0 447.79 169.48
  Q 464.68 155.16 483.21 139.40
  C 484.59 138.23 486.03 136.40 485.02 134.51
  C 476.24 118.10 455.61 115.71 439.17 119.79
  C 424.46 123.44 417.61 135.67 415.55 150.21
  Q 413.32 165.89 415.62 182.08
  C 417.86 197.91 425.36 210.28 442.25 213.47
  C 455.90 216.05 472.36 214.14 481.91 203.10
  C 485.26 199.22 480.79 196.15 478.14 194.12
  C 476.66 192.98 474.32 193.17 473.12 194.68
  Q 469.43 199.36 463.30 200.90
  C 455.80 202.80 444.30 203.19 437.56 199.02
  Q 431.60 195.33 429.38 188.11
  C 426.50 178.77 426.35 168.29 426.84 158.50
  C 427.42 146.73 430.21 133.99 443.55 131.20
  C 451.86 129.47 461.86 129.83 469.53 134.39
  A 0.42 0.42 0.0 0 1 469.58 135.08"
/>
<path stroke="#808080" vector-effect="non-scaling-stroke" d="
  M 770.81 138.82
  Q 770.80 137.99 771.38 138.57
  L 797.04 164.16
  Q 800.21 167.31 803.34 164.13
  L 828.77 138.27
  Q 829.29 137.75 829.29 138.48
  L 829.58 199.13
  Q 829.58 199.49 829.22 199.49
  Q 808.49 199.69 788.04 199.78
  C 785.81 199.79 784.04 201.54 784.12 203.82
  C 784.23 206.73 783.36 211.77 788.00 211.77
  Q 813.89 211.76 837.87 211.66
  A 3.93 3.93 0.0 0 0 841.79 207.71
  Q 841.57 162.62 841.33 122.30
  C 841.31 117.54 835.88 118.19 832.88 118.36
  Q 831.37 118.44 830.26 119.55
  Q 814.64 135.25 800.48 149.77
  Q 800.13 150.13 799.77 149.78
  L 769.68 119.85
  A 3.76 3.72 -21.3 0 0 767.16 118.76
  C 764.06 118.67 758.59 117.87 758.61 122.80
  Q 758.81 165.86 759.07 207.96
  C 759.09 212.39 764.03 212.11 767.02 211.99
  Q 771.28 211.81 771.27 207.64
  Q 771.20 172.90 770.81 138.82"
/>
<path stroke="#808080" vector-effect="non-scaling-stroke" d="
  M 878.5058 121.9788
  A 3.85 3.85 0.0 0 0 874.6357 118.1490
  L 870.1958 118.1723
  A 3.85 3.85 0.0 0 0 866.3660 122.0424
  L 866.8142 207.6412
  A 3.85 3.85 0.0 0 0 870.6843 211.4710
  L 875.1242 211.4477
  A 3.85 3.85 0.0 0 0 878.9540 207.5776
  L 878.5058 121.9788"
/>
<path stroke="#808080" vector-effect="non-scaling-stroke" d="
  M 687.71 131.58
  A 0.17 0.16 -43.2 0 1 687.70 131.74
  L 666.44 165.75
  A 0.44 0.43 45.4 0 1 665.70 165.74
  L 639.07 121.21
  A 3.53 3.51 74.1 0 0 636.02 119.50
  Q 633.00 119.53 629.59 119.46
  C 626.50 119.41 624.14 122.46 625.89 125.32
  Q 641.99 151.72 659.34 180.02
  Q 659.97 181.05 659.97 182.25
  Q 660.07 197.42 660.19 213.15
  C 660.22 217.64 665.16 217.18 668.39 216.97
  C 670.57 216.82 672.30 215.54 672.29 213.32
  Q 672.25 195.81 672.20 181.42
  Q 672.20 180.90 672.47 180.45
  Q 689.65 152.09 705.83 125.36
  Q 708.04 121.71 704.44 119.59
  Q 703.68 119.14 702.84 119.15
  Q 679.36 119.21 657.41 119.37
  C 652.50 119.41 653.27 124.08 653.23 127.34
  C 653.20 129.76 655.05 131.56 657.38 131.56
  Q 672.71 131.56 687.34 131.37
  Q 687.59 131.36 687.71 131.58"
/>
<path stroke="#808080" vector-effect="non-scaling-stroke" d="
  M 213.95 183.22
  C 217.20 205.59 230.08 216.22 252.79 215.49
  C 268.74 214.97 281.25 208.43 285.93 192.21
  Q 289.32 180.48 289.06 167.04
  C 288.66 146.24 284.84 123.94 259.98 119.98
  C 246.70 117.87 230.65 119.72 221.92 130.66
  Q 216.57 137.36 214.52 147.81
  Q 211.25 164.57 213.95 183.22"
/>
<path stroke="#808080" vector-effect="non-scaling-stroke" d="
  M 182.63 197.52
  Q 178.61 201.45 173.12 202.80
  C 163.32 205.20 148.59 205.52 140.44 198.41
  C 137.02 195.42 133.67 199.95 131.86 202.34
  C 127.88 207.60 139.79 212.68 143.10 213.71
  C 156.77 217.94 177.39 218.25 189.32 208.61
  C 200.63 199.46 201.10 181.64 189.99 172.17
  Q 184.06 167.13 177.04 164.97
  Q 168.32 162.28 159.04 159.77
  C 152.64 158.03 143.52 154.21 143.36 146.30
  Q 143.15 136.20 151.66 133.30
  C 160.05 130.43 174.50 130.62 182.03 137.37
  C 183.71 138.88 185.93 138.89 187.57 137.22
  C 190.62 134.13 193.89 131.05 189.03 127.19
  C 179.79 119.83 166.71 118.49 155.17 119.97
  C 142.64 121.58 132.55 129.26 131.34 142.63
  C 130.55 151.43 133.13 158.64 140.23 164.09
  Q 145.89 168.44 152.44 170.42
  Q 161.28 173.11 169.76 175.48
  Q 177.89 177.76 182.87 182.60
  C 186.91 186.54 186.81 193.43 182.63 197.52"
/>
<path stroke="#808080" vector-effect="non-scaling-stroke" d="
  M 605.80 163.06
  C 610.49 158.27 612.56 152.50 612.37 145.53
  C 611.86 125.78 592.08 120.07 575.92 119.82
  Q 566.16 119.66 556.96 119.86
  A 3.84 3.84 0.0 0 0 553.20 123.72
  L 553.69 209.42
  A 3.81 3.80 -89.9 0 0 557.46 213.21
  Q 569.83 213.32 581.76 212.98
  C 592.37 212.69 603.40 210.22 610.75 202.61
  Q 616.88 196.27 617.47 187.96
  Q 618.59 172.22 605.88 163.84
  Q 605.36 163.50 605.80 163.06"
/>
<path stroke="#808080" vector-effect="non-scaling-stroke" d="
  M 380.76 140.31
  L 381.09 200.77
  Q 381.10 201.22 380.64 201.22
  Q 361.79 201.20 339.53 201.39
  C 334.76 201.43 335.90 206.24 335.65 209.17
  C 335.44 211.60 337.51 213.54 339.86 213.53
  Q 363.80 213.46 389.65 213.23
  A 3.67 3.66 89.8 0 0 393.28 209.56
  Q 393.26 167.69 392.80 127.04
  Q 392.76 123.02 392.75 122.97
  C 392.01 119.32 387.39 119.72 384.58 119.94
  Q 382.75 120.09 381.00 121.89
  Q 366.41 136.87 351.82 151.48
  A 0.30 0.30 0.0 0 1 351.40 151.48
  Q 337.03 137.18 321.47 121.69
  C 319.51 119.73 315.75 120.28 313.28 120.50
  C 311.38 120.67 310.18 122.50 310.19 124.33
  Q 310.36 165.96 310.59 209.31
  Q 310.61 213.14 314.45 213.53
  C 317.30 213.82 322.79 214.43 322.77 209.84
  Q 322.64 174.20 322.40 140.85
  Q 322.39 139.75 323.18 140.52
  L 349.21 166.36
  A 3.65 3.65 0.0 0 0 354.38 166.33
  L 380.16 140.07
  Q 380.75 139.46 380.76 140.31"
/>
<path stroke="#808080" vector-effect="non-scaling-stroke" d="
  M 275.54 151.16
  C 273.79 140.95 268.72 133.25 257.51 131.85
  Q 250.70 130.99 243.63 131.97
  C 231.77 133.59 227.17 142.56 225.81 153.37
  Q 223.95 168.10 226.07 182.52
  C 227.50 192.20 231.87 200.55 242.28 202.55
  Q 250.06 204.04 258.77 202.71
  C 270.91 200.85 275.13 190.69 276.23 179.83
  Q 277.81 164.36 275.54 151.16"
/>
<path stroke="#808080" vector-effect="non-scaling-stroke" d="
  M 600.75 175.21
  C 597.31 171.61 591.43 170.26 586.85 168.73
  C 582.42 167.26 583.17 162.54 586.88 160.87
  Q 590.88 159.08 594.26 156.79
  C 600.60 152.51 602.66 143.85 597.02 138.32
  C 594.32 135.69 589.57 134.07 585.91 133.30
  Q 576.91 131.40 566.03 132.05
  Q 565.43 132.09 565.43 132.70
  L 565.76 200.43
  Q 565.76 200.95 566.28 200.95
  Q 576.18 200.98 583.79 200.60
  C 589.79 200.30 599.55 197.85 603.37 192.46
  C 607.29 186.95 605.19 179.87 600.75 175.21"
/>
</g>
<path fill="#ffffff" d="
  M 0.00 0.00
  L 1000.00 0.00
  L 1000.00 333.00
  L 0.00 333.00
  L 0.00 0.00
  Z
  M 469.58 135.08
  Q 452.21 149.66 436.02 163.49
  C 433.88 165.32 434.43 168.68 437.06 169.81
  C 439.23 170.75 443.53 170.24 445.89 170.20
  A 3.02 3.01 24.2 0 0 447.79 169.48
  Q 464.68 155.16 483.21 139.40
  C 484.59 138.23 486.03 136.40 485.02 134.51
  C 476.24 118.10 455.61 115.71 439.17 119.79
  C 424.46 123.44 417.61 135.67 415.55 150.21
  Q 413.32 165.89 415.62 182.08
  C 417.86 197.91 425.36 210.28 442.25 213.47
  C 455.90 216.05 472.36 214.14 481.91 203.10
  C 485.26 199.22 480.79 196.15 478.14 194.12
  C 476.66 192.98 474.32 193.17 473.12 194.68
  Q 469.43 199.36 463.30 200.90
  C 455.80 202.80 444.30 203.19 437.56 199.02
  Q 431.60 195.33 429.38 188.11
  C 426.50 178.77 426.35 168.29 426.84 158.50
  C 427.42 146.73 430.21 133.99 443.55 131.20
  C 451.86 129.47 461.86 129.83 469.53 134.39
  A 0.42 0.42 0.0 0 1 469.58 135.08
  Z
  M 770.81 138.82
  Q 770.80 137.99 771.38 138.57
  L 797.04 164.16
  Q 800.21 167.31 803.34 164.13
  L 828.77 138.27
  Q 829.29 137.75 829.29 138.48
  L 829.58 199.13
  Q 829.58 199.49 829.22 199.49
  Q 808.49 199.69 788.04 199.78
  C 785.81 199.79 784.04 201.54 784.12 203.82
  C 784.23 206.73 783.36 211.77 788.00 211.77
  Q 813.89 211.76 837.87 211.66
  A 3.93 3.93 0.0 0 0 841.79 207.71
  Q 841.57 162.62 841.33 122.30
  C 841.31 117.54 835.88 118.19 832.88 118.36
  Q 831.37 118.44 830.26 119.55
  Q 814.64 135.25 800.48 149.77
  Q 800.13 150.13 799.77 149.78
  L 769.68 119.85
  A 3.76 3.72 -21.3 0 0 767.16 118.76
  C 764.06 118.67 758.59 117.87 758.61 122.80
  Q 758.81 165.86 759.07 207.96
  C 759.09 212.39 764.03 212.11 767.02 211.99
  Q 771.28 211.81 771.27 207.64
  Q 771.20 172.90 770.81 138.82
  Z
  M 878.5058 121.9788
  A 3.85 3.85 0.0 0 0 874.6357 118.1490
  L 870.1958 118.1723
  A 3.85 3.85 0.0 0 0 866.3660 122.0424
  L 866.8142 207.6412
  A 3.85 3.85 0.0 0 0 870.6843 211.4710
  L 875.1242 211.4477
  A 3.85 3.85 0.0 0 0 878.9540 207.5776
  L 878.5058 121.9788
  Z
  M 687.71 131.58
  A 0.17 0.16 -43.2 0 1 687.70 131.74
  L 666.44 165.75
  A 0.44 0.43 45.4 0 1 665.70 165.74
  L 639.07 121.21
  A 3.53 3.51 74.1 0 0 636.02 119.50
  Q 633.00 119.53 629.59 119.46
  C 626.50 119.41 624.14 122.46 625.89 125.32
  Q 641.99 151.72 659.34 180.02
  Q 659.97 181.05 659.97 182.25
  Q 660.07 197.42 660.19 213.15
  C 660.22 217.64 665.16 217.18 668.39 216.97
  C 670.57 216.82 672.30 215.54 672.29 213.32
  Q 672.25 195.81 672.20 181.42
  Q 672.20 180.90 672.47 180.45
  Q 689.65 152.09 705.83 125.36
  Q 708.04 121.71 704.44 119.59
  Q 703.68 119.14 702.84 119.15
  Q 679.36 119.21 657.41 119.37
  C 652.50 119.41 653.27 124.08 653.23 127.34
  C 653.20 129.76 655.05 131.56 657.38 131.56
  Q 672.71 131.56 687.34 131.37
  Q 687.59 131.36 687.71 131.58
  Z
  M 213.95 183.22
  C 217.20 205.59 230.08 216.22 252.79 215.49
  C 268.74 214.97 281.25 208.43 285.93 192.21
  Q 289.32 180.48 289.06 167.04
  C 288.66 146.24 284.84 123.94 259.98 119.98
  C 246.70 117.87 230.65 119.72 221.92 130.66
  Q 216.57 137.36 214.52 147.81
  Q 211.25 164.57 213.95 183.22
  Z
  M 182.63 197.52
  Q 178.61 201.45 173.12 202.80
  C 163.32 205.20 148.59 205.52 140.44 198.41
  C 137.02 195.42 133.67 199.95 131.86 202.34
  C 127.88 207.60 139.79 212.68 143.10 213.71
  C 156.77 217.94 177.39 218.25 189.32 208.61
  C 200.63 199.46 201.10 181.64 189.99 172.17
  Q 184.06 167.13 177.04 164.97
  Q 168.32 162.28 159.04 159.77
  C 152.64 158.03 143.52 154.21 143.36 146.30
  Q 143.15 136.20 151.66 133.30
  C 160.05 130.43 174.50 130.62 182.03 137.37
  C 183.71 138.88 185.93 138.89 187.57 137.22
  C 190.62 134.13 193.89 131.05 189.03 127.19
  C 179.79 119.83 166.71 118.49 155.17 119.97
  C 142.64 121.58 132.55 129.26 131.34 142.63
  C 130.55 151.43 133.13 158.64 140.23 164.09
  Q 145.89 168.44 152.44 170.42
  Q 161.28 173.11 169.76 175.48
  Q 177.89 177.76 182.87 182.60
  C 186.91 186.54 186.81 193.43 182.63 197.52
  Z
  M 605.80 163.06
  C 610.49 158.27 612.56 152.50 612.37 145.53
  C 611.86 125.78 592.08 120.07 575.92 119.82
  Q 566.16 119.66 556.96 119.86
  A 3.84 3.84 0.0 0 0 553.20 123.72
  L 553.69 209.42
  A 3.81 3.80 -89.9 0 0 557.46 213.21
  Q 569.83 213.32 581.76 212.98
  C 592.37 212.69 603.40 210.22 610.75 202.61
  Q 616.88 196.27 617.47 187.96
  Q 618.59 172.22 605.88 163.84
  Q 605.36 163.50 605.80 163.06
  Z
  M 380.76 140.31
  L 381.09 200.77
  Q 381.10 201.22 380.64 201.22
  Q 361.79 201.20 339.53 201.39
  C 334.76 201.43 335.90 206.24 335.65 209.17
  C 335.44 211.60 337.51 213.54 339.86 213.53
  Q 363.80 213.46 389.65 213.23
  A 3.67 3.66 89.8 0 0 393.28 209.56
  Q 393.26 167.69 392.80 127.04
  Q 392.76 123.02 392.75 122.97
  C 392.01 119.32 387.39 119.72 384.58 119.94
  Q 382.75 120.09 381.00 121.89
  Q 366.41 136.87 351.82 151.48
  A 0.30 0.30 0.0 0 1 351.40 151.48
  Q 337.03 137.18 321.47 121.69
  C 319.51 119.73 315.75 120.28 313.28 120.50
  C 311.38 120.67 310.18 122.50 310.19 124.33
  Q 310.36 165.96 310.59 209.31
  Q 310.61 213.14 314.45 213.53
  C 317.30 213.82 322.79 214.43 322.77 209.84
  Q 322.64 174.20 322.40 140.85
  Q 322.39 139.75 323.18 140.52
  L 349.21 166.36
  A 3.65 3.65 0.0 0 0 354.38 166.33
  L 380.16 140.07
  Q 380.75 139.46 380.76 140.31
  Z"
/>
<path fill="#000000" d="
  M 469.58 135.08
  A 0.42 0.42 0.0 0 0 469.53 134.39
  C 461.86 129.83 451.86 129.47 443.55 131.20
  C 430.21 133.99 427.42 146.73 426.84 158.50
  C 426.35 168.29 426.50 178.77 429.38 188.11
  Q 431.60 195.33 437.56 199.02
  C 444.30 203.19 455.80 202.80 463.30 200.90
  Q 469.43 199.36 473.12 194.68
  C 474.32 193.17 476.66 192.98 478.14 194.12
  C 480.79 196.15 485.26 199.22 481.91 203.10
  C 472.36 214.14 455.90 216.05 442.25 213.47
  C 425.36 210.28 417.86 197.91 415.62 182.08
  Q 413.32 165.89 415.55 150.21
  C 417.61 135.67 424.46 123.44 439.17 119.79
  C 455.61 115.71 476.24 118.10 485.02 134.51
  C 486.03 136.40 484.59 138.23 483.21 139.40
  Q 464.68 155.16 447.79 169.48
  A 3.02 3.01 24.2 0 1 445.89 170.20
  C 443.53 170.24 439.23 170.75 437.06 169.81
  C 434.43 168.68 433.88 165.32 436.02 163.49
  Q 452.21 149.66 469.58 135.08
  Z"
/>
<path fill="#000000" d="
  M 770.81 138.82
  Q 771.20 172.90 771.27 207.64
  Q 771.28 211.81 767.02 211.99
  C 764.03 212.11 759.09 212.39 759.07 207.96
  Q 758.81 165.86 758.61 122.80
  C 758.59 117.87 764.06 118.67 767.16 118.76
  A 3.76 3.72 -21.3 0 1 769.68 119.85
  L 799.77 149.78
  Q 800.13 150.13 800.48 149.77
  Q 814.64 135.25 830.26 119.55
  Q 831.37 118.44 832.88 118.36
  C 835.88 118.19 841.31 117.54 841.33 122.30
  Q 841.57 162.62 841.79 207.71
  A 3.93 3.93 0.0 0 1 837.87 211.66
  Q 813.89 211.76 788.00 211.77
  C 783.36 211.77 784.23 206.73 784.12 203.82
  C 784.04 201.54 785.81 199.79 788.04 199.78
  Q 808.49 199.69 829.22 199.49
  Q 829.58 199.49 829.58 199.13
  L 829.29 138.48
  Q 829.29 137.75 828.77 138.27
  L 803.34 164.13
  Q 800.21 167.31 797.04 164.16
  L 771.38 138.57
  Q 770.80 137.99 770.81 138.82
  Z"
/>
<rect fill="#000000" x="-6.07" y="-46.65" transform="translate(872.66,164.81) rotate(-0.3)" width="12.14" height="93.30" rx="3.85"/>
<path fill="#000000" d="
  M 687.71 131.58
  Q 687.59 131.36 687.34 131.37
  Q 672.71 131.56 657.38 131.56
  C 655.05 131.56 653.20 129.76 653.23 127.34
  C 653.27 124.08 652.50 119.41 657.41 119.37
  Q 679.36 119.21 702.84 119.15
  Q 703.68 119.14 704.44 119.59
  Q 708.04 121.71 705.83 125.36
  Q 689.65 152.09 672.47 180.45
  Q 672.20 180.90 672.20 181.42
  Q 672.25 195.81 672.29 213.32
  C 672.30 215.54 670.57 216.82 668.39 216.97
  C 665.16 217.18 660.22 217.64 660.19 213.15
  Q 660.07 197.42 659.97 182.25
  Q 659.97 181.05 659.34 180.02
  Q 641.99 151.72 625.89 125.32
  C 624.14 122.46 626.50 119.41 629.59 119.46
  Q 633.00 119.53 636.02 119.50
  A 3.53 3.51 74.1 0 1 639.07 121.21
  L 665.70 165.74
  A 0.44 0.43 45.4 0 0 666.44 165.75
  L 687.70 131.74
  A 0.17 0.16 -43.2 0 0 687.71 131.58
  Z"
/>
<path fill="#000000" d="
  M 252.79 215.49
  C 230.08 216.22 217.20 205.59 213.95 183.22
  Q 211.25 164.57 214.52 147.81
  Q 216.57 137.36 221.92 130.66
  C 230.65 119.72 246.70 117.87 259.98 119.98
  C 284.84 123.94 288.66 146.24 289.06 167.04
  Q 289.32 180.48 285.93 192.21
  C 281.25 208.43 268.74 214.97 252.79 215.49
  Z
  M 275.54 151.16
  C 273.79 140.95 268.72 133.25 257.51 131.85
  Q 250.70 130.99 243.63 131.97
  C 231.77 133.59 227.17 142.56 225.81 153.37
  Q 223.95 168.10 226.07 182.52
  C 227.50 192.20 231.87 200.55 242.28 202.55
  Q 250.06 204.04 258.77 202.71
  C 270.91 200.85 275.13 190.69 276.23 179.83
  Q 277.81 164.36 275.54 151.16
  Z"
/>
<path fill="#000000" d="
  M 182.63 197.52
  C 186.81 193.43 186.91 186.54 182.87 182.60
  Q 177.89 177.76 169.76 175.48
  Q 161.28 173.11 152.44 170.42
  Q 145.89 168.44 140.23 164.09
  C 133.13 158.64 130.55 151.43 131.34 142.63
  C 132.55 129.26 142.64 121.58 155.17 119.97
  C 166.71 118.49 179.79 119.83 189.03 127.19
  C 193.89 131.05 190.62 134.13 187.57 137.22
  C 185.93 138.89 183.71 138.88 182.03 137.37
  C 174.50 130.62 160.05 130.43 151.66 133.30
  Q 143.15 136.20 143.36 146.30
  C 143.52 154.21 152.64 158.03 159.04 159.77
  Q 168.32 162.28 177.04 164.97
  Q 184.06 167.13 189.99 172.17
  C 201.10 181.64 200.63 199.46 189.32 208.61
  C 177.39 218.25 156.77 217.94 143.10 213.71
  C 139.79 212.68 127.88 207.60 131.86 202.34
  C 133.67 199.95 137.02 195.42 140.44 198.41
  C 148.59 205.52 163.32 205.20 173.12 202.80
  Q 178.61 201.45 182.63 197.52
  Z"
/>
<path fill="#000000" d="
  M 605.88 163.84
  Q 618.59 172.22 617.47 187.96
  Q 616.88 196.27 610.75 202.61
  C 603.40 210.22 592.37 212.69 581.76 212.98
  Q 569.83 213.32 557.46 213.21
  A 3.81 3.80 -89.9 0 1 553.69 209.42
  L 553.20 123.72
  A 3.84 3.84 0.0 0 1 556.96 119.86
  Q 566.16 119.66 575.92 119.82
  C 592.08 120.07 611.86 125.78 612.37 145.53
  C 612.56 152.50 610.49 158.27 605.80 163.06
  Q 605.36 163.50 605.88 163.84
  Z
  M 600.75 175.21
  C 597.31 171.61 591.43 170.26 586.85 168.73
  C 582.42 167.26 583.17 162.54 586.88 160.87
  Q 590.88 159.08 594.26 156.79
  C 600.60 152.51 602.66 143.85 597.02 138.32
  C 594.32 135.69 589.57 134.07 585.91 133.30
  Q 576.91 131.40 566.03 132.05
  Q 565.43 132.09 565.43 132.70
  L 565.76 200.43
  Q 565.76 200.95 566.28 200.95
  Q 576.18 200.98 583.79 200.60
  C 589.79 200.30 599.55 197.85 603.37 192.46
  C 607.29 186.95 605.19 179.87 600.75 175.21
  Z"
/>
<path fill="#000000" d="
  M 380.76 140.31
  Q 380.75 139.46 380.16 140.07
  L 354.38 166.33
  A 3.65 3.65 0.0 0 1 349.21 166.36
  L 323.18 140.52
  Q 322.39 139.75 322.40 140.85
  Q 322.64 174.20 322.77 209.84
  C 322.79 214.43 317.30 213.82 314.45 213.53
  Q 310.61 213.14 310.59 209.31
  Q 310.36 165.96 310.19 124.33
  C 310.18 122.50 311.38 120.67 313.28 120.50
  C 315.75 120.28 319.51 119.73 321.47 121.69
  Q 337.03 137.18 351.40 151.48
  A 0.30 0.30 0.0 0 0 351.82 151.48
  Q 366.41 136.87 381.00 121.89
  Q 382.75 120.09 384.58 119.94
  C 387.39 119.72 392.01 119.32 392.75 122.97
  Q 392.76 123.02 392.80 127.04
  Q 393.26 167.69 393.28 209.56
  A 3.67 3.66 89.8 0 1 389.65 213.23
  Q 363.80 213.46 339.86 213.53
  C 337.51 213.54 335.44 211.60 335.65 209.17
  C 335.90 206.24 334.76 201.43 339.53 201.39
  Q 361.79 201.20 380.64 201.22
  Q 381.10 201.22 381.09 200.77
  L 380.76 140.31
  Z"
/>
<path fill="#ffffff" d="
  M 257.51 131.85
  C 268.72 133.25 273.79 140.95 275.54 151.16
  Q 277.81 164.36 276.23 179.83
  C 275.13 190.69 270.91 200.85 258.77 202.71
  Q 250.06 204.04 242.28 202.55
  C 231.87 200.55 227.50 192.20 226.07 182.52
  Q 223.95 168.10 225.81 153.37
  C 227.17 142.56 231.77 133.59 243.63 131.97
  Q 250.70 130.99 257.51 131.85
  Z"
/>
<path fill="#ffffff" d="
  M 586.85 168.73
  C 591.43 170.26 597.31 171.61 600.75 175.21
  C 605.19 179.87 607.29 186.95 603.37 192.46
  C 599.55 197.85 589.79 200.30 583.79 200.60
  Q 576.18 200.98 566.28 200.95
  Q 565.76 200.95 565.76 200.43
  L 565.43 132.70
  Q 565.43 132.09 566.03 132.05
  Q 576.91 131.40 585.91 133.30
  C 589.57 134.07 594.32 135.69 597.02 138.32
  C 602.66 143.85 600.60 152.51 594.26 156.79
  Q 590.88 159.08 586.88 160.87
  C 583.17 162.54 582.42 167.26 586.85 168.73
  Z"
/>
</svg>
