<?xml version="1.0" encoding="UTF-8" standalone="no"?>
<!DOCTYPE svg PUBLIC "-//W3C//DTD SVG 1.1//EN" "http://www.w3.org/Graphics/SVG/1.1/DTD/svg11.dtd">
<svg xmlns="http://www.w3.org/2000/svg" version="1.1" viewBox="0.00 0.00 1000.00 333.00">
<g stroke-width="2.00" fill="none" stroke-linecap="butt">
<path stroke="#828384" vector-effect="non-scaling-stroke" d="
  M 202.97 63.72
  L 202.95 34.23
  Q 202.95 34.01 202.73 34.01
  L 194.51 34.00
  Q 194.37 34.00 194.37 34.15
  L 194.37 104.32
  Q 194.37 104.50 194.55 104.50
  L 202.72 104.50
  Q 202.94 104.50 202.94 104.28
  Q 203.03 90.07 202.90 76.54
  C 202.77 61.83 229.18 51.55 229.53 74.09
  Q 229.73 87.89 229.60 104.12
  Q 229.60 104.50 229.98 104.50
  L 237.76 104.50
  Q 238.13 104.50 238.13 104.13
  Q 238.12 88.85 238.10 73.25
  C 238.09 63.46 234.56 53.58 223.13 53.21
  C 215.17 52.95 207.53 56.78 203.51 63.86
  Q 202.97 64.82 202.97 63.72"
/>
<path stroke="#828384" vector-effect="non-scaling-stroke" d="
  M 162.29 44.10
  A 0.38 0.38 0.0 0 1 162.67 43.72
  L 185.62 43.72
  A 0.38 0.38 0.0 0 0 186.00 43.34
  L 186.00 36.26
  A 0.38 0.38 0.0 0 0 185.62 35.88
  L 130.39 35.87
  A 0.38 0.38 0.0 0 0 130.01 36.25
  L 130.00 43.34
  A 0.38 0.38 0.0 0 0 130.38 43.72
  L 153.26 43.72
  A 0.38 0.38 0.0 0 1 153.64 44.10
  L 153.65 104.11
  A 0.38 0.38 0.0 0 0 154.03 104.49
  L 161.91 104.50
  A 0.38 0.38 0.0 0 0 162.29 104.12
  L 162.29 44.10"
/>
<path stroke="#828384" vector-effect="non-scaling-stroke" d="
  M 257.63 82.21
  L 298.20 82.22
  Q 298.72 82.22 298.76 81.70
  C 299.95 68.42 292.25 56.51 279.02 53.75
  C 262.63 50.34 247.78 62.53 247.95 79.44
  Q 248.02 86.68 250.97 91.91
  Q 259.61 107.24 277.51 105.15
  C 284.97 104.28 291.25 100.25 295.13 93.87
  Q 295.84 92.72 294.53 92.36
  L 289.24 90.91
  Q 288.30 90.65 287.83 91.51
  Q 284.92 96.82 277.89 98.50
  C 267.24 101.05 258.29 93.40 257.04 82.87
  Q 256.97 82.21 257.63 82.21"
/>
<path stroke="#828384" vector-effect="non-scaling-stroke" d="
  M 403.97 178.64
  C 385.38 151.42 347.81 157.41 334.66 186.08
  Q 324.51 208.23 332.84 231.02
  Q 338.68 246.99 353.29 255.37
  C 371.50 265.81 396.50 261.27 407.69 243.21
  Q 408.16 242.45 408.26 243.34
  Q 408.49 245.27 408.57 247.20
  C 408.89 254.54 414.18 259.21 421.52 260.08
  Q 426.99 260.73 434.30 259.07
  Q 434.79 258.96 434.79 258.47
  L 434.79 238.71
  Q 434.79 238.09 434.17 238.01
  Q 429.14 237.36 429.14 231.85
  Q 429.10 175.40 429.14 125.58
  Q 429.14 125.00 428.56 125.00
  L 405.00 125.00
  Q 404.50 125.00 404.50 125.50
  L 404.50 178.48
  Q 404.50 179.43 403.97 178.64"
/>
<path stroke="#828384" vector-effect="non-scaling-stroke" d="
  M 473.29 125.27
  A 0.27 0.27 0.0 0 0 473.02 125.00
  L 448.98 125.00
  A 0.27 0.27 0.0 0 0 448.71 125.27
  L 448.71 149.23
  A 0.27 0.27 0.0 0 0 448.98 149.50
  L 473.02 149.50
  A 0.27 0.27 0.0 0 0 473.29 149.23
  L 473.29 125.27"
/>
<path stroke="#828384" vector-effect="non-scaling-stroke" d="
  M 197.6654 260.0899
  A 66.14 63.43 89.9 0 0 260.9799 193.8393
  A 66.14 63.43 89.9 0 0 197.4346 127.8101
  A 66.14 63.43 89.9 0 0 134.1201 194.0607
  A 66.14 63.43 89.9 0 0 197.6654 260.0899"
/>
<path stroke="#828384" vector-effect="non-scaling-stroke" d="
  M 513.85 179.25
  Q 513.05 180.49 513.05 179.01
  L 513.03 163.41
  Q 513.03 162.79 512.41 162.79
  L 491.38 162.78
  Q 490.79 162.78 490.79 163.37
  L 490.79 258.39
  Q 490.79 259.00 491.39 259.00
  L 514.78 259.00
  Q 515.44 259.00 515.44 258.34
  Q 515.54 233.17 515.41 205.17
  Q 515.40 202.16 516.58 199.66
  C 520.70 190.96 529.78 183.44 539.51 182.95
  C 553.00 182.26 555.52 195.21 555.51 205.51
  Q 555.49 233.10 555.50 258.46
  Q 555.50 259.00 556.04 259.00
  L 579.80 259.00
  A 0.32 0.32 0.0 0 0 580.12 258.68
  Q 580.11 228.89 580.13 199.68
  C 580.15 182.30 575.84 162.84 554.63 161.34
  C 538.82 160.22 522.63 165.81 513.85 179.25"
/>
<path stroke="#828384" vector-effect="non-scaling-stroke" d="
  M 658.44 244.30
  C 658.63 247.17 658.78 250.19 660.09 252.77
  C 664.79 262.04 676.08 260.97 684.78 259.07
  A 0.45 0.44 -6.6 0 0 685.13 258.64
  L 685.13 238.71
  Q 685.13 238.15 684.57 238.06
  Q 679.15 237.17 679.21 231.20
  Q 679.42 211.06 679.10 197.95
  C 678.60 176.95 665.05 164.35 645.20 161.82
  Q 618.56 158.43 595.90 173.27
  A 0.41 0.41 0.0 0 0 595.76 173.79
  L 602.96 188.74
  A 0.47 0.46 59.4 0 0 603.64 188.92
  Q 612.28 182.72 621.84 179.92
  C 629.62 177.65 640.67 177.19 647.50 182.06
  C 654.25 186.88 655.07 195.01 654.59 202.82
  Q 654.55 203.44 653.97 203.23
  Q 640.43 198.29 625.41 199.63
  C 607.24 201.26 589.91 211.51 590.34 231.49
  C 590.76 250.84 608.38 262.02 626.30 260.73
  Q 645.70 259.33 657.99 244.16
  A 0.25 0.25 0.0 0 1 658.44 244.30"
/>
<path stroke="#828384" vector-effect="non-scaling-stroke" d="
  M 296.92 181.79
  Q 296.04 183.32 296.04 181.55
  L 296.04 163.29
  Q 296.04 162.79 295.54 162.79
  L 273.73 162.78
  A 0.23 0.23 0.0 0 0 273.50 163.01
  L 273.50 258.50
  Q 273.50 259.00 274.00 259.00
  L 297.56 259.00
  Q 298.12 259.00 298.12 258.44
  L 298.12 201.64
  A 3.52 3.51 -31.6 0 1 298.50 200.05
  C 304.32 188.65 317.77 184.47 330.09 184.22
  Q 330.75 184.21 330.75 183.55
  L 330.75 162.43
  Q 330.75 161.65 329.97 161.59
  Q 321.86 160.99 315.90 163.88
  Q 303.86 169.71 296.92 181.79"
/>
<path stroke="#828384" vector-effect="non-scaling-stroke" d="
  M 720.14 182.03
  L 720.12 163.45
  Q 720.12 162.79 719.45 162.79
  L 698.26 162.78
  Q 697.54 162.78 697.54 163.50
  L 697.53 258.39
  Q 697.53 259.00 698.14 259.00
  L 721.51 259.00
  Q 722.12 259.00 722.12 258.39
  Q 722.12 231.12 722.13 202.35
  Q 722.13 200.59 723.11 198.95
  C 729.52 188.30 742.10 184.51 754.12 184.20
  Q 754.75 184.19 754.75 183.55
  L 754.75 162.28
  Q 754.75 161.76 754.24 161.69
  C 740.06 159.82 727.43 170.44 720.71 182.19
  Q 720.14 183.19 720.14 182.03"
/>
<path stroke="#828384" vector-effect="non-scaling-stroke" d="
  M 473.28 163.10
  A 0.32 0.32 0.0 0 0 472.96 162.78
  L 449.04 162.78
  A 0.32 0.32 0.0 0 0 448.72 163.10
  L 448.72 258.68
  A 0.32 0.32 0.0 0 0 449.04 259.00
  L 472.96 259.00
  A 0.32 0.32 0.0 0 0 473.28 258.68
  L 473.28 163.10"
/>
<path stroke="#828384" vector-effect="non-scaling-stroke" d="
  M 807.86 236.74
  A 0.28 0.28 0.0 0 1 807.32 236.75
  L 781.72 163.09
  A 0.44 0.44 0.0 0 0 781.30 162.79
  L 756.75 162.78
  A 0.35 0.35 0.0 0 0 756.42 163.26
  L 793.90 258.25
  A 2.14 2.09 43.2 0 1 793.96 259.66
  Q 792.27 265.33 789.87 271.03
  C 788.14 275.12 785.30 279.14 780.54 279.41
  Q 775.42 279.69 768.97 277.77
  A 0.48 0.47 8.3 0 0 768.36 278.22
  L 768.35 298.51
  A 0.68 0.67 8.9 0 0 768.82 299.15
  C 783.54 303.94 799.36 300.00 808.74 287.32
  Q 811.85 283.13 815.19 273.48
  Q 834.66 217.33 853.77 163.26
  A 0.35 0.35 0.0 0 0 853.44 162.79
  L 830.99 162.78
  A 0.41 0.41 0.0 0 0 830.60 163.07
  L 807.86 236.74"
/>
<path stroke="#828384" vector-effect="non-scaling-stroke" d="
  M 878.00 232.95
  A 0.42 0.42 0.0 0 0 877.58 232.53
  L 858.20 232.53
  A 0.42 0.42 0.0 0 0 857.78 232.95
  L 857.78 258.57
  A 0.42 0.42 0.0 0 0 858.20 258.99
  L 877.58 258.99
  A 0.42 0.42 0.0 0 0 878.00 258.57
  L 878.00 232.95"
/>
<path stroke="#828384" vector-effect="non-scaling-stroke" d="
  M 256.95 75.90
  L 290.55 75.84
  A 0.01 0.01 0.0 0 0 290.56 75.83
  L 290.56 75.76
  A 16.66 16.04 -0.1 0 0 273.88 59.75
  L 273.58 59.75
  A 16.66 16.04 -0.1 0 0 256.94 75.82
  L 256.94 75.89
  A 0.01 0.01 0.0 0 0 256.95 75.90"
/>
<path stroke="#828384" vector-effect="non-scaling-stroke" d="
  M 357.89 197.31
  Q 352.05 210.22 356.88 222.85
  C 364.86 243.77 392.62 245.87 403.49 226.05
  Q 404.56 224.11 404.54 222.00
  Q 404.44 212.56 404.54 202.74
  Q 404.56 200.46 403.46 198.35
  Q 398.18 188.20 387.60 183.82
  C 375.41 178.77 363.12 185.74 357.89 197.31"
/>
<path stroke="#828384" vector-effect="non-scaling-stroke" d="
  M 180.30 154.76
  C 160.34 166.23 155.70 192.58 163.30 212.81
  C 168.40 226.40 180.30 236.53 194.97 237.40
  C 237.63 239.93 248.18 179.38 218.76 157.26
  C 207.92 149.12 191.90 148.09 180.30 154.76"
/>
<path stroke="#828384" vector-effect="non-scaling-stroke" d="
  M 631.03 213.41
  C 621.77 214.32 611.60 220.64 614.03 231.50
  C 615.76 239.24 623.53 243.02 631.13 242.78
  Q 644.38 242.36 652.67 232.73
  Q 654.52 230.57 654.57 228.20
  Q 654.66 223.32 654.68 217.55
  Q 654.69 216.83 654.01 216.59
  Q 641.91 212.35 631.03 213.41"
/>
</g>
<path fill="#ffffff" d="
  M 0.00 0.00
  L 1000.00 0.00
  L 1000.00 333.00
  L 0.00 333.00
  L 0.00 0.00
  Z
  M 202.97 63.72
  L 202.95 34.23
  Q 202.95 34.01 202.73 34.01
  L 194.51 34.00
  Q 194.37 34.00 194.37 34.15
  L 194.37 104.32
  Q 194.37 104.50 194.55 104.50
  L 202.72 104.50
  Q 202.94 104.50 202.94 104.28
  Q 203.03 90.07 202.90 76.54
  C 202.77 61.83 229.18 51.55 229.53 74.09
  Q 229.73 87.89 229.60 104.12
  Q 229.60 104.50 229.98 104.50
  L 237.76 104.50
  Q 238.13 104.50 238.13 104.13
  Q 238.12 88.85 238.10 73.25
  C 238.09 63.46 234.56 53.58 223.13 53.21
  C 215.17 52.95 207.53 56.78 203.51 63.86
  Q 202.97 64.82 202.97 63.72
  Z
  M 162.29 44.10
  A 0.38 0.38 0.0 0 1 162.67 43.72
  L 185.62 43.72
  A 0.38 0.38 0.0 0 0 186.00 43.34
  L 186.00 36.26
  A 0.38 0.38 0.0 0 0 185.62 35.88
  L 130.39 35.87
  A 0.38 0.38 0.0 0 0 130.01 36.25
  L 130.00 43.34
  A 0.38 0.38 0.0 0 0 130.38 43.72
  L 153.26 43.72
  A 0.38 0.38 0.0 0 1 153.64 44.10
  L 153.65 104.11
  A 0.38 0.38 0.0 0 0 154.03 104.49
  L 161.91 104.50
  A 0.38 0.38 0.0 0 0 162.29 104.12
  L 162.29 44.10
  Z
  M 257.63 82.21
  L 298.20 82.22
  Q 298.72 82.22 298.76 81.70
  C 299.95 68.42 292.25 56.51 279.02 53.75
  C 262.63 50.34 247.78 62.53 247.95 79.44
  Q 248.02 86.68 250.97 91.91
  Q 259.61 107.24 277.51 105.15
  C 284.97 104.28 291.25 100.25 295.13 93.87
  Q 295.84 92.72 294.53 92.36
  L 289.24 90.91
  Q 288.30 90.65 287.83 91.51
  Q 284.92 96.82 277.89 98.50
  C 267.24 101.05 258.29 93.40 257.04 82.87
  Q 256.97 82.21 257.63 82.21
  Z
  M 403.97 178.64
  C 385.38 151.42 347.81 157.41 334.66 186.08
  Q 324.51 208.23 332.84 231.02
  Q 338.68 246.99 353.29 255.37
  C 371.50 265.81 396.50 261.27 407.69 243.21
  Q 408.16 242.45 408.26 243.34
  Q 408.49 245.27 408.57 247.20
  C 408.89 254.54 414.18 259.21 421.52 260.08
  Q 426.99 260.73 434.30 259.07
  Q 434.79 258.96 434.79 258.47
  L 434.79 238.71
  Q 434.79 238.09 434.17 238.01
  Q 429.14 237.36 429.14 231.85
  Q 429.10 175.40 429.14 125.58
  Q 429.14 125.00 428.56 125.00
  L 405.00 125.00
  Q 404.50 125.00 404.50 125.50
  L 404.50 178.48
  Q 404.50 179.43 403.97 178.64
  Z
  M 473.29 125.27
  A 0.27 0.27 0.0 0 0 473.02 125.00
  L 448.98 125.00
  A 0.27 0.27 0.0 0 0 448.71 125.27
  L 448.71 149.23
  A 0.27 0.27 0.0 0 0 448.98 149.50
  L 473.02 149.50
  A 0.27 0.27 0.0 0 0 473.29 149.23
  L 473.29 125.27
  Z
  M 197.6654 260.0899
  A 66.14 63.43 89.9 0 0 260.9799 193.8393
  A 66.14 63.43 89.9 0 0 197.4346 127.8101
  A 66.14 63.43 89.9 0 0 134.1201 194.0607
  A 66.14 63.43 89.9 0 0 197.6654 260.0899
  Z
  M 513.85 179.25
  Q 513.05 180.49 513.05 179.01
  L 513.03 163.41
  Q 513.03 162.79 512.41 162.79
  L 491.38 162.78
  Q 490.79 162.78 490.79 163.37
  L 490.79 258.39
  Q 490.79 259.00 491.39 259.00
  L 514.78 259.00
  Q 515.44 259.00 515.44 258.34
  Q 515.54 233.17 515.41 205.17
  Q 515.40 202.16 516.58 199.66
  C 520.70 190.96 529.78 183.44 539.51 182.95
  C 553.00 182.26 555.52 195.21 555.51 205.51
  Q 555.49 233.10 555.50 258.46
  Q 555.50 259.00 556.04 259.00
  L 579.80 259.00
  A 0.32 0.32 0.0 0 0 580.12 258.68
  Q 580.11 228.89 580.13 199.68
  C 580.15 182.30 575.84 162.84 554.63 161.34
  C 538.82 160.22 522.63 165.81 513.85 179.25
  Z
  M 658.44 244.30
  C 658.63 247.17 658.78 250.19 660.09 252.77
  C 664.79 262.04 676.08 260.97 684.78 259.07
  A 0.45 0.44 -6.6 0 0 685.13 258.64
  L 685.13 238.71
  Q 685.13 238.15 684.57 238.06
  Q 679.15 237.17 679.21 231.20
  Q 679.42 211.06 679.10 197.95
  C 678.60 176.95 665.05 164.35 645.20 161.82
  Q 618.56 158.43 595.90 173.27
  A 0.41 0.41 0.0 0 0 595.76 173.79
  L 602.96 188.74
  A 0.47 0.46 59.4 0 0 603.64 188.92
  Q 612.28 182.72 621.84 179.92
  C 629.62 177.65 640.67 177.19 647.50 182.06
  C 654.25 186.88 655.07 195.01 654.59 202.82
  Q 654.55 203.44 653.97 203.23
  Q 640.43 198.29 625.41 199.63
  C 607.24 201.26 589.91 211.51 590.34 231.49
  C 590.76 250.84 608.38 262.02 626.30 260.73
  Q 645.70 259.33 657.99 244.16
  A 0.25 0.25 0.0 0 1 658.44 244.30
  Z
  M 296.92 181.79
  Q 296.04 183.32 296.04 181.55
  L 296.04 163.29
  Q 296.04 162.79 295.54 162.79
  L 273.73 162.78
  A 0.23 0.23 0.0 0 0 273.50 163.01
  L 273.50 258.50
  Q 273.50 259.00 274.00 259.00
  L 297.56 259.00
  Q 298.12 259.00 298.12 258.44
  L 298.12 201.64
  A 3.52 3.51 -31.6 0 1 298.50 200.05
  C 304.32 188.65 317.77 184.47 330.09 184.22
  Q 330.75 184.21 330.75 183.55
  L 330.75 162.43
  Q 330.75 161.65 329.97 161.59
  Q 321.86 160.99 315.90 163.88
  Q 303.86 169.71 296.92 181.79
  Z
  M 720.14 182.03
  L 720.12 163.45
  Q 720.12 162.79 719.45 162.79
  L 698.26 162.78
  Q 697.54 162.78 697.54 163.50
  L 697.53 258.39
  Q 697.53 259.00 698.14 259.00
  L 721.51 259.00
  Q 722.12 259.00 722.12 258.39
  Q 722.12 231.12 722.13 202.35
  Q 722.13 200.59 723.11 198.95
  C 729.52 188.30 742.10 184.51 754.12 184.20
  Q 754.75 184.19 754.75 183.55
  L 754.75 162.28
  Q 754.75 161.76 754.24 161.69
  C 740.06 159.82 727.43 170.44 720.71 182.19
  Q 720.14 183.19 720.14 182.03
  Z
  M 473.28 163.10
  A 0.32 0.32 0.0 0 0 472.96 162.78
  L 449.04 162.78
  A 0.32 0.32 0.0 0 0 448.72 163.10
  L 448.72 258.68
  A 0.32 0.32 0.0 0 0 449.04 259.00
  L 472.96 259.00
  A 0.32 0.32 0.0 0 0 473.28 258.68
  L 473.28 163.10
  Z
  M 807.86 236.74
  A 0.28 0.28 0.0 0 1 807.32 236.75
  L 781.72 163.09
  A 0.44 0.44 0.0 0 0 781.30 162.79
  L 756.75 162.78
  A 0.35 0.35 0.0 0 0 756.42 163.26
  L 793.90 258.25
  A 2.14 2.09 43.2 0 1 793.96 259.66
  Q 792.27 265.33 789.87 271.03
  C 788.14 275.12 785.30 279.14 780.54 279.41
  Q 775.42 279.69 768.97 277.77
  A 0.48 0.47 8.3 0 0 768.36 278.22
  L 768.35 298.51
  A 0.68 0.67 8.9 0 0 768.82 299.15
  C 783.54 303.94 799.36 300.00 808.74 287.32
  Q 811.85 283.13 815.19 273.48
  Q 834.66 217.33 853.77 163.26
  A 0.35 0.35 0.0 0 0 853.44 162.79
  L 830.99 162.78
  A 0.41 0.41 0.0 0 0 830.60 163.07
  L 807.86 236.74
  Z
  M 878.00 232.95
  A 0.42 0.42 0.0 0 0 877.58 232.53
  L 858.20 232.53
  A 0.42 0.42 0.0 0 0 857.78 232.95
  L 857.78 258.57
  A 0.42 0.42 0.0 0 0 858.20 258.99
  L 877.58 258.99
  A 0.42 0.42 0.0 0 0 878.00 258.57
  L 878.00 232.95
  Z"
/>
<path fill="#050608" d="
  M 203.51 63.86
  C 207.53 56.78 215.17 52.95 223.13 53.21
  C 234.56 53.58 238.09 63.46 238.10 73.25
  Q 238.12 88.85 238.13 104.13
  Q 238.13 104.50 237.76 104.50
  L 229.98 104.50
  Q 229.60 104.50 229.60 104.12
  Q 229.73 87.89 229.53 74.09
  C 229.18 51.55 202.77 61.83 202.90 76.54
  Q 203.03 90.07 202.94 104.28
  Q 202.94 104.50 202.72 104.50
  L 194.55 104.50
  Q 194.37 104.50 194.37 104.32
  L 194.37 34.15
  Q 194.37 34.00 194.51 34.00
  L 202.73 34.01
  Q 202.95 34.01 202.95 34.23
  L 202.97 63.72
  Q 202.97 64.82 203.51 63.86
  Z"
/>
<path fill="#050608" d="
  M 162.29 44.10
  L 162.29 104.12
  A 0.38 0.38 0.0 0 1 161.91 104.50
  L 154.03 104.49
  A 0.38 0.38 0.0 0 1 153.65 104.11
  L 153.64 44.10
  A 0.38 0.38 0.0 0 0 153.26 43.72
  L 130.38 43.72
  A 0.38 0.38 0.0 0 1 130.00 43.34
  L 130.01 36.25
  A 0.38 0.38 0.0 0 1 130.39 35.87
  L 185.62 35.88
  A 0.38 0.38 0.0 0 1 186.00 36.26
  L 186.00 43.34
  A 0.38 0.38 0.0 0 1 185.62 43.72
  L 162.67 43.72
  A 0.38 0.38 0.0 0 0 162.29 44.10
  Z"
/>
<path fill="#050608" d="
  M 257.04 82.87
  C 258.29 93.40 267.24 101.05 277.89 98.50
  Q 284.92 96.82 287.83 91.51
  Q 288.30 90.65 289.24 90.91
  L 294.53 92.36
  Q 295.84 92.72 295.13 93.87
  C 291.25 100.25 284.97 104.28 277.51 105.15
  Q 259.61 107.24 250.97 91.91
  Q 248.02 86.68 247.95 79.44
  C 247.78 62.53 262.63 50.34 279.02 53.75
  C 292.25 56.51 299.95 68.42 298.76 81.70
  Q 298.72 82.22 298.20 82.22
  L 257.63 82.21
  Q 256.97 82.21 257.04 82.87
  Z
  M 256.95 75.90
  L 290.55 75.84
  A 0.01 0.01 0.0 0 0 290.56 75.83
  L 290.56 75.76
  A 16.66 16.04 -0.1 0 0 273.88 59.75
  L 273.58 59.75
  A 16.66 16.04 -0.1 0 0 256.94 75.82
  L 256.94 75.89
  A 0.01 0.01 0.0 0 0 256.95 75.90
  Z"
/>
<path fill="#ffffff" d="
  M 256.95 75.90
  A 0.01 0.01 0.0 0 1 256.94 75.89
  L 256.94 75.82
  A 16.66 16.04 -0.1 0 1 273.58 59.75
  L 273.88 59.75
  A 16.66 16.04 -0.1 0 1 290.56 75.76
  L 290.56 75.83
  A 0.01 0.01 0.0 0 1 290.55 75.84
  L 256.95 75.90
  Z"
/>
<path fill="#050608" d="
  M 404.50 178.48
  L 404.50 125.50
  Q 404.50 125.00 405.00 125.00
  L 428.56 125.00
  Q 429.14 125.00 429.14 125.58
  Q 429.10 175.40 429.14 231.85
  Q 429.14 237.36 434.17 238.01
  Q 434.79 238.09 434.79 238.71
  L 434.79 258.47
  Q 434.79 258.96 434.30 259.07
  Q 426.99 260.73 421.52 260.08
  C 414.18 259.21 408.89 254.54 408.57 247.20
  Q 408.49 245.27 408.26 243.34
  Q 408.16 242.45 407.69 243.21
  C 396.50 261.27 371.50 265.81 353.29 255.37
  Q 338.68 246.99 332.84 231.02
  Q 324.51 208.23 334.66 186.08
  C 347.81 157.41 385.38 151.42 403.97 178.64
  Q 404.50 179.43 404.50 178.48
  Z
  M 357.89 197.31
  Q 352.05 210.22 356.88 222.85
  C 364.86 243.77 392.62 245.87 403.49 226.05
  Q 404.56 224.11 404.54 222.00
  Q 404.44 212.56 404.54 202.74
  Q 404.56 200.46 403.46 198.35
  Q 398.18 188.20 387.60 183.82
  C 375.41 178.77 363.12 185.74 357.89 197.31
  Z"
/>
<rect fill="#050608" x="448.71" y="125.00" width="24.58" height="24.50" rx="0.27"/>
<path fill="#050608" d="
  M 197.6654 260.0899
  A 66.14 63.43 89.9 0 1 134.1201 194.0607
  A 66.14 63.43 89.9 0 1 197.4346 127.8101
  A 66.14 63.43 89.9 0 1 260.9799 193.8393
  A 66.14 63.43 89.9 0 1 197.6654 260.0899
  Z
  M 180.30 154.76
  C 160.34 166.23 155.70 192.58 163.30 212.81
  C 168.40 226.40 180.30 236.53 194.97 237.40
  C 237.63 239.93 248.18 179.38 218.76 157.26
  C 207.92 149.12 191.90 148.09 180.30 154.76
  Z"
/>
<path fill="#ffffff" d="
  M 163.30 212.81
  C 155.70 192.58 160.34 166.23 180.30 154.76
  C 191.90 148.09 207.92 149.12 218.76 157.26
  C 248.18 179.38 237.63 239.93 194.97 237.40
  C 180.30 236.53 168.40 226.40 163.30 212.81
  Z"
/>
<path fill="#050608" d="
  M 513.85 179.25
  C 522.63 165.81 538.82 160.22 554.63 161.34
  C 575.84 162.84 580.15 182.30 580.13 199.68
  Q 580.11 228.89 580.12 258.68
  A 0.32 0.32 0.0 0 1 579.80 259.00
  L 556.04 259.00
  Q 555.50 259.00 555.50 258.46
  Q 555.49 233.10 555.51 205.51
  C 555.52 195.21 553.00 182.26 539.51 182.95
  C 529.78 183.44 520.70 190.96 516.58 199.66
  Q 515.40 202.16 515.41 205.17
  Q 515.54 233.17 515.44 258.34
  Q 515.44 259.00 514.78 259.00
  L 491.39 259.00
  Q 490.79 259.00 490.79 258.39
  L 490.79 163.37
  Q 490.79 162.78 491.38 162.78
  L 512.41 162.79
  Q 513.03 162.79 513.03 163.41
  L 513.05 179.01
  Q 513.05 180.49 513.85 179.25
  Z"
/>
<path fill="#050608" d="
  M 658.44 244.30
  A 0.25 0.25 0.0 0 0 657.99 244.16
  Q 645.70 259.33 626.30 260.73
  C 608.38 262.02 590.76 250.84 590.34 231.49
  C 589.91 211.51 607.24 201.26 625.41 199.63
  Q 640.43 198.29 653.97 203.23
  Q 654.55 203.44 654.59 202.82
  C 655.07 195.01 654.25 186.88 647.50 182.06
  C 640.67 177.19 629.62 177.65 621.84 179.92
  Q 612.28 182.72 603.64 188.92
  A 0.47 0.46 59.4 0 1 602.96 188.74
  L 595.76 173.79
  A 0.41 0.41 0.0 0 1 595.90 173.27
  Q 618.56 158.43 645.20 161.82
  C 665.05 164.35 678.60 176.95 679.10 197.95
  Q 679.42 211.06 679.21 231.20
  Q 679.15 237.17 684.57 238.06
  Q 685.13 238.15 685.13 238.71
  L 685.13 258.64
  A 0.45 0.44 -6.6 0 1 684.78 259.07
  C 676.08 260.97 664.79 262.04 660.09 252.77
  C 658.78 250.19 658.63 247.17 658.44 244.30
  Z
  M 631.03 213.41
  C 621.77 214.32 611.60 220.64 614.03 231.50
  C 615.76 239.24 623.53 243.02 631.13 242.78
  Q 644.38 242.36 652.67 232.73
  Q 654.52 230.57 654.57 228.20
  Q 654.66 223.32 654.68 217.55
  Q 654.69 216.83 654.01 216.59
  Q 641.91 212.35 631.03 213.41
  Z"
/>
<path fill="#050608" d="
  M 296.92 181.79
  Q 303.86 169.71 315.90 163.88
  Q 321.86 160.99 329.97 161.59
  Q 330.75 161.65 330.75 162.43
  L 330.75 183.55
  Q 330.75 184.21 330.09 184.22
  C 317.77 184.47 304.32 188.65 298.50 200.05
  A 3.52 3.51 -31.6 0 0 298.12 201.64
  L 298.12 258.44
  Q 298.12 259.00 297.56 259.00
  L 274.00 259.00
  Q 273.50 259.00 273.50 258.50
  L 273.50 163.01
  A 0.23 0.23 0.0 0 1 273.73 162.78
  L 295.54 162.79
  Q 296.04 162.79 296.04 163.29
  L 296.04 181.55
  Q 296.04 183.32 296.92 181.79
  Z"
/>
<path fill="#050608" d="
  M 720.71 182.19
  C 727.43 170.44 740.06 159.82 754.24 161.69
  Q 754.75 161.76 754.75 162.28
  L 754.75 183.55
  Q 754.75 184.19 754.12 184.20
  C 742.10 184.51 729.52 188.30 723.11 198.95
  Q 722.13 200.59 722.13 202.35
  Q 722.12 231.12 722.12 258.39
  Q 722.12 259.00 721.51 259.00
  L 698.14 259.00
  Q 697.53 259.00 697.53 258.39
  L 697.54 163.50
  Q 697.54 162.78 698.26 162.78
  L 719.45 162.79
  Q 720.12 162.79 720.12 163.45
  L 720.14 182.03
  Q 720.14 183.19 720.71 182.19
  Z"
/>
<rect fill="#050608" x="448.72" y="162.78" width="24.56" height="96.22" rx="0.32"/>
<path fill="#050608" d="
  M 807.86 236.74
  L 830.60 163.07
  A 0.41 0.41 0.0 0 1 830.99 162.78
  L 853.44 162.79
  A 0.35 0.35 0.0 0 1 853.77 163.26
  Q 834.66 217.33 815.19 273.48
  Q 811.85 283.13 808.74 287.32
  C 799.36 300.00 783.54 303.94 768.82 299.15
  A 0.68 0.67 8.9 0 1 768.35 298.51
  L 768.36 278.22
  A 0.48 0.47 8.3 0 1 768.97 277.77
  Q 775.42 279.69 780.54 279.41
  C 785.30 279.14 788.14 275.12 789.87 271.03
  Q 792.27 265.33 793.96 259.66
  A 2.14 2.09 43.2 0 0 793.90 258.25
  L 756.42 163.26
  A 0.35 0.35 0.0 0 1 756.75 162.78
  L 781.30 162.79
  A 0.44 0.44 0.0 0 1 781.72 163.09
  L 807.32 236.75
  A 0.28 0.28 0.0 0 0 807.86 236.74
  Z"
/>
<path fill="#ffffff" d="
  M 357.89 197.31
  C 363.12 185.74 375.41 178.77 387.60 183.82
  Q 398.18 188.20 403.46 198.35
  Q 404.56 200.46 404.54 202.74
  Q 404.44 212.56 404.54 222.00
  Q 404.56 224.11 403.49 226.05
  C 392.62 245.87 364.86 243.77 356.88 222.85
  Q 352.05 210.22 357.89 197.31
  Z"
/>
<path fill="#ffffff" d="
  M 614.03 231.50
  C 611.60 220.64 621.77 214.32 631.03 213.41
  Q 641.91 212.35 654.01 216.59
  Q 654.69 216.83 654.68 217.55
  Q 654.66 223.32 654.57 228.20
  Q 654.52 230.57 652.67 232.73
  Q 644.38 242.36 631.13 242.78
  C 623.53 243.02 615.76 239.24 614.03 231.50
  Z"
/>
<rect fill="#050608" x="857.78" y="232.53" width="20.22" height="26.46" rx="0.42"/>
</svg>
